<svg xmlns="http://www.w3.org/2000/svg" viewBox="0 0 252.97 255.37" width="223px" height="225.11px"><defs><style>.cls-1{opacity:0.1;}.cls-2{fill:#534741;}.cls-3{fill:#7cc661;}.cls-4{fill:#cae09b;}.cls-5{fill:#deefb6;}</style></defs><title>cucumber</title><g id="Layer_2" data-name="Layer 2"><g id="Ingredients"><g id="Cucumber"><g class="cls-1"><circle class="cls-2" cx="163.21" cy="37.3" r="32.21"/><circle class="cls-2" cx="163.21" cy="37.3" r="28"/><circle class="cls-2" cx="163.21" cy="37.3" r="17.04"/></g><circle class="cls-3" cx="158.12" cy="32.21" r="32.21"/><circle class="cls-4" cx="158.12" cy="32.21" r="28"/><circle class="cls-5" cx="158.12" cy="32.21" r="17.04"/><g class="cls-1"><circle class="cls-2" cx="115.24" cy="122.44" r="32.21"/><circle class="cls-2" cx="115.24" cy="122.44" r="28"/><circle class="cls-2" cx="115.24" cy="122.44" r="17.04"/></g><circle class="cls-3" cx="110.15" cy="117.35" r="32.21"/><circle class="cls-4" cx="110.15" cy="117.35" r="28"/><circle class="cls-5" cx="110.15" cy="117.35" r="17.04"/><g class="cls-1"><circle class="cls-2" cx="172.8" cy="197.98" r="32.21"/><circle class="cls-2" cx="172.8" cy="197.98" r="28"/><circle class="cls-2" cx="172.8" cy="197.98" r="17.04"/></g><circle class="cls-3" cx="167.71" cy="192.89" r="32.21"/><circle class="cls-4" cx="167.71" cy="192.89" r="28"/><circle class="cls-5" cx="167.71" cy="192.89" r="17.04"/><g class="cls-1"><circle class="cls-2" cx="220.77" cy="120.04" r="32.21"/><circle class="cls-2" cx="220.77" cy="120.04" r="28"/><circle class="cls-2" cx="220.77" cy="120.04" r="17.04"/></g><circle class="cls-3" cx="215.68" cy="114.95" r="32.21"/><circle class="cls-4" cx="215.68" cy="114.95" r="28"/><circle class="cls-5" cx="215.68" cy="114.95" r="17.04"/><g class="cls-1"><circle class="cls-2" cx="37.3" cy="87.66" r="32.21"/><circle class="cls-2" cx="37.3" cy="87.66" r="28"/><circle class="cls-2" cx="37.3" cy="87.66" r="17.04"/></g><circle class="cls-3" cx="32.21" cy="82.57" r="32.21"/><circle class="cls-4" cx="32.21" cy="82.57" r="28"/><circle class="cls-5" cx="32.21" cy="82.57" r="17.04"/><g class="cls-1"><circle class="cls-2" cx="70.87" cy="223.17" r="32.21"/><circle class="cls-2" cx="70.87" cy="223.17" r="28"/><circle class="cls-2" cx="70.87" cy="223.17" r="17.04"/></g><circle class="cls-3" cx="65.78" cy="218.08" r="32.21"/><circle class="cls-4" cx="65.78" cy="218.08" r="28"/><circle class="cls-5" cx="65.78" cy="218.08" r="17.04"/></g></g></g></svg>
