<svg xmlns="http://www.w3.org/2000/svg" viewBox="0 0 410.24 410.24"><defs><style>.cls-1,.cls-5{opacity:0.1;}.cls-2,.cls-5{fill:#534741;}.cls-3{fill:#f2f4ef;}.cls-4{fill:#e6eae1;}.cls-6{fill:#538e4c;}</style></defs><title>plate</title><g id="Layer_2" data-name="Layer 2"><g id="Base"><g class="cls-1"><circle class="cls-2" cx="210.12" cy="210.12" r="200.12"/><circle class="cls-2" cx="210.12" cy="210.12" r="140.32"/></g><circle class="cls-3" cx="200.12" cy="200.12" r="200.12"/><circle class="cls-4" cx="200.12" cy="200.12" r="140.32"/><g id="Salad"><path class="cls-5" d="M211.77,273.14c16.33-12.8,30.57-5.91,31,14,19.8,1.65,25.83,16.28,12.07,31.82,12.8,16.34,5.91,30.58-14,31-1.65,19.81-16.27,25.84-31.81,12.08-16.34,12.8-30.58,5.9-31-14-19.8-1.65-25.83-16.28-12.07-31.82-12.8-16.34-5.91-30.58,14-31C181.6,265.41,196.22,259.38,211.77,273.14Z"/><path class="cls-6" d="M209.13,271c16.34-12.8,30.58-5.91,31,14,19.8,1.65,25.83,16.27,12.07,31.81,12.8,16.34,5.91,30.58-14,31-1.65,19.8-16.28,25.83-31.82,12.07-16.34,12.8-30.57,5.91-31-14-19.81-1.65-25.84-16.27-12.08-31.82-12.8-16.33-5.9-30.57,14-31C179,263.3,193.59,257.27,209.13,271Z"/><path class="cls-5" d="M194.17,66.6c26.18-20.51,49-9.47,49.72,22.36,31.73,2.64,41.38,26.07,19.34,51,20.51,26.17,9.46,49-22.37,49.72-2.64,31.72-26.07,41.38-51,19.34-26.17,20.51-49,9.46-49.71-22.37-31.73-2.64-41.39-26.07-19.34-51-20.51-26.17-9.47-49,22.36-49.71C145.85,54.21,169.28,44.55,194.17,66.6Z"/><path class="cls-6" d="M191,63.21c26.18-20.51,49-9.47,49.72,22.36,31.73,2.65,41.38,26.07,19.34,51,20.51,26.18,9.46,49-22.37,49.72-2.64,31.73-26.07,41.38-51,19.34-26.18,20.51-49,9.46-49.72-22.37-31.73-2.64-41.39-26.07-19.34-51-20.51-26.17-9.47-49,22.36-49.71C142.69,50.82,166.12,41.16,191,63.21Z"/><path class="cls-5" d="M286.53,137.15c29.6-23.19,55.39-10.71,56.22,25.29,35.88,3,46.79,29.48,21.87,57.63,23.19,29.59,10.7,55.38-25.29,56.21-3,35.88-29.48,46.8-57.63,21.87-29.6,23.19-55.39,10.71-56.22-25.29-35.88-3-46.79-29.48-21.87-57.63-23.19-29.6-10.7-55.38,25.29-56.21C231.89,123.14,258.38,112.22,286.53,137.15Z"/><path class="cls-6" d="M283,133.32c29.6-23.2,55.39-10.71,56.22,25.28,35.87,3,46.79,29.49,21.87,57.64,23.19,29.59,10.7,55.38-25.29,56.21-3,35.88-29.48,46.8-57.63,21.87-29.6,23.19-55.39,10.7-56.22-25.29C186,266,175.11,239.55,200,211.4c-23.19-29.6-10.7-55.39,25.29-56.22C228.32,119.31,254.81,108.39,283,133.32Z"/><path class="cls-5" d="M182.87,202.64c21.86-17.12,40.9-7.9,41.51,18.68,26.5,2.21,34.56,21.77,16.15,42.56,17.13,21.85,7.91,40.9-18.67,41.51-2.21,26.5-21.77,34.56-42.56,16.15-21.86,17.13-40.9,7.91-41.52-18.67-26.49-2.21-34.55-21.77-16.15-42.56-17.12-21.86-7.9-40.9,18.68-41.52C142.52,192.3,162.08,184.24,182.87,202.64Z"/><path class="cls-6" d="M180.23,199.81c21.86-17.12,40.9-7.9,41.52,18.68,26.49,2.21,34.55,21.77,16.15,42.56,17.12,21.86,7.9,40.9-18.68,41.51-2.21,26.5-21.77,34.56-42.56,16.15-21.86,17.13-40.9,7.91-41.51-18.67-26.5-2.21-34.56-21.77-16.15-42.56-17.13-21.86-7.91-40.9,18.67-41.52C139.88,189.47,159.44,181.41,180.23,199.81Z"/><path class="cls-5" d="M118.29,143.17c25.61-20.06,47.92-9.26,48.64,21.88,31,2.58,40.48,25.5,18.91,49.85,20.07,25.61,9.26,47.92-21.87,48.64-2.59,31-25.51,40.48-49.86,18.92-25.61,20.06-47.92,9.25-48.64-21.88C34.44,258,25,235.07,46.56,210.72c-20.07-25.6-9.26-47.91,21.87-48.63C71,131.05,93.94,121.61,118.29,143.17Z"/><path class="cls-6" d="M114.16,139.85c25.61-20.06,47.92-9.25,48.64,21.88,31,2.59,40.48,25.51,18.92,49.86,20.06,25.6,9.26,47.91-21.88,48.63-2.59,31-25.51,40.49-49.86,18.92-25.6,20.06-47.91,9.26-48.63-21.88-31-2.58-40.48-25.5-18.92-49.85-20.06-25.61-9.26-47.92,21.88-48.64C66.89,127.74,89.81,118.29,114.16,139.85Z"/></g></g></g></svg>