<svg xmlns="http://www.w3.org/2000/svg" viewBox="0 0 232.71 233.54" width="223px" height="223.78px"><defs><style>.cls-1{opacity:0.2;}.cls-2{fill:#534741;}.cls-3{fill:#170300;}</style></defs><title>salad-olives</title><g id="Layer_2" data-name="Layer 2"><g id="Ingredients"><g id="Olives"><g id="Olives-2" data-name="Olives"><g id="Olives-3" data-name="Olives" class="cls-1"><path class="cls-2" d="M83.27,41.7A12.73,12.73,0,1,0,96,54.42,12.72,12.72,0,0,0,83.27,41.7Zm0,18.44A5.72,5.72,0,1,1,89,54.42,5.72,5.72,0,0,1,83.27,60.14Z"/></g><g id="Olives-4" data-name="Olives"><path class="cls-3" d="M81.61,39.21A12.73,12.73,0,1,0,94.34,51.94,12.72,12.72,0,0,0,81.61,39.21Zm0,18.44a5.71,5.71,0,1,1,5.72-5.71A5.71,5.71,0,0,1,81.61,57.65Z"/></g></g><g id="Olives-5" data-name="Olives"><g id="Olives-6" data-name="Olives" class="cls-1"><path class="cls-2" d="M179.71,113.76a12.73,12.73,0,1,0,12.73,12.73A12.73,12.73,0,0,0,179.71,113.76Zm0,18.44a5.72,5.72,0,1,1,5.71-5.71A5.72,5.72,0,0,1,179.71,132.2Z"/></g><g id="Olives-7" data-name="Olives"><path class="cls-3" d="M178.05,111.28A12.73,12.73,0,1,0,190.78,124,12.72,12.72,0,0,0,178.05,111.28Zm0,18.44a5.72,5.72,0,1,1,5.72-5.72A5.72,5.72,0,0,1,178.05,129.72Z"/></g></g><g id="Olives-8" data-name="Olives"><g id="Olives-9" data-name="Olives" class="cls-1"><path class="cls-2" d="M112.8,150.84a12.73,12.73,0,1,0,12.89,12.57A12.74,12.74,0,0,0,112.8,150.84Zm.23,18.44a5.71,5.71,0,1,1,5.64-5.78A5.71,5.71,0,0,1,113,169.28Z"/></g><g id="Olives-10" data-name="Olives"><path class="cls-3" d="M111.12,148.38A12.73,12.73,0,1,0,124,161,12.72,12.72,0,0,0,111.12,148.38Zm.22,18.44A5.72,5.72,0,1,1,117,161,5.71,5.71,0,0,1,111.34,166.82Z"/></g></g><g id="Olives-11" data-name="Olives"><g id="Olives-12" data-name="Olives" class="cls-1"><path class="cls-2" d="M173.35,19.44a12.73,12.73,0,1,0,12.73,12.73A12.73,12.73,0,0,0,173.35,19.44Zm0,18.44a5.72,5.72,0,1,1,5.72-5.71A5.71,5.71,0,0,1,173.35,37.88Z"/></g><g id="Olives-13" data-name="Olives"><path class="cls-3" d="M171.69,17a12.73,12.73,0,1,0,12.73,12.72A12.73,12.73,0,0,0,171.69,17Zm0,18.44a5.72,5.72,0,1,1,5.72-5.72A5.72,5.72,0,0,1,171.69,35.4Z"/></g></g><g id="Olives-14" data-name="Olives"><g id="Olives-15" data-name="Olives" class="cls-1"><path class="cls-2" d="M142.62,75.61a12.73,12.73,0,1,0,12.73,12.73A12.73,12.73,0,0,0,142.62,75.61Zm0,18.44a5.72,5.72,0,1,1,5.71-5.71A5.72,5.72,0,0,1,142.62,94.05Z"/></g><g id="Olives-16" data-name="Olives"><path class="cls-3" d="M141,73.12a12.73,12.73,0,1,0,12.73,12.73A12.73,12.73,0,0,0,141,73.12Zm0,18.45a5.72,5.72,0,1,1,5.72-5.72A5.72,5.72,0,0,1,141,91.57Z"/></g></g><g id="Olives-17" data-name="Olives"><g id="Olives-18" data-name="Olives" class="cls-1"><path class="cls-2" d="M178.65,161.45a12.73,12.73,0,1,0,12.73,12.73A12.73,12.73,0,0,0,178.65,161.45Zm0,18.44a5.72,5.72,0,1,1,5.71-5.71A5.72,5.72,0,0,1,178.65,179.89Z"/></g><g id="Olives-19" data-name="Olives"><path class="cls-3" d="M177,159a12.73,12.73,0,1,0,12.73,12.72A12.72,12.72,0,0,0,177,159Zm0,18.44a5.72,5.72,0,1,1,5.72-5.72A5.72,5.72,0,0,1,177,177.41Z"/></g></g><g id="Olives-20" data-name="Olives"><g id="Olives-21" data-name="Olives" class="cls-1"><path class="cls-2" d="M52.54,140.25A12.73,12.73,0,1,0,65.26,153,12.73,12.73,0,0,0,52.54,140.25Zm0,18.45A5.72,5.72,0,1,1,58.25,153,5.72,5.72,0,0,1,52.54,158.7Z"/></g><g id="Olives-22" data-name="Olives"><path class="cls-3" d="M50.88,137.77A12.73,12.73,0,1,0,63.61,150.5,12.73,12.73,0,0,0,50.88,137.77Zm0,18.44a5.72,5.72,0,1,1,5.71-5.71A5.7,5.7,0,0,1,50.88,156.21Z"/></g></g><g id="Olives-23" data-name="Olives"><g id="Olives-24" data-name="Olives" class="cls-1"><path class="cls-2" d="M220,105.28A12.73,12.73,0,1,0,232.71,118,12.73,12.73,0,0,0,220,105.28Zm0,18.44A5.71,5.71,0,1,1,225.7,118,5.7,5.7,0,0,1,220,123.72Z"/></g><g id="Olives-25" data-name="Olives"><path class="cls-3" d="M218.33,102.8a12.73,12.73,0,1,0,12.72,12.73A12.73,12.73,0,0,0,218.33,102.8Zm0,18.44a5.72,5.72,0,1,1,5.71-5.71A5.72,5.72,0,0,1,218.33,121.24Z"/></g></g><g id="Olives-26" data-name="Olives"><g id="Olives-27" data-name="Olives" class="cls-1"><path class="cls-2" d="M84.33,101a12.73,12.73,0,1,0,12.73,12.73A12.73,12.73,0,0,0,84.33,101Zm0,18.45A5.72,5.72,0,1,1,90,113.77,5.72,5.72,0,0,1,84.33,119.49Z"/></g><g id="Olives-28" data-name="Olives"><path class="cls-3" d="M82.67,98.56A12.73,12.73,0,1,0,95.4,111.29,12.72,12.72,0,0,0,82.67,98.56Zm0,18.44a5.72,5.72,0,1,1,5.72-5.71A5.71,5.71,0,0,1,82.67,117Z"/></g></g><g id="Olives-29" data-name="Olives"><g id="Olives-30" data-name="Olives" class="cls-1"><path class="cls-2" d="M131,2.48a12.73,12.73,0,1,0,12.73,12.73A12.73,12.73,0,0,0,131,2.48Zm0,18.45a5.72,5.72,0,1,1,5.71-5.72A5.72,5.72,0,0,1,131,20.93Z"/></g><g id="Olives-31" data-name="Olives"><path class="cls-3" d="M129.3,0A12.73,12.73,0,1,0,142,12.73,12.72,12.72,0,0,0,129.3,0Zm0,18.44A5.72,5.72,0,1,1,135,12.73,5.71,5.71,0,0,1,129.3,18.44Z"/></g></g><g id="Olives-32" data-name="Olives"><g id="Olives-33" data-name="Olives" class="cls-1"><path class="cls-2" d="M134.14,208.08a12.73,12.73,0,1,0,12.73,12.73A12.73,12.73,0,0,0,134.14,208.08Zm0,18.44a5.72,5.72,0,1,1,5.71-5.71A5.72,5.72,0,0,1,134.14,226.52Z"/></g><g id="Olives-34" data-name="Olives"><path class="cls-3" d="M132.48,205.6a12.73,12.73,0,1,0,12.73,12.73A12.73,12.73,0,0,0,132.48,205.6Zm0,18.44a5.72,5.72,0,1,1,5.72-5.71A5.71,5.71,0,0,1,132.48,224Z"/></g></g><g id="Olives-35" data-name="Olives"><g id="Olives-36" data-name="Olives" class="cls-1"><path class="cls-2" d="M14.38,79.85A12.73,12.73,0,1,0,27.11,92.58,12.72,12.72,0,0,0,14.38,79.85Zm0,18.44a5.72,5.72,0,1,1,5.72-5.71A5.71,5.71,0,0,1,14.38,98.29Z"/></g><g id="Olives-37" data-name="Olives"><path class="cls-3" d="M12.73,77.36A12.73,12.73,0,1,0,25.46,90.09,12.73,12.73,0,0,0,12.73,77.36Zm0,18.45a5.72,5.72,0,1,1,5.71-5.72A5.72,5.72,0,0,1,12.73,95.81Z"/></g></g></g></g></g></svg>
