<svg xmlns="http://www.w3.org/2000/svg" viewBox="0 0 224.24 195.46" width="223px" height="194.83px"><defs><style>.cls-1{fill:#ff501a;}.cls-2{fill:#ff774d;}.cls-3{fill:#ff8b66;}.cls-4{fill:#ffd28f;}.cls-5{opacity:0.1;}.cls-6{fill:#534741;}</style></defs><title>tomatoes</title><g id="Layer_2" data-name="Layer 2"><g id="Ingredients"><g id="Tomatoes"><circle class="cls-1" cx="176.28" cy="45.57" r="23.98"/><circle class="cls-2" cx="176.28" cy="45.57" r="19.49"/><circle class="cls-3" cx="176.28" cy="45.57" r="3.9"/><polygon class="cls-1" points="192.92 31.19 190.66 28.93 176.28 43.31 161.9 28.93 159.64 31.19 174.02 45.57 159.64 59.95 161.9 62.21 176.28 47.83 190.66 62.21 192.92 59.95 178.54 45.57 192.92 31.19"/><path class="cls-4" d="M176.28,32.17a.8.8,0,0,1-.8-.8V28.78a.8.8,0,0,1,1.6,0v2.59A.8.8,0,0,1,176.28,32.17Z"/><path class="cls-4" d="M180.69,34.38a.83.83,0,0,1-.43-.13.81.81,0,0,1-.24-1.11l1.18-1.83a.8.8,0,0,1,1.35.87L181.37,34A.82.82,0,0,1,180.69,34.38Z"/><path class="cls-4" d="M171.86,34.38a.79.79,0,0,1-.67-.37L170,32.18a.8.8,0,1,1,1.34-.87l1.18,1.83a.81.81,0,0,1-.24,1.11A.83.83,0,0,1,171.86,34.38Z"/><path class="cls-4" d="M176.28,63.16a.8.8,0,0,1-.8-.8V59.77a.8.8,0,0,1,1.6,0v2.59A.8.8,0,0,1,176.28,63.16Z"/><path class="cls-4" d="M181.87,60.19a.79.79,0,0,1-.67-.37L180,58a.8.8,0,0,1,1.35-.86L182.55,59a.8.8,0,0,1-.68,1.23Z"/><path class="cls-4" d="M170.68,60.19a.75.75,0,0,1-.43-.13A.79.79,0,0,1,170,59l1.18-1.83a.79.79,0,0,1,1.1-.24.79.79,0,0,1,.24,1.1l-1.18,1.83A.79.79,0,0,1,170.68,60.19Z"/><path class="cls-4" d="M162.08,46.37h-2.59a.8.8,0,1,1,0-1.6h2.59a.8.8,0,1,1,0,1.6Z"/><path class="cls-4" d="M164.28,42a.8.8,0,0,1-.43-.13L162,40.64a.79.79,0,0,1-.24-1.1.81.81,0,0,1,1.11-.24l1.83,1.18a.8.8,0,0,1,.24,1.11A.82.82,0,0,1,164.28,42Z"/><path class="cls-4" d="M162.46,52a.82.82,0,0,1-.68-.36.81.81,0,0,1,.24-1.11l1.83-1.18a.8.8,0,1,1,.87,1.35l-1.83,1.18A.88.88,0,0,1,162.46,52Z"/><path class="cls-4" d="M193.07,46.37h-2.59a.8.8,0,0,1,0-1.6h2.59a.8.8,0,0,1,0,1.6Z"/><path class="cls-4" d="M188.27,42a.8.8,0,0,1-.67-.36.8.8,0,0,1,.24-1.11l1.83-1.18a.8.8,0,1,1,.86,1.34l-1.83,1.18A.75.75,0,0,1,188.27,42Z"/><path class="cls-4" d="M190.1,52a.82.82,0,0,1-.43-.12l-1.83-1.18a.8.8,0,0,1,.86-1.35l1.83,1.18A.8.8,0,0,1,190.1,52Z"/><g class="cls-5"><circle class="cls-6" cx="179.87" cy="49.17" r="23.98"/><circle class="cls-6" cx="179.87" cy="49.17" r="19.49"/><circle class="cls-6" cx="179.87" cy="49.17" r="3.9"/><polygon class="cls-6" points="196.51 34.79 194.25 32.52 179.87 46.91 165.5 32.52 163.23 34.79 177.61 49.17 163.23 63.55 165.5 65.81 179.87 51.43 194.25 65.81 196.51 63.55 182.13 49.17 196.51 34.79"/><path class="cls-6" d="M179.87,35.76a.79.79,0,0,1-.8-.79V32.38a.8.8,0,1,1,1.6,0V35A.79.79,0,0,1,179.87,35.76Z"/><path class="cls-6" d="M184.29,38a.82.82,0,0,1-.43-.12.81.81,0,0,1-.24-1.11l1.18-1.83a.8.8,0,1,1,1.34.87L185,37.61A.8.8,0,0,1,184.29,38Z"/><path class="cls-6" d="M175.46,38a.8.8,0,0,1-.67-.36l-1.18-1.83a.8.8,0,1,1,1.34-.87l1.18,1.83a.81.81,0,0,1-.24,1.11A.82.82,0,0,1,175.46,38Z"/><path class="cls-6" d="M179.87,66.75a.8.8,0,0,1-.8-.8V63.37a.8.8,0,0,1,1.6,0V66A.79.79,0,0,1,179.87,66.75Z"/><path class="cls-6" d="M185.47,63.79a.79.79,0,0,1-.67-.37l-1.18-1.83a.8.8,0,0,1,1.34-.87l1.18,1.83a.8.8,0,0,1-.24,1.11A.75.75,0,0,1,185.47,63.79Z"/><path class="cls-6" d="M174.28,63.79a.75.75,0,0,1-.43-.13.8.8,0,0,1-.24-1.11l1.18-1.83a.8.8,0,0,1,1.34.87L175,63.42A.79.79,0,0,1,174.28,63.79Z"/><path class="cls-6" d="M165.67,50h-2.58a.8.8,0,1,1,0-1.6h2.58a.8.8,0,1,1,0,1.6Z"/><path class="cls-6" d="M167.88,45.55a.75.75,0,0,1-.43-.13l-1.83-1.18a.8.8,0,1,1,.87-1.34l1.83,1.18a.8.8,0,0,1-.44,1.47Z"/><path class="cls-6" d="M166.05,55.56a.8.8,0,0,1-.43-1.47l1.83-1.18a.8.8,0,0,1,.87,1.34l-1.83,1.18A.8.8,0,0,1,166.05,55.56Z"/><path class="cls-6" d="M196.66,50h-2.59a.8.8,0,0,1,0-1.6h2.59a.8.8,0,0,1,0,1.6Z"/><path class="cls-6" d="M191.87,45.55a.81.81,0,0,1-.68-.37.79.79,0,0,1,.24-1.1l1.83-1.18a.8.8,0,1,1,.87,1.34l-1.83,1.18A.75.75,0,0,1,191.87,45.55Z"/><path class="cls-6" d="M193.7,55.56a.8.8,0,0,1-.44-.13l-1.83-1.18a.79.79,0,0,1-.24-1.1.81.81,0,0,1,1.11-.24l1.83,1.18a.8.8,0,0,1-.43,1.47Z"/></g><circle class="cls-1" cx="23.98" cy="77.95" r="23.98"/><circle class="cls-2" cx="23.98" cy="77.95" r="19.49"/><circle class="cls-3" cx="23.98" cy="77.95" r="3.9"/><polygon class="cls-1" points="40.62 63.57 38.36 61.3 23.98 75.69 9.6 61.3 7.34 63.57 21.72 77.95 7.34 92.33 9.6 94.59 23.98 80.21 38.36 94.59 40.62 92.33 26.24 77.95 40.62 63.57"/><path class="cls-4" d="M24,64.54a.79.79,0,0,1-.8-.79V61.16a.8.8,0,0,1,1.6,0v2.59A.79.79,0,0,1,24,64.54Z"/><path class="cls-4" d="M28.4,66.75a.82.82,0,0,1-.43-.12.81.81,0,0,1-.24-1.11l1.18-1.83a.8.8,0,1,1,1.34.87l-1.18,1.83A.8.8,0,0,1,28.4,66.75Z"/><path class="cls-4" d="M19.57,66.75a.84.84,0,0,1-.68-.36l-1.18-1.83A.82.82,0,0,1,18,63.45a.81.81,0,0,1,1.11.24l1.18,1.83A.81.81,0,0,1,20,66.63.82.82,0,0,1,19.57,66.75Z"/><path class="cls-4" d="M24,95.53a.8.8,0,0,1-.8-.8V92.15a.8.8,0,0,1,1.6,0v2.58A.79.79,0,0,1,24,95.53Z"/><path class="cls-4" d="M29.58,92.57a.79.79,0,0,1-.67-.37l-1.18-1.83a.8.8,0,0,1,1.34-.87l1.18,1.83A.8.8,0,0,1,30,92.44.75.75,0,0,1,29.58,92.57Z"/><path class="cls-4" d="M18.39,92.57a.8.8,0,0,1-.44-.13.81.81,0,0,1-.24-1.11l1.18-1.83A.8.8,0,0,1,20,89.27a.79.79,0,0,1,.24,1.1L19.06,92.2A.79.79,0,0,1,18.39,92.57Z"/><path class="cls-4" d="M9.78,78.75H7.19a.8.8,0,0,1,0-1.6H9.78a.8.8,0,1,1,0,1.6Z"/><path class="cls-4" d="M12,74.33a.75.75,0,0,1-.43-.13L9.73,73a.79.79,0,0,1-.24-1.1.79.79,0,0,1,1.1-.24l1.83,1.18A.8.8,0,0,1,12,74.33Z"/><path class="cls-4" d="M10.16,84.34a.8.8,0,0,1-.43-1.47l1.83-1.18a.79.79,0,0,1,1.1.24.79.79,0,0,1-.24,1.1l-1.83,1.18A.75.75,0,0,1,10.16,84.34Z"/><path class="cls-4" d="M40.77,78.75H38.18a.8.8,0,1,1,0-1.6h2.59a.8.8,0,1,1,0,1.6Z"/><path class="cls-4" d="M36,74.33A.81.81,0,0,1,35.3,74a.79.79,0,0,1,.24-1.1l1.83-1.18A.8.8,0,1,1,38.24,73L36.41,74.2A.8.8,0,0,1,36,74.33Z"/><path class="cls-4" d="M37.8,84.34a.8.8,0,0,1-.43-.13L35.54,83a.79.79,0,0,1-.24-1.1.81.81,0,0,1,1.11-.24l1.83,1.18a.79.79,0,0,1,.24,1.1A.81.81,0,0,1,37.8,84.34Z"/><g class="cls-5"><circle class="cls-6" cx="27.58" cy="81.54" r="23.98"/><circle class="cls-6" cx="27.58" cy="81.54" r="19.49"/><circle class="cls-6" cx="27.58" cy="81.54" r="3.9"/><polygon class="cls-6" points="44.22 67.16 41.96 64.9 27.58 79.28 13.2 64.9 10.94 67.16 25.32 81.54 10.94 95.92 13.2 98.18 27.58 83.8 41.96 98.18 44.22 95.92 29.84 81.54 44.22 67.16"/><path class="cls-6" d="M27.58,68.14a.8.8,0,0,1-.8-.8V64.75a.8.8,0,0,1,1.6,0v2.59A.8.8,0,0,1,27.58,68.14Z"/><path class="cls-6" d="M32,70.35a.8.8,0,0,1-.44-.13.79.79,0,0,1-.23-1.1l1.17-1.83a.81.81,0,0,1,1.11-.24.79.79,0,0,1,.24,1.1L32.67,70A.79.79,0,0,1,32,70.35Z"/><path class="cls-6" d="M23.17,70.35a.81.81,0,0,1-.68-.37l-1.18-1.83a.79.79,0,0,1,.24-1.1.81.81,0,0,1,1.11.24l1.18,1.83a.8.8,0,0,1-.67,1.23Z"/><path class="cls-6" d="M27.58,99.13a.8.8,0,0,1-.8-.8V95.74a.8.8,0,0,1,1.6,0v2.59A.8.8,0,0,1,27.58,99.13Z"/><path class="cls-6" d="M33.18,96.16a.81.81,0,0,1-.68-.36L31.33,94a.8.8,0,1,1,1.34-.87l1.18,1.83A.81.81,0,0,1,33.61,96,.82.82,0,0,1,33.18,96.16Z"/><path class="cls-6" d="M22,96.16a.88.88,0,0,1-.43-.12.81.81,0,0,1-.24-1.11l1.18-1.83a.82.82,0,0,1,1.11-.24A.81.81,0,0,1,23.84,94L22.66,95.8A.8.8,0,0,1,22,96.16Z"/><path class="cls-6" d="M13.38,82.34H10.79a.8.8,0,0,1,0-1.6h2.59a.8.8,0,1,1,0,1.6Z"/><path class="cls-6" d="M15.59,77.93a.83.83,0,0,1-.43-.13l-1.83-1.18a.8.8,0,0,1,.86-1.35L16,76.45a.81.81,0,0,1,.24,1.11A.79.79,0,0,1,15.59,77.93Z"/><path class="cls-6" d="M13.76,87.94a.8.8,0,0,1-.43-1.47l1.83-1.18a.79.79,0,0,1,1.1.24.79.79,0,0,1-.24,1.1l-1.83,1.18A.75.75,0,0,1,13.76,87.94Z"/><path class="cls-6" d="M44.37,82.34H41.78a.8.8,0,1,1,0-1.6h2.59a.8.8,0,1,1,0,1.6Z"/><path class="cls-6" d="M39.57,77.93a.79.79,0,0,1-.67-.37.81.81,0,0,1,.24-1.11L41,75.27a.8.8,0,0,1,.87,1.35L40,77.8A.9.9,0,0,1,39.57,77.93Z"/><path class="cls-6" d="M41.4,87.94a.75.75,0,0,1-.43-.13l-1.83-1.18A.8.8,0,1,1,40,85.29l1.83,1.18a.8.8,0,0,1-.44,1.47Z"/></g><circle class="cls-1" cx="103.13" cy="91.14" r="23.98"/><circle class="cls-2" cx="103.13" cy="91.14" r="19.49"/><circle class="cls-3" cx="103.13" cy="91.14" r="3.9"/><polygon class="cls-1" points="119.77 76.76 117.51 74.5 103.13 88.88 88.75 74.5 86.49 76.76 100.87 91.14 86.49 105.52 88.75 107.78 103.13 93.4 117.51 107.78 119.77 105.52 105.39 91.14 119.77 76.76"/><path class="cls-4" d="M103.13,77.74a.8.8,0,0,1-.8-.8V74.35a.8.8,0,1,1,1.6,0v2.59A.8.8,0,0,1,103.13,77.74Z"/><path class="cls-4" d="M107.54,79.94a.88.88,0,0,1-.43-.12.81.81,0,0,1-.24-1.11l1.18-1.83a.82.82,0,0,1,1.11-.24.81.81,0,0,1,.24,1.11l-1.18,1.83A.8.8,0,0,1,107.54,79.94Z"/><path class="cls-4" d="M98.71,79.94a.78.78,0,0,1-.67-.36l-1.18-1.83a.81.81,0,0,1,.24-1.11.79.79,0,0,1,1.1.24l1.18,1.83a.8.8,0,0,1-.24,1.11A.82.82,0,0,1,98.71,79.94Z"/><path class="cls-4" d="M103.13,108.72a.8.8,0,0,1-.8-.8v-2.58a.8.8,0,1,1,1.6,0v2.58A.8.8,0,0,1,103.13,108.72Z"/><path class="cls-4" d="M108.72,105.76a.79.79,0,0,1-.67-.37l-1.18-1.83a.79.79,0,0,1,.24-1.1.8.8,0,0,1,1.11.23l1.18,1.83a.81.81,0,0,1-.68,1.24Z"/><path class="cls-4" d="M97.53,105.76a.75.75,0,0,1-.43-.13.8.8,0,0,1-.24-1.11L98,102.69a.8.8,0,0,1,1.34.87l-1.18,1.83A.79.79,0,0,1,97.53,105.76Z"/><path class="cls-4" d="M88.93,91.94H86.34a.8.8,0,1,1,0-1.6h2.59a.8.8,0,1,1,0,1.6Z"/><path class="cls-4" d="M91.14,87.52a.8.8,0,0,1-.44-.13l-1.83-1.18a.8.8,0,1,1,.87-1.34l1.83,1.18a.8.8,0,0,1-.43,1.47Z"/><path class="cls-4" d="M89.31,97.53a.82.82,0,0,1-.68-.36.81.81,0,0,1,.24-1.11l1.83-1.18a.81.81,0,0,1,1.11.24.79.79,0,0,1-.24,1.1L89.74,97.4A.75.75,0,0,1,89.31,97.53Z"/><path class="cls-4" d="M119.92,91.94h-2.59a.8.8,0,0,1,0-1.6h2.59a.8.8,0,0,1,0,1.6Z"/><path class="cls-4" d="M115.12,87.52a.8.8,0,0,1-.43-1.47l1.83-1.18a.8.8,0,0,1,.86,1.34l-1.83,1.18A.75.75,0,0,1,115.12,87.52Z"/><path class="cls-4" d="M117,97.53a.75.75,0,0,1-.43-.13l-1.83-1.18a.8.8,0,1,1,.86-1.34l1.83,1.18a.8.8,0,0,1-.43,1.47Z"/><g class="cls-5"><circle class="cls-6" cx="106.73" cy="94.73" r="23.98"/><circle class="cls-6" cx="106.73" cy="94.73" r="19.49"/><circle class="cls-6" cx="106.73" cy="94.73" r="3.9"/><polygon class="cls-6" points="123.37 80.35 121.11 78.09 106.72 92.47 92.35 78.09 90.08 80.35 104.47 94.73 90.08 109.11 92.35 111.38 106.72 97 121.11 111.38 123.37 109.11 108.99 94.73 123.37 80.35"/><path class="cls-6" d="M106.73,81.33a.79.79,0,0,1-.8-.8V78a.8.8,0,1,1,1.59,0v2.58A.79.79,0,0,1,106.73,81.33Z"/><path class="cls-6" d="M111.14,83.54a.75.75,0,0,1-.43-.13.79.79,0,0,1-.24-1.1l1.18-1.83a.8.8,0,1,1,1.34.87l-1.18,1.83A.8.8,0,0,1,111.14,83.54Z"/><path class="cls-6" d="M102.31,83.54a.8.8,0,0,1-.67-.36l-1.18-1.83a.8.8,0,0,1,.24-1.11.79.79,0,0,1,1.1.24L103,82.31a.79.79,0,0,1-.24,1.1A.75.75,0,0,1,102.31,83.54Z"/><path class="cls-6" d="M106.73,112.32a.8.8,0,0,1-.8-.8v-2.59a.8.8,0,1,1,1.59,0v2.59A.79.79,0,0,1,106.73,112.32Z"/><path class="cls-6" d="M112.32,109.35a.78.78,0,0,1-.67-.36l-1.18-1.83a.8.8,0,1,1,1.34-.87l1.18,1.83a.8.8,0,0,1-.24,1.11A.82.82,0,0,1,112.32,109.35Z"/><path class="cls-6" d="M101.13,109.35a.82.82,0,0,1-.43-.12.81.81,0,0,1-.24-1.11l1.18-1.83a.8.8,0,1,1,1.34.87L101.8,109A.78.78,0,0,1,101.13,109.35Z"/><path class="cls-6" d="M92.53,95.53H89.94a.8.8,0,1,1,0-1.6h2.59a.8.8,0,0,1,0,1.6Z"/><path class="cls-6" d="M94.73,91.12A.75.75,0,0,1,94.3,91l-1.83-1.18a.8.8,0,1,1,.87-1.34l1.83,1.18a.8.8,0,0,1-.44,1.47Z"/><path class="cls-6" d="M92.9,101.13a.8.8,0,0,1-.43-1.47l1.83-1.18a.8.8,0,1,1,.87,1.34L93.34,101A.8.8,0,0,1,92.9,101.13Z"/><path class="cls-6" d="M123.51,95.53h-2.58a.8.8,0,1,1,0-1.6h2.58a.8.8,0,0,1,0,1.6Z"/><path class="cls-6" d="M118.72,91.12a.82.82,0,0,1-.68-.37.8.8,0,0,1,.24-1.1l1.83-1.18a.8.8,0,1,1,.87,1.34L119.15,91A.75.75,0,0,1,118.72,91.12Z"/><path class="cls-6" d="M120.55,101.13a.8.8,0,0,1-.44-.13l-1.83-1.18a.8.8,0,1,1,.87-1.34L121,99.66a.8.8,0,0,1-.43,1.47Z"/></g><circle class="cls-1" cx="196.66" cy="131.91" r="23.98"/><circle class="cls-2" cx="196.66" cy="131.91" r="19.49"/><circle class="cls-3" cx="196.66" cy="131.91" r="3.9"/><polygon class="cls-1" points="213.3 117.53 211.04 115.27 196.66 129.65 182.28 115.27 180.02 117.53 194.4 131.91 180.02 146.29 182.28 148.55 196.66 134.17 211.04 148.55 213.3 146.29 198.92 131.91 213.3 117.53"/><path class="cls-4" d="M196.66,118.51a.8.8,0,0,1-.8-.8v-2.59a.8.8,0,0,1,1.6,0v2.59A.8.8,0,0,1,196.66,118.51Z"/><path class="cls-4" d="M201.08,120.72a.83.83,0,0,1-.43-.13.81.81,0,0,1-.24-1.11l1.18-1.83a.8.8,0,1,1,1.34.87l-1.18,1.83A.79.79,0,0,1,201.08,120.72Z"/><path class="cls-4" d="M192.25,120.72a.81.81,0,0,1-.68-.37l-1.18-1.83a.8.8,0,1,1,1.35-.87l1.18,1.83a.81.81,0,0,1-.24,1.11A.83.83,0,0,1,192.25,120.72Z"/><path class="cls-4" d="M196.66,149.5a.8.8,0,0,1-.8-.8v-2.59a.8.8,0,1,1,1.6,0v2.59A.8.8,0,0,1,196.66,149.5Z"/><path class="cls-4" d="M202.26,146.53a.79.79,0,0,1-.67-.37l-1.18-1.83a.79.79,0,0,1,.24-1.1.79.79,0,0,1,1.1.24l1.18,1.83a.79.79,0,0,1-.24,1.1A.75.75,0,0,1,202.26,146.53Z"/><path class="cls-4" d="M191.07,146.53a.8.8,0,0,1-.68-1.23l1.18-1.83a.8.8,0,0,1,1.35.86l-1.18,1.83A.79.79,0,0,1,191.07,146.53Z"/><path class="cls-4" d="M182.46,132.71h-2.59a.8.8,0,0,1,0-1.6h2.59a.8.8,0,0,1,0,1.6Z"/><path class="cls-4" d="M184.67,128.29a.75.75,0,0,1-.43-.13L182.41,127a.8.8,0,0,1,.86-1.34l1.83,1.18a.8.8,0,0,1-.43,1.47Z"/><path class="cls-4" d="M182.84,138.3a.8.8,0,0,1-.43-1.47l1.83-1.18a.8.8,0,0,1,.86,1.35l-1.83,1.18A.82.82,0,0,1,182.84,138.3Z"/><path class="cls-4" d="M213.45,132.71h-2.59a.8.8,0,0,1,0-1.6h2.59a.8.8,0,0,1,0,1.6Z"/><path class="cls-4" d="M208.66,128.29a.81.81,0,0,1-.68-.37.79.79,0,0,1,.24-1.1l1.83-1.18a.81.81,0,0,1,1.11.24.79.79,0,0,1-.24,1.1l-1.83,1.18A.8.8,0,0,1,208.66,128.29Z"/><path class="cls-4" d="M210.48,138.3a.88.88,0,0,1-.43-.12L208.22,137a.8.8,0,1,1,.87-1.35l1.83,1.18a.81.81,0,0,1,.24,1.11A.82.82,0,0,1,210.48,138.3Z"/><g class="cls-5"><circle class="cls-6" cx="200.26" cy="135.51" r="23.98"/><circle class="cls-6" cx="200.26" cy="135.51" r="19.49"/><circle class="cls-6" cx="200.26" cy="135.51" r="3.9"/><polygon class="cls-6" points="216.9 121.13 214.64 118.86 200.26 133.24 185.88 118.86 183.62 121.13 198 135.5 183.62 149.88 185.88 152.15 200.26 137.77 214.64 152.15 216.9 149.88 202.52 135.5 216.9 121.13"/><path class="cls-6" d="M200.26,122.1a.79.79,0,0,1-.8-.79v-2.59a.8.8,0,0,1,1.6,0v2.59A.79.79,0,0,1,200.26,122.1Z"/><path class="cls-6" d="M204.68,124.31a.88.88,0,0,1-.44-.12.82.82,0,0,1-.24-1.11l1.18-1.83a.82.82,0,0,1,1.11-.24.81.81,0,0,1,.24,1.11L205.35,124A.8.8,0,0,1,204.68,124.31Z"/><path class="cls-6" d="M195.84,124.31a.8.8,0,0,1-.67-.36L194,122.12a.8.8,0,0,1,1.35-.87l1.18,1.83a.82.82,0,0,1-.24,1.11A.88.88,0,0,1,195.84,124.31Z"/><path class="cls-6" d="M200.26,153.09a.8.8,0,0,1-.8-.8v-2.58a.8.8,0,0,1,1.6,0v2.58A.8.8,0,0,1,200.26,153.09Z"/><path class="cls-6" d="M205.86,150.13a.81.81,0,0,1-.68-.37L204,147.93a.8.8,0,0,1,1.35-.87l1.18,1.83a.8.8,0,0,1-.24,1.11A.75.75,0,0,1,205.86,150.13Z"/><path class="cls-6" d="M194.66,150.13a.77.77,0,0,1-.43-.13.8.8,0,0,1-.24-1.11l1.18-1.83a.8.8,0,1,1,1.35.87l-1.18,1.83A.81.81,0,0,1,194.66,150.13Z"/><path class="cls-6" d="M186.06,136.3h-2.59a.8.8,0,1,1,0-1.59h2.59a.8.8,0,1,1,0,1.59Z"/><path class="cls-6" d="M188.27,131.89a.75.75,0,0,1-.43-.13L186,130.58a.8.8,0,1,1,.86-1.34l1.83,1.18a.8.8,0,0,1-.43,1.47Z"/><path class="cls-6" d="M186.44,141.9a.8.8,0,0,1-.43-1.47l1.83-1.18a.8.8,0,0,1,.86,1.34l-1.83,1.18A.75.75,0,0,1,186.44,141.9Z"/><path class="cls-6" d="M217.05,136.3h-2.59a.8.8,0,1,1,0-1.59h2.59a.8.8,0,1,1,0,1.59Z"/><path class="cls-6" d="M212.25,131.89a.8.8,0,0,1-.43-1.47l1.83-1.18a.8.8,0,0,1,.87,1.34l-1.83,1.18A.8.8,0,0,1,212.25,131.89Z"/><path class="cls-6" d="M214.08,141.9a.75.75,0,0,1-.43-.13l-1.83-1.18a.79.79,0,0,1-.24-1.1.8.8,0,0,1,1.11-.24l1.83,1.18a.8.8,0,0,1-.44,1.47Z"/></g><circle class="cls-1" cx="80.34" cy="167.88" r="23.98"/><circle class="cls-2" cx="80.34" cy="167.88" r="19.49"/><circle class="cls-3" cx="80.34" cy="167.88" r="3.9"/><polygon class="cls-1" points="96.98 153.5 94.72 151.24 80.34 165.62 65.96 151.24 63.7 153.5 78.08 167.88 63.7 182.26 65.96 184.52 80.34 170.14 94.72 184.52 96.98 182.26 82.61 167.88 96.98 153.5"/><path class="cls-4" d="M80.34,154.48a.8.8,0,0,1-.8-.8v-2.59a.8.8,0,0,1,1.6,0v2.59A.8.8,0,0,1,80.34,154.48Z"/><path class="cls-4" d="M84.76,156.69a.75.75,0,0,1-.43-.13.79.79,0,0,1-.24-1.1l1.18-1.83a.8.8,0,1,1,1.34.86l-1.18,1.83A.79.79,0,0,1,84.76,156.69Z"/><path class="cls-4" d="M75.93,156.69a.79.79,0,0,1-.67-.37l-1.18-1.83a.79.79,0,0,1,.23-1.1.81.81,0,0,1,1.11.24l1.18,1.83a.79.79,0,0,1-.24,1.1A.75.75,0,0,1,75.93,156.69Z"/><path class="cls-4" d="M80.34,185.47a.8.8,0,0,1-.8-.8v-2.59a.8.8,0,1,1,1.6,0v2.59A.8.8,0,0,1,80.34,185.47Z"/><path class="cls-4" d="M85.94,182.5a.78.78,0,0,1-.67-.36l-1.18-1.83a.81.81,0,0,1,.24-1.11.79.79,0,0,1,1.1.24l1.18,1.83a.81.81,0,0,1-.24,1.11A.82.82,0,0,1,85.94,182.5Z"/><path class="cls-4" d="M74.75,182.5a.88.88,0,0,1-.44-.12.8.8,0,0,1-.23-1.11l1.18-1.83a.79.79,0,0,1,1.1-.24.81.81,0,0,1,.24,1.11l-1.18,1.83A.78.78,0,0,1,74.75,182.5Z"/><path class="cls-4" d="M66.14,168.68H63.56a.8.8,0,1,1,0-1.6h2.58a.8.8,0,0,1,0,1.6Z"/><path class="cls-4" d="M68.35,164.27a.83.83,0,0,1-.43-.13L66.09,163a.8.8,0,0,1-.24-1.11.81.81,0,0,1,1.11-.24l1.83,1.18A.8.8,0,0,1,69,163.9.79.79,0,0,1,68.35,164.27Z"/><path class="cls-4" d="M66.52,174.28a.8.8,0,0,1-.43-1.47l1.83-1.18a.8.8,0,0,1,.87,1.34L67,174.15A.8.8,0,0,1,66.52,174.28Z"/><path class="cls-4" d="M97.13,168.68H94.54a.8.8,0,0,1,0-1.6h2.59a.8.8,0,0,1,0,1.6Z"/><path class="cls-4" d="M92.34,164.27a.8.8,0,0,1-.44-1.48l1.83-1.18A.8.8,0,1,1,94.6,163l-1.83,1.18A.89.89,0,0,1,92.34,164.27Z"/><path class="cls-4" d="M94.16,174.28a.8.8,0,0,1-.43-.13L91.9,173a.8.8,0,1,1,.87-1.34l1.83,1.18a.79.79,0,0,1,.24,1.1A.81.81,0,0,1,94.16,174.28Z"/><g class="cls-5"><circle class="cls-6" cx="83.94" cy="171.48" r="23.98"/><circle class="cls-6" cx="83.94" cy="171.48" r="19.49"/><circle class="cls-6" cx="83.94" cy="171.48" r="3.9"/><polygon class="cls-6" points="100.58 157.1 98.32 154.84 83.94 169.22 69.56 154.84 67.3 157.1 81.68 171.48 67.3 185.86 69.56 188.12 83.94 173.74 98.32 188.12 100.58 185.86 86.2 171.48 100.58 157.1"/><path class="cls-6" d="M83.94,158.08a.8.8,0,0,1-.8-.8v-2.59a.8.8,0,0,1,1.6,0v2.59A.8.8,0,0,1,83.94,158.08Z"/><path class="cls-6" d="M88.36,160.29a.8.8,0,0,1-.44-.13.79.79,0,0,1-.23-1.1l1.18-1.83A.78.78,0,0,1,90,157a.79.79,0,0,1,.24,1.1L89,159.92A.79.79,0,0,1,88.36,160.29Z"/><path class="cls-6" d="M79.53,160.29a.81.81,0,0,1-.68-.37l-1.18-1.83a.8.8,0,0,1,1.35-.86l1.18,1.83a.8.8,0,0,1-.67,1.23Z"/><path class="cls-6" d="M83.94,189.07a.8.8,0,0,1-.8-.8v-2.59a.8.8,0,1,1,1.6,0v2.59A.8.8,0,0,1,83.94,189.07Z"/><path class="cls-6" d="M89.54,186.1a.8.8,0,0,1-.67-.36l-1.18-1.83A.8.8,0,1,1,89,183l1.18,1.83A.79.79,0,0,1,90,186,.75.75,0,0,1,89.54,186.1Z"/><path class="cls-6" d="M78.34,186.1a.8.8,0,0,1-.67-1.23L78.85,183a.8.8,0,0,1,1.35.87L79,185.74A.82.82,0,0,1,78.34,186.1Z"/><path class="cls-6" d="M69.74,172.28H67.15a.8.8,0,1,1,0-1.6h2.59a.8.8,0,1,1,0,1.6Z"/><path class="cls-6" d="M72,167.86a.82.82,0,0,1-.43-.12l-1.83-1.18a.81.81,0,0,1-.24-1.11.79.79,0,0,1,1.1-.24l1.83,1.18a.8.8,0,0,1-.43,1.47Z"/><path class="cls-6" d="M70.12,177.88a.79.79,0,0,1-.67-.37.81.81,0,0,1,.24-1.11l1.83-1.18a.8.8,0,0,1,.86,1.35l-1.83,1.18A.83.83,0,0,1,70.12,177.88Z"/><path class="cls-6" d="M100.73,172.28H98.14a.8.8,0,1,1,0-1.6h2.59a.8.8,0,1,1,0,1.6Z"/><path class="cls-6" d="M95.93,167.86a.8.8,0,0,1-.43-1.47l1.83-1.18a.8.8,0,1,1,.87,1.35l-1.83,1.18A.88.88,0,0,1,95.93,167.86Z"/><path class="cls-6" d="M97.76,177.88a.83.83,0,0,1-.43-.13l-1.83-1.18a.8.8,0,0,1-.24-1.11.82.82,0,0,1,1.11-.24l1.83,1.18a.8.8,0,0,1-.44,1.48Z"/></g><circle class="cls-1" cx="91.14" cy="23.98" r="23.98"/><circle class="cls-2" cx="91.14" cy="23.98" r="19.49"/><circle class="cls-3" cx="91.14" cy="23.98" r="3.9"/><polygon class="cls-1" points="107.78 9.6 105.52 7.34 91.14 21.72 76.76 7.34 74.5 9.6 88.88 23.98 74.5 38.36 76.76 40.62 91.14 26.24 105.52 40.62 107.78 38.36 93.4 23.98 107.78 9.6"/><path class="cls-4" d="M91.14,10.58a.8.8,0,0,1-.8-.8V7.19a.8.8,0,0,1,1.6,0V9.78A.8.8,0,0,1,91.14,10.58Z"/><path class="cls-4" d="M95.55,12.79a.75.75,0,0,1-.43-.13.79.79,0,0,1-.24-1.1l1.18-1.83a.8.8,0,0,1,1.11-.24.79.79,0,0,1,.23,1.1l-1.18,1.83A.79.79,0,0,1,95.55,12.79Z"/><path class="cls-4" d="M86.72,12.79a.79.79,0,0,1-.67-.37l-1.18-1.83a.8.8,0,1,1,1.34-.86l1.18,1.83a.79.79,0,0,1-.24,1.1A.75.75,0,0,1,86.72,12.79Z"/><path class="cls-4" d="M91.14,41.57a.8.8,0,0,1-.8-.8V38.18a.8.8,0,1,1,1.6,0v2.59A.8.8,0,0,1,91.14,41.57Z"/><path class="cls-4" d="M96.73,38.6a.78.78,0,0,1-.67-.36l-1.18-1.83a.81.81,0,0,1,.24-1.11.79.79,0,0,1,1.1.24l1.18,1.83a.8.8,0,0,1-.23,1.11A.88.88,0,0,1,96.73,38.6Z"/><path class="cls-4" d="M85.54,38.6a.82.82,0,0,1-.43-.12.81.81,0,0,1-.24-1.11l1.18-1.83a.8.8,0,1,1,1.34.87l-1.18,1.83A.78.78,0,0,1,85.54,38.6Z"/><path class="cls-4" d="M76.94,24.78H74.35a.8.8,0,1,1,0-1.6h2.59a.8.8,0,0,1,0,1.6Z"/><path class="cls-4" d="M79.14,20.37a.89.89,0,0,1-.43-.13l-1.83-1.18A.8.8,0,0,1,76.64,18a.82.82,0,0,1,1.11-.24l1.83,1.18a.8.8,0,0,1-.44,1.48Z"/><path class="cls-4" d="M77.32,30.38a.81.81,0,0,1-.68-.37.79.79,0,0,1,.24-1.1l1.83-1.18a.8.8,0,1,1,.87,1.34l-1.83,1.18A.8.8,0,0,1,77.32,30.38Z"/><path class="cls-4" d="M107.92,24.78h-2.58a.8.8,0,1,1,0-1.6h2.58a.8.8,0,0,1,0,1.6Z"/><path class="cls-4" d="M103.13,20.37a.79.79,0,0,1-.67-.37.8.8,0,0,1,.23-1.11l1.83-1.18a.82.82,0,0,1,1.11.24.8.8,0,0,1-.24,1.11l-1.83,1.18A.83.83,0,0,1,103.13,20.37Z"/><path class="cls-4" d="M105,30.38a.8.8,0,0,1-.44-.13l-1.83-1.18a.8.8,0,0,1,.87-1.34l1.83,1.18a.8.8,0,0,1-.43,1.47Z"/><g class="cls-5"><circle class="cls-6" cx="94.73" cy="27.58" r="23.98"/><circle class="cls-6" cx="94.73" cy="27.58" r="19.49"/><circle class="cls-6" cx="94.73" cy="27.58" r="3.9"/><polygon class="cls-6" points="111.38 13.2 109.11 10.94 94.73 25.32 80.35 10.94 78.09 13.2 92.47 27.58 78.09 41.96 80.35 44.22 94.73 29.84 109.11 44.22 111.38 41.96 97 27.58 111.38 13.2"/><path class="cls-6" d="M94.73,14.18a.8.8,0,0,1-.8-.8V10.79a.8.8,0,1,1,1.6,0v2.59A.8.8,0,0,1,94.73,14.18Z"/><path class="cls-6" d="M99.15,16.39a.75.75,0,0,1-.43-.13.79.79,0,0,1-.24-1.1l1.18-1.83a.79.79,0,0,1,1.1-.24.79.79,0,0,1,.24,1.1L99.82,16A.79.79,0,0,1,99.15,16.39Z"/><path class="cls-6" d="M90.32,16.39a.79.79,0,0,1-.67-.37l-1.18-1.83a.8.8,0,1,1,1.34-.86L91,15.16a.79.79,0,0,1-.24,1.1A.75.75,0,0,1,90.32,16.39Z"/><path class="cls-6" d="M94.73,45.17a.8.8,0,0,1-.8-.8V41.78a.8.8,0,1,1,1.6,0v2.59A.8.8,0,0,1,94.73,45.17Z"/><path class="cls-6" d="M100.33,42.2a.8.8,0,0,1-.67-.36L98.48,40a.8.8,0,0,1,.24-1.11.79.79,0,0,1,1.1.24L101,41a.79.79,0,0,1-.24,1.1A.75.75,0,0,1,100.33,42.2Z"/><path class="cls-6" d="M89.14,42.2a.8.8,0,0,1-.44-.13.79.79,0,0,1-.23-1.1l1.18-1.83a.79.79,0,0,1,1.1-.24A.8.8,0,0,1,91,40l-1.18,1.83A.8.8,0,0,1,89.14,42.2Z"/><path class="cls-6" d="M80.53,28.38H78a.8.8,0,1,1,0-1.6h2.58a.8.8,0,1,1,0,1.6Z"/><path class="cls-6" d="M82.74,24a.82.82,0,0,1-.43-.12l-1.83-1.18a.8.8,0,0,1,.87-1.35l1.83,1.18A.8.8,0,0,1,82.74,24Z"/><path class="cls-6" d="M80.91,34a.79.79,0,0,1-.67-.37.81.81,0,0,1,.24-1.11l1.83-1.17a.79.79,0,0,1,1.1.23.8.8,0,0,1-.23,1.11l-1.83,1.18A.9.9,0,0,1,80.91,34Z"/><path class="cls-6" d="M111.52,28.38h-2.59a.8.8,0,0,1,0-1.6h2.59a.8.8,0,0,1,0,1.6Z"/><path class="cls-6" d="M106.73,24a.82.82,0,0,1-.68-.36.81.81,0,0,1,.24-1.11l1.83-1.18a.8.8,0,0,1,.87,1.35l-1.83,1.18A.88.88,0,0,1,106.73,24Z"/><path class="cls-6" d="M108.55,34a.89.89,0,0,1-.43-.13l-1.83-1.18a.8.8,0,1,1,.87-1.34L109,32.5a.8.8,0,0,1-.44,1.48Z"/></g></g></g></g></svg>
