<svg xmlns="http://www.w3.org/2000/svg" viewBox="0 0 237.96 268.1" width="223px" height="251.23px"><defs><style>.cls-1{opacity:0.2;}.cls-2{fill:#534741;}.cls-3{fill:#7daf43;}</style></defs><title>basil</title><g id="Layer_2" data-name="Layer 2"><g id="Toppings"><g id="Basill"><g class="cls-1"><path class="cls-2" d="M79.34,122.15C69,133.65,48.91,132.44,48.91,132.44s-3.34-19.85,7-31.35,30.43-10.3,30.43-10.3S89.68,110.64,79.34,122.15Z"/><path class="cls-2" d="M219.33,132.87c-14,6.59-32-2.33-32-2.33s4.63-19.58,18.63-26.17,32,2.32,32,2.32S233.32,126.28,219.33,132.87Z"/><path class="cls-2" d="M115.08,243.64c-3,15.17-20.82,24.46-20.82,24.46S81.2,252.78,84.17,237.6,105,213.14,105,213.14,118.05,228.46,115.08,243.64Z"/><path class="cls-2" d="M194.28,241.94c-15.05,3.59-30.89-8.83-30.89-8.83s8.54-18.23,23.58-21.81,30.89,8.83,30.89,8.83S209.32,238.35,194.28,241.94Z"/><path class="cls-2" d="M130.57,9.4c12,9.76,11.77,29.89,11.77,29.89s-19.66,4.31-31.66-5.46S98.91,3.94,98.91,3.94,118.57-.36,130.57,9.4Z"/><path class="cls-2" d="M121.57,177.16c-14.27-5.94-19.8-25.3-19.8-25.3s17.63-9.72,31.91-3.78,19.79,25.3,19.79,25.3S135.85,183.1,121.57,177.16Z"/><path class="cls-2" d="M35.12,217.77C48.72,225.13,52.25,245,52.25,245s-18.52,7.88-32.12.52S3,218.29,3,218.29,21.52,210.41,35.12,217.77Z"/></g><path class="cls-3" d="M76.34,119.15C66,130.65,45.91,129.44,45.91,129.44s-3.34-19.85,7-31.35,30.43-10.3,30.43-10.3S86.68,107.64,76.34,119.15Z"/><path class="cls-3" d="M216.33,129.87c-14,6.59-32-2.33-32-2.33s4.63-19.58,18.63-26.17,32,2.32,32,2.32S230.32,123.28,216.33,129.87Z"/><path class="cls-3" d="M112.08,240.64c-3,15.17-20.82,24.46-20.82,24.46S78.2,249.78,81.17,234.6,102,210.14,102,210.14,115.05,225.46,112.08,240.64Z"/><path class="cls-3" d="M191.28,238.94c-15.05,3.59-30.89-8.83-30.89-8.83s8.54-18.23,23.58-21.81,30.89,8.83,30.89,8.83S206.32,235.35,191.28,238.94Z"/><path class="cls-3" d="M127.57,6.4c12,9.76,11.77,29.89,11.77,29.89s-19.66,4.31-31.66-5.46S95.91.94,95.91.94,115.57-3.36,127.57,6.4Z"/><path class="cls-3" d="M118.57,174.16c-14.27-5.94-19.8-25.3-19.8-25.3s17.63-9.72,31.91-3.78,19.79,25.3,19.79,25.3S132.85,180.1,118.57,174.16Z"/><path class="cls-3" d="M32.12,214.77C45.72,222.13,49.25,242,49.25,242s-18.52,7.88-32.12.52S0,215.29,0,215.29,18.52,207.41,32.12,214.77Z"/></g></g></g></svg>
