<svg xmlns="http://www.w3.org/2000/svg" viewBox="0 0 274.77 283.03" width="223px" height="229.7px"><defs><style>.cls-1{opacity:0.1;}.cls-2{fill:#534741;}.cls-3{fill:#e8e8e8;}</style></defs><title>mushrooms</title><g id="Layer_2" data-name="Layer 2"><g id="Toppings"><g id="Mushrooms"><g class="cls-1"><path class="cls-2" d="M51.38,57.69h6.69a13,13,0,0,1,13,13v3.85a3,3,0,0,1-3,3H41.38a3,3,0,0,1-3-3V70.69a13,13,0,0,1,13-13Z" transform="translate(-0.55 0.45) rotate(-0.47)"/><path class="cls-2" d="M55.82,60H53.49A12.87,12.87,0,0,0,40.75,73v1.17a1.17,1.17,0,0,0,1.18,1.15l7.85-.06.1,12.84a2.34,2.34,0,0,0,2.36,2.32l5.31-.05A2.33,2.33,0,0,0,59.88,88l-.11-12.84,7.85-.06a1.18,1.18,0,0,0,1.16-1.18V72.75A12.86,12.86,0,0,0,55.82,60Z"/><path class="cls-2" d="M247.36,47.61H254a13,13,0,0,1,13,13v3.85a3,3,0,0,1-3,3H237.36a3,3,0,0,1-3-3V60.61A13,13,0,0,1,247.36,47.61Z" transform="translate(-3.78 94.95) rotate(-21.29)"/><path class="cls-2" d="M249,50l-2.18.85a12.86,12.86,0,0,0-7.3,16.63L240,68.6a1.19,1.19,0,0,0,1.52.67l7.31-2.85,4.66,12a2.34,2.34,0,0,0,3,1.33l4.95-1.93a2.33,2.33,0,0,0,1.32-3l-4.66-12,7.32-2.85a1.17,1.17,0,0,0,.66-1.51l-.42-1.09A12.86,12.86,0,0,0,249,50Z"/><path class="cls-2" d="M177.27,107.47H184a13,13,0,0,1,13,13v3.85a3,3,0,0,1-3,3H167.27a3,3,0,0,1-3-3v-3.85A13,13,0,0,1,177.27,107.47Z" transform="translate(95.78 -80.61) rotate(33.79)"/><path class="cls-2" d="M185.81,111.74l-1.94-1.3A12.86,12.86,0,0,0,166.05,114l-.65,1a1.18,1.18,0,0,0,.32,1.62l6.53,4.37-7.14,10.67a2.34,2.34,0,0,0,.64,3.24l4.42,2.95a2.32,2.32,0,0,0,3.23-.64l7.15-10.67,6.52,4.36a1.16,1.16,0,0,0,1.62-.32l.65-1A12.85,12.85,0,0,0,185.81,111.74Z"/><path class="cls-2" d="M81.61,224.3H88.3a13,13,0,0,1,13,13v3.85a3,3,0,0,1-3,3H71.61a3,3,0,0,1-3-3V237.3a13,13,0,0,1,13-13Z" transform="translate(196.42 11.4) rotate(46.51)"/><path class="cls-2" d="M91.26,229.84l-1.61-1.69a12.85,12.85,0,0,0-18.15-.48l-.85.8a1.19,1.19,0,0,0,0,1.66l5.4,5.69-9.31,8.84a2.33,2.33,0,0,0-.09,3.3l3.66,3.85a2.33,2.33,0,0,0,3.3.09l9.31-8.84,5.4,5.7a1.17,1.17,0,0,0,1.66,0l.84-.8A12.86,12.86,0,0,0,91.26,229.84Z"/><path class="cls-2" d="M257.91,188.19h6.69a13,13,0,0,1,13,13V205a3,3,0,0,1-3,3H247.91a3,3,0,0,1-3-3v-3.85A13,13,0,0,1,257.91,188.19Z" transform="translate(193.42 -122.67) rotate(40.89)"/><path class="cls-2" d="M267.1,193.14l-1.76-1.53a12.86,12.86,0,0,0-18.12,1.31l-.76.88a1.17,1.17,0,0,0,.12,1.65l5.93,5.13-8.4,9.71a2.34,2.34,0,0,0,.23,3.3l4,3.47a2.33,2.33,0,0,0,3.29-.23l8.41-9.71,5.93,5.14a1.18,1.18,0,0,0,1.65-.12l.77-.88A12.86,12.86,0,0,0,267.1,193.14Z"/><path class="cls-2" d="M91.12,135.57h6.69a13,13,0,0,1,13,13v3.85a3,3,0,0,1-3,3H81.12a3,3,0,0,1-3-3v-3.85a13,13,0,0,1,13-13Z"/><path class="cls-2" d="M95.63,137.9H93.29a12.85,12.85,0,0,0-12.84,12.84v1.17a1.18,1.18,0,0,0,1.17,1.17h7.85v12.84a2.33,2.33,0,0,0,2.34,2.33h5.31a2.33,2.33,0,0,0,2.33-2.33V153.08h7.85a1.17,1.17,0,0,0,1.17-1.17v-1.17A12.85,12.85,0,0,0,95.63,137.9Z"/><path class="cls-2" d="M163.37,194.1h6.69a13,13,0,0,1,13,13v3.85a3,3,0,0,1-3,3H153.37a3,3,0,0,1-3-3V207.1A13,13,0,0,1,163.37,194.1Z" transform="translate(-96.76 202.79) rotate(-50.48)"/><path class="cls-2" d="M161.61,198.3l-1.49,1.8a12.84,12.84,0,0,0,1.73,18.07l.9.75a1.17,1.17,0,0,0,1.65-.16l5-6.06,9.91,8.18a2.32,2.32,0,0,0,3.28-.32l3.39-4.1a2.32,2.32,0,0,0-.32-3.28l-9.9-8.18,5-6.05a1.17,1.17,0,0,0-.16-1.65l-.9-.74A12.85,12.85,0,0,0,161.61,198.3Z"/><path class="cls-2" d="M252.09,115.79h6.69a13,13,0,0,1,13,13v3.85a3,3,0,0,1-3,3H242.09a3,3,0,0,1-3-3v-3.85a13,13,0,0,1,13-13Z" transform="translate(-29.15 133.67) rotate(-27.81)"/><path class="cls-2" d="M252.92,118.46l-2.06,1.09a12.85,12.85,0,0,0-5.37,17.35l.54,1a1.17,1.17,0,0,0,1.58.49l6.94-3.67,6,11.36a2.34,2.34,0,0,0,3.16,1l4.7-2.48a2.32,2.32,0,0,0,1-3.15l-6-11.36,6.95-3.66a1.17,1.17,0,0,0,.49-1.58l-.55-1A12.84,12.84,0,0,0,252.92,118.46Z"/><path class="cls-2" d="M165,4.62h6.69a13,13,0,0,1,13,13v3.85a3,3,0,0,1-3,3H155a3,3,0,0,1-3-3V17.62a13,13,0,0,1,13-13Z" transform="translate(42.27 -97.96) rotate(36.81)"/><path class="cls-2" d="M173.82,9.16,172,7.77a12.84,12.84,0,0,0-18,2.58l-.7.94a1.16,1.16,0,0,0,.23,1.63l6.29,4.7-7.7,10.29a2.33,2.33,0,0,0,.47,3.26l4.26,3.19a2.34,2.34,0,0,0,3.27-.47l7.69-10.28,6.28,4.7a1.18,1.18,0,0,0,1.64-.24l.7-.93A12.86,12.86,0,0,0,173.82,9.16Z"/><path class="cls-2" d="M31.07,178.17h6.69a13,13,0,0,1,13,13V195a3,3,0,0,1-3,3H21.07a3,3,0,0,1-3-3v-3.85A13,13,0,0,1,31.07,178.17Z" transform="translate(-28.95 7.68) rotate(-8.98)"/><path class="cls-2" d="M34.38,180.42l-2.3.36A12.85,12.85,0,0,0,21.4,195.47l.18,1.15a1.16,1.16,0,0,0,1.34,1l7.75-1.22,2,12.68A2.32,2.32,0,0,0,35.35,211l5.25-.83a2.33,2.33,0,0,0,1.94-2.67l-2-12.68,7.75-1.23a1.17,1.17,0,0,0,1-1.33l-.19-1.15A12.84,12.84,0,0,0,34.38,180.42Z"/><path class="cls-2" d="M136.63,56.66h6.69a13,13,0,0,1,13,13V73.5a3,3,0,0,1-3,3H126.63a3,3,0,0,1-3-3V69.66A13,13,0,0,1,136.63,56.66Z" transform="translate(-11.63 34.29) rotate(-13.42)"/><path class="cls-2" d="M139.35,58.93l-2.27.54a12.86,12.86,0,0,0-9.52,15.47l.28,1.14a1.16,1.16,0,0,0,1.4.86l7.64-1.82,3,12.49a2.33,2.33,0,0,0,2.81,1.73l5.17-1.23a2.34,2.34,0,0,0,1.73-2.82l-3-12.49L154.22,71a1.17,1.17,0,0,0,.87-1.4l-.27-1.14A12.86,12.86,0,0,0,139.35,58.93Z"/><path class="cls-2" d="M184.18,259.43h6.69a13,13,0,0,1,13,13v3.85a3,3,0,0,1-3,3H174.18a3,3,0,0,1-3-3v-3.85A13,13,0,0,1,184.18,259.43Z" transform="translate(514.98 291.53) rotate(128.72)"/><path class="cls-2" d="M192.72,275l1.46-1.82a12.86,12.86,0,0,0-2-18.06l-.91-.73a1.16,1.16,0,0,0-1.64.19l-4.91,6.12-10-8a2.33,2.33,0,0,0-3.28.36l-3.32,4.14a2.34,2.34,0,0,0,.36,3.29l10,8-4.91,6.12a1.16,1.16,0,0,0,.19,1.64l.91.73A12.86,12.86,0,0,0,192.72,275Z"/><path class="cls-2" d="M11.66,108.76h6.69a13,13,0,0,1,13,13v3.85a3,3,0,0,1-3,3H1.66a3,3,0,0,1-3-3v-3.85a13,13,0,0,1,13-13Z" transform="translate(-95.3 72.38) rotate(-60.02)"/><path class="cls-2" d="M9,113.88l-1.17,2a12.85,12.85,0,0,0,4.71,17.54l1,.58a1.16,1.16,0,0,0,1.59-.43l3.93-6.8,11.12,6.42a2.34,2.34,0,0,0,3.19-.86l2.65-4.6a2.34,2.34,0,0,0-.85-3.19l-11.13-6.41,3.93-6.8a1.17,1.17,0,0,0-.43-1.6l-1-.58A12.85,12.85,0,0,0,9,113.88Z"/></g><path class="cls-3" d="M48.38,55.69h6.69a13,13,0,0,1,13,13v3.85a3,3,0,0,1-3,3H38.38a3,3,0,0,1-3-3V68.69a13,13,0,0,1,13-13Z" transform="translate(-0.53 0.42) rotate(-0.47)"/><path class="cls-3" d="M52.82,58H50.49A12.87,12.87,0,0,0,37.75,71v1.17a1.17,1.17,0,0,0,1.18,1.15l7.85-.06.1,12.84a2.34,2.34,0,0,0,2.36,2.32l5.31-.05A2.33,2.33,0,0,0,56.88,86l-.11-12.84,7.85-.06a1.18,1.18,0,0,0,1.16-1.18V70.75A12.86,12.86,0,0,0,52.82,58Z"/><path class="cls-3" d="M244.36,45.61H251a13,13,0,0,1,13,13v3.85a3,3,0,0,1-3,3H234.36a3,3,0,0,1-3-3V58.61a13,13,0,0,1,13-13Z" transform="translate(-3.26 93.73) rotate(-21.29)"/><path class="cls-3" d="M246,48l-2.18.85a12.86,12.86,0,0,0-7.3,16.63L237,66.6a1.19,1.19,0,0,0,1.52.67l7.31-2.85,4.66,12a2.34,2.34,0,0,0,3,1.33l4.95-1.93a2.33,2.33,0,0,0,1.32-3l-4.66-12,7.32-2.85a1.17,1.17,0,0,0,.66-1.51l-.42-1.09A12.86,12.86,0,0,0,246,48Z"/><path class="cls-3" d="M174.27,105.47H181a13,13,0,0,1,13,13v3.85a3,3,0,0,1-3,3H164.27a3,3,0,0,1-3-3v-3.85A13,13,0,0,1,174.27,105.47Z" transform="translate(94.16 -79.28) rotate(33.79)"/><path class="cls-3" d="M182.81,109.74l-1.94-1.3A12.86,12.86,0,0,0,163.05,112l-.65,1a1.18,1.18,0,0,0,.32,1.62l6.53,4.37-7.14,10.67a2.34,2.34,0,0,0,.64,3.24l4.42,2.95a2.32,2.32,0,0,0,3.23-.64l7.15-10.67,6.52,4.36a1.16,1.16,0,0,0,1.62-.32l.65-1A12.85,12.85,0,0,0,182.81,109.74Z"/><path class="cls-3" d="M78.61,222.3H85.3a13,13,0,0,1,13,13v3.85a3,3,0,0,1-3,3H68.61a3,3,0,0,1-3-3V235.3A13,13,0,0,1,78.61,222.3Z" transform="translate(194.04 12.95) rotate(46.51)"/><path class="cls-3" d="M88.26,227.84l-1.61-1.69a12.85,12.85,0,0,0-18.15-.48l-.85.8a1.19,1.19,0,0,0,0,1.66l5.4,5.69-9.31,8.84a2.33,2.33,0,0,0-.09,3.3l3.66,3.85a2.33,2.33,0,0,0,3.3.09l9.31-8.84,5.4,5.7a1.17,1.17,0,0,0,1.66,0l.84-.8A12.86,12.86,0,0,0,88.26,227.84Z"/><path class="cls-3" d="M254.91,186.19h6.69a13,13,0,0,1,13,13V203a3,3,0,0,1-3,3H244.91a3,3,0,0,1-3-3v-3.85a13,13,0,0,1,13-13Z" transform="translate(191.38 -121.19) rotate(40.89)"/><path class="cls-3" d="M264.1,191.14l-1.76-1.53a12.86,12.86,0,0,0-18.12,1.31l-.76.88a1.17,1.17,0,0,0,.12,1.65l5.93,5.13-8.4,9.71a2.34,2.34,0,0,0,.23,3.3l4,3.47a2.33,2.33,0,0,0,3.29-.23l8.41-9.71,5.93,5.14a1.18,1.18,0,0,0,1.65-.12l.77-.88A12.86,12.86,0,0,0,264.1,191.14Z"/><path class="cls-3" d="M88.12,133.57h6.69a13,13,0,0,1,13,13v3.85a3,3,0,0,1-3,3H78.12a3,3,0,0,1-3-3v-3.85A13,13,0,0,1,88.12,133.57Z"/><path class="cls-3" d="M92.63,135.9H90.29a12.85,12.85,0,0,0-12.84,12.84v1.17a1.18,1.18,0,0,0,1.17,1.17h7.85v12.84a2.33,2.33,0,0,0,2.34,2.33h5.31a2.33,2.33,0,0,0,2.33-2.33V151.08h7.85a1.17,1.17,0,0,0,1.17-1.17v-1.17A12.85,12.85,0,0,0,92.63,135.9Z"/><path class="cls-3" d="M160.37,192.1h6.69a13,13,0,0,1,13,13v3.85a3,3,0,0,1-3,3H150.37a3,3,0,0,1-3-3V205.1A13,13,0,0,1,160.37,192.1Z" transform="matrix(0.64, -0.77, 0.77, 0.64, -96.31, 199.74)"/><path class="cls-3" d="M158.61,196.3l-1.49,1.8a12.84,12.84,0,0,0,1.73,18.07l.9.75a1.17,1.17,0,0,0,1.65-.16l5-6.06,9.91,8.18a2.32,2.32,0,0,0,3.28-.32l3.39-4.1a2.32,2.32,0,0,0-.32-3.28l-9.9-8.18,5-6.05a1.17,1.17,0,0,0-.16-1.65l-.9-.74A12.85,12.85,0,0,0,158.61,196.3Z"/><path class="cls-3" d="M249.09,113.79h6.69a13,13,0,0,1,13,13v3.85a3,3,0,0,1-3,3H239.09a3,3,0,0,1-3-3v-3.85A13,13,0,0,1,249.09,113.79Z" transform="translate(-28.56 132.04) rotate(-27.81)"/><path class="cls-3" d="M249.92,116.46l-2.06,1.09a12.85,12.85,0,0,0-5.37,17.35l.54,1a1.17,1.17,0,0,0,1.58.49l6.94-3.67,6,11.36a2.34,2.34,0,0,0,3.16,1l4.7-2.48a2.32,2.32,0,0,0,1-3.15l-6-11.36,6.95-3.66a1.17,1.17,0,0,0,.49-1.58l-.55-1A12.84,12.84,0,0,0,249.92,116.46Z"/><path class="cls-3" d="M162,2.62h6.69a13,13,0,0,1,13,13v3.85a3,3,0,0,1-3,3H152a3,3,0,0,1-3-3V15.62a13,13,0,0,1,13-13Z" transform="translate(40.47 -96.56) rotate(36.81)"/><path class="cls-3" d="M170.82,7.16,169,5.77a12.84,12.84,0,0,0-18,2.58l-.7.94a1.16,1.16,0,0,0,.23,1.63l6.29,4.7-7.7,10.29a2.33,2.33,0,0,0,.47,3.26l4.26,3.19a2.34,2.34,0,0,0,3.27-.47l7.69-10.28,6.28,4.7a1.18,1.18,0,0,0,1.64-.24l.7-.93A12.86,12.86,0,0,0,170.82,7.16Z"/><path class="cls-3" d="M28.07,176.17h6.69a13,13,0,0,1,13,13V193a3,3,0,0,1-3,3H18.07a3,3,0,0,1-3-3v-3.85A13,13,0,0,1,28.07,176.17Z" transform="matrix(0.99, -0.16, 0.16, 0.99, -28.67, 7.19)"/><path class="cls-3" d="M31.38,178.42l-2.3.36A12.85,12.85,0,0,0,18.4,193.47l.18,1.15a1.16,1.16,0,0,0,1.34,1l7.75-1.22,2,12.68A2.32,2.32,0,0,0,32.35,209l5.25-.83a2.33,2.33,0,0,0,1.94-2.67l-2-12.68,7.75-1.23a1.17,1.17,0,0,0,1-1.33l-.19-1.15A12.84,12.84,0,0,0,31.38,178.42Z"/><path class="cls-3" d="M133.63,54.66h6.69a13,13,0,0,1,13,13V71.5a3,3,0,0,1-3,3H123.63a3,3,0,0,1-3-3V67.66a13,13,0,0,1,13-13Z" transform="translate(-11.25 33.54) rotate(-13.42)"/><path class="cls-3" d="M136.35,56.93l-2.27.54a12.86,12.86,0,0,0-9.52,15.47l.28,1.14a1.16,1.16,0,0,0,1.4.86l7.64-1.82,3,12.49a2.33,2.33,0,0,0,2.81,1.73l5.17-1.23a2.34,2.34,0,0,0,1.73-2.82l-3-12.49L151.22,69a1.17,1.17,0,0,0,.87-1.4l-.27-1.14A12.86,12.86,0,0,0,136.35,56.93Z"/><path class="cls-3" d="M181.18,257.43h6.69a13,13,0,0,1,13,13v3.85a3,3,0,0,1-3,3H171.18a3,3,0,0,1-3-3v-3.85A13,13,0,0,1,181.18,257.43Z" transform="translate(508.54 290.62) rotate(128.72)"/><path class="cls-3" d="M189.72,273l1.46-1.82a12.86,12.86,0,0,0-2-18.06l-.91-.73a1.16,1.16,0,0,0-1.64.19l-4.91,6.12-10-8a2.33,2.33,0,0,0-3.28.36l-3.32,4.14a2.34,2.34,0,0,0,.36,3.29l10,8-4.91,6.12a1.16,1.16,0,0,0,.19,1.64l.91.73A12.86,12.86,0,0,0,189.72,273Z"/><path class="cls-3" d="M8.66,106.76h6.69a13,13,0,0,1,13,13v3.85a3,3,0,0,1-3,3H-1.34a3,3,0,0,1-3-3v-3.85a13,13,0,0,1,13-13Z" transform="translate(-95.07 68.78) rotate(-60.02)"/><path class="cls-3" d="M6,111.88l-1.17,2a12.85,12.85,0,0,0,4.71,17.54l1,.58a1.16,1.16,0,0,0,1.59-.43l3.93-6.8,11.12,6.42a2.34,2.34,0,0,0,3.19-.86l2.65-4.6a2.34,2.34,0,0,0-.85-3.19l-11.13-6.41,3.93-6.8a1.17,1.17,0,0,0-.43-1.6l-1-.58A12.85,12.85,0,0,0,6,111.88Z"/></g></g></g></svg>
