<svg xmlns="http://www.w3.org/2000/svg" viewBox="0 0 373 373" width="308px" height="308px"><defs><style>.cls-1{fill:#fffbeb;}.cls-2{fill:#fff6a4;}.cls-3{opacity:0.05;}.cls-4{fill:#534741;}</style></defs><title>sour-cream</title><g id="Layer_2" data-name="Layer 2"><g id="Cheese"><circle id="Sour_cream" data-name="Sour cream" class="cls-1" cx="186.5" cy="186.5" r="186.5"/><path class="cls-2" d="M130.72,26.35c10.17-3.7,28-18,38.78-19.19s31.24,9.07,41.95,10.53,33.21-3,43.26,1S278.16,41.27,287,47.54s30.77,12.81,37.83,21S335.08,99.42,340,109.07s21.29,25.64,23.73,36.18-5.24,32.11-5.4,42.92,6.93,32.6,4.19,43.07-19.56,26-24.72,35.5-9,32.08-16.3,40.08-29.41,13.92-38.39,19.94S260.19,351,250,354.68s-32.5-1.34-43.26-.18-31.53,10.81-42.24,9.35-28.17-16.29-38.23-20.27-32.94-5.08-41.75-11.34-17.37-27.52-24.43-35.71-26.8-19.8-31.69-29.45-2.59-32.44-5-43S8.85,194.12,9,183.3s12.78-29.92,15.52-40.39,1.07-33.3,6.23-42.82S56,79.54,63.26,71.54s16.42-29,25.41-35S120.55,30,130.72,26.35Z"/><g class="cls-3"><path class="cls-4" d="M363.16,144.83c-2.44-10.54-18.84-26.53-23.74-36.18s-8.1-32.32-15.16-40.52-29-14.74-37.83-21-22.2-24.86-32.26-28.83-32.54.42-43.26-1S179.71,5.59,169,6.74s-28.61,15.5-38.78,19.19-33.06,4.16-42,10.18-18.13,27-25.41,35-27.35,19-32.5,28.56S26.7,132,24,142.49,8.61,172.07,8.46,182.88s11.94,30.27,14.38,40.8.14,33.34,5,43,24.64,21.26,31.7,29.45S75.18,325.55,84,331.82s31.69,7.37,41.75,11.34S153.26,362,164,363.43s31.49-8.2,42.25-9.35,33.1,3.87,43.25.18,24.07-21.9,33.06-27.91,31.12-12,38.4-20,11.13-30.58,16.29-40.08,22-25,24.73-35.5-4.34-32.25-4.19-43.06S365.6,155.37,363.16,144.83ZM347,226.94c-2.5,9.57-17.9,23.78-22.62,32.48s-8.24,29.36-14.91,36.68-26.91,12.74-35.14,18.25-20.94,22.16-30.25,25.54-29.74-1.23-39.58-.17-28.85,9.89-38.65,8.56-25.78-14.91-35-18.55-30.14-4.64-38.2-10.38-15.9-25.17-22.36-32.67-24.52-18.12-29-26.94-2.37-29.69-4.6-39.33S23.41,193,23.55,183.07s11.69-27.38,14.19-37,1-30.47,5.71-39.17S66.52,88.13,73.19,80.81s15-26.53,23.25-32,29.18-5.93,38.48-9.31S160.56,23,170.4,21.89,199,30.2,208.8,31.54s30.38-2.71,39.58.93,21.45,20.64,29.52,26.38,28.15,11.72,34.61,19.22,9.41,28.25,13.88,37.08,19.48,23.46,21.72,33.1-4.8,29.39-4.94,39.28S349.51,217.36,347,226.94Z"/></g></g></g></svg>
