<?xml version="1.0" encoding="utf-8"?>
<!-- Generator: Adobe Illustrator 22.0.1, SVG Export Plug-In . SVG Version: 6.00 Build 0)  -->
<svg version="1.1" id="Layer_1" xmlns="http://www.w3.org/2000/svg" xmlns:xlink="http://www.w3.org/1999/xlink" x="0px" y="0px"
	 viewBox="0 0 257 257" style="enable-background:new 0 0 257 257;" xml:space="preserve">
<style type="text/css">
	.st0{fill:#333333;}
	.st1{opacity:0.2;}
	.st2{fill:#534741;}
	.st3{opacity:0.1;fill:#534741;enable-background:new    ;}
	.st4{opacity:0.7;fill:#534741;enable-background:new    ;}
	.st5{opacity:0.5;fill:#534741;enable-background:new    ;}
	.st6{fill:#F2F4EF;}
	.st7{fill:#E6EAE1;}
	.st8{opacity:0.1;}
	.st9{fill:#D1AA5A;}
	.st10{fill:#F2CB6B;}
	.st11{fill:#DDB55B;}
	.st12{fill:#3F2500;}
	.st13{opacity:0.5;fill:#BC8F48;enable-background:new    ;}
</style>
<title>breakfast</title>
<g>
	<g id="Layer_2_1_">
		<g id="Layer_1-2">
			<circle class="st0" cx="128.5" cy="128.5" r="128.5"/>
			<g class="st1">
				<circle class="st2" cx="95.4" cy="152.4" r="60.6"/>
				<circle class="st2" cx="95.4" cy="152.4" r="42.5"/>
				<path class="st3" d="M97.5,114.2l40.1,40.1c1.1,1.1,1.1,3,0,4.1l-40.1,40.1c-1.1,1.1-3,1.1-4.1,0l-40.1-40.1
					c-1.1-1.1-1.1-3,0-4.1l40.1-40.1C94.5,113,96.4,113,97.5,114.2z"/>
				<path class="st2" d="M97.5,111.2l40.1,40.1c1.1,1.1,1.1,3,0,4.1l-40.1,40.1c-1.1,1.1-3,1.1-4.1,0l-40.1-40.1
					c-1.1-1.1-1.1-3,0-4.1l40.1-40.1C94.5,110,96.4,110,97.5,111.2z"/>
				<path class="st2" d="M56.6,151.8l37.3-37.3c0.9-0.9,2.3-0.9,3.1,0l37.3,37.3c0.9,0.9,0.9,2.3,0,3.1L97,192.2
					c-0.9,0.9-2.3,0.9-3.1,0l-37.3-37.3C55.8,154,55.8,152.6,56.6,151.8z"/>
				<path class="st2" d="M59.7,153l6.8-6.8c0.2-0.2,0.4-0.2,0.6,0l6.8,6.8c0.2,0.2,0.2,0.4,0,0.6l-6.8,6.8c-0.2,0.2-0.4,0.2-0.6,0
					l-6.8-6.8C59.5,153.4,59.5,153.2,59.7,153z"/>
				<path class="st2" d="M69.3,143.5l6.8-6.8c0.2-0.2,0.4-0.2,0.6,0l6.8,6.8c0.2,0.2,0.2,0.4,0,0.6l-6.8,6.8c-0.2,0.2-0.4,0.2-0.6,0
					l-6.8-6.8C69.1,143.9,69.1,143.6,69.3,143.5z"/>
				<path class="st2" d="M78.8,133.9l6.8-6.8c0.2-0.2,0.4-0.2,0.6,0l6.8,6.8c0.2,0.2,0.2,0.4,0,0.6l-6.8,6.8c-0.2,0.2-0.4,0.2-0.6,0
					l-6.8-6.8C78.7,134.3,78.7,134.1,78.8,133.9z"/>
				<path class="st2" d="M88.4,124.4l6.8-6.8c0.2-0.2,0.4-0.2,0.6,0l6.8,6.8c0.2,0.2,0.2,0.4,0,0.6l-6.8,6.8c-0.2,0.2-0.4,0.2-0.6,0
					l-6.8-6.8C88.2,124.8,88.2,124.5,88.4,124.4z"/>
				<path class="st2" d="M69.3,162.6l6.8-6.8c0.2-0.2,0.4-0.2,0.6,0l6.8,6.8c0.2,0.2,0.2,0.4,0,0.6l-6.8,6.8c-0.2,0.2-0.4,0.2-0.6,0
					l-6.8-6.8C69.1,163,69.1,162.7,69.3,162.6z"/>
				<path class="st2" d="M78.8,153l6.8-6.8c0.2-0.2,0.4-0.2,0.6,0L93,153c0.2,0.2,0.2,0.4,0,0.6l-6.8,6.8c-0.2,0.2-0.4,0.2-0.6,0
					l-6.8-6.8C78.7,153.4,78.7,153.2,78.8,153z"/>
				<path class="st2" d="M88.4,143.5l6.8-6.8c0.2-0.2,0.4-0.2,0.6,0l6.8,6.8c0.2,0.2,0.2,0.4,0,0.6l-6.8,6.8c-0.2,0.2-0.4,0.2-0.6,0
					l-6.8-6.8C88.2,143.9,88.2,143.6,88.4,143.5z"/>
				<path class="st2" d="M97.9,133.9l6.8-6.8c0.2-0.2,0.4-0.2,0.6,0l6.8,6.8c0.2,0.2,0.2,0.4,0,0.6l-6.8,6.8c-0.2,0.2-0.4,0.2-0.6,0
					l-6.8-6.8C97.8,134.3,97.8,134.1,97.9,133.9z"/>
				<path class="st2" d="M78.8,172.1l6.8-6.8c0.2-0.2,0.4-0.2,0.6,0l6.8,6.8c0.2,0.2,0.2,0.4,0,0.6l-6.8,6.8c-0.2,0.2-0.4,0.2-0.6,0
					l-6.8-6.8C78.7,172.5,78.7,172.3,78.8,172.1z"/>
				<path class="st2" d="M88.4,162.6l6.8-6.8c0.2-0.2,0.4-0.2,0.6,0l6.8,6.8c0.2,0.2,0.2,0.4,0,0.6l-6.8,6.8c-0.2,0.2-0.4,0.2-0.6,0
					l-6.8-6.8C88.2,163,88.2,162.7,88.4,162.6z"/>
				<path class="st2" d="M97.9,153l6.8-6.8c0.2-0.2,0.4-0.2,0.6,0l6.8,6.8c0.2,0.2,0.2,0.4,0,0.6l-6.8,6.8c-0.2,0.2-0.4,0.2-0.6,0
					l-6.8-6.8C97.8,153.4,97.8,153.2,97.9,153z"/>
				<path class="st2" d="M107.5,143.5l6.8-6.8c0.2-0.2,0.4-0.2,0.6,0l6.8,6.8c0.2,0.2,0.2,0.4,0,0.6l-6.8,6.8
					c-0.2,0.2-0.4,0.2-0.6,0l-6.8-6.8C107.3,143.9,107.3,143.6,107.5,143.5z"/>
				<path class="st2" d="M88.4,181.7l6.8-6.8c0.2-0.2,0.4-0.2,0.6,0l6.8,6.8c0.2,0.2,0.2,0.4,0,0.6l-6.8,6.8c-0.2,0.2-0.4,0.2-0.6,0
					l-6.8-6.8C88.2,182.1,88.2,181.8,88.4,181.7z"/>
				<path class="st2" d="M97.9,172.1l6.8-6.8c0.2-0.2,0.4-0.2,0.6,0l6.8,6.8c0.2,0.2,0.2,0.4,0,0.6l-6.8,6.8c-0.2,0.2-0.4,0.2-0.6,0
					l-6.8-6.8C97.8,172.5,97.8,172.3,97.9,172.1z"/>
				<path class="st2" d="M107.5,162.6l6.8-6.8c0.2-0.2,0.4-0.2,0.6,0l6.8,6.8c0.2,0.2,0.2,0.4,0,0.6l-6.8,6.8
					c-0.2,0.2-0.4,0.2-0.6,0l-6.8-6.8C107.3,163,107.3,162.7,107.5,162.6z"/>
				<path class="st2" d="M117,153l6.8-6.8c0.2-0.2,0.4-0.2,0.6,0l6.8,6.8c0.2,0.2,0.2,0.4,0,0.6l-6.8,6.8c-0.2,0.2-0.4,0.2-0.6,0
					l-6.8-6.8C116.9,153.4,116.9,153.2,117,153z"/>
				<path class="st3" d="M127.3,127.7v56.6c0,1.6-1.3,2.9-2.9,2.9H67.7c-1.6,0-2.9-1.3-2.9-2.9v-56.6c0-1.6,1.3-2.9,2.9-2.9h56.6
					C125.9,124.8,127.3,126.1,127.3,127.7z"/>
				<path class="st2" d="M127.3,124.8v56.6c0,1.6-1.3,2.9-2.9,2.9H67.7c-1.6,0-2.9-1.3-2.9-2.9v-56.6c0-1.6,1.3-2.9,2.9-2.9h56.6
					C126,121.8,127.3,123.1,127.3,124.8z"/>
				<path class="st2" d="M69.6,124.5h52.7c1.2,0,2.2,1,2.2,2.2v52.7c0,1.2-1,2.2-2.2,2.2H69.6c-1.2,0-2.2-1-2.2-2.2v-52.7
					C67.4,125.5,68.4,124.5,69.6,124.5z"/>
				<path class="st2" d="M70.9,127.6h9.6c0.2,0,0.4,0.2,0.4,0.4v9.6c0,0.2-0.2,0.4-0.4,0.4h-9.6c-0.2,0-0.4-0.2-0.4-0.4V128
					C70.5,127.8,70.7,127.6,70.9,127.6z"/>
				<path class="st2" d="M84.4,127.6h9.6c0.2,0,0.4,0.2,0.4,0.4v9.6c0,0.2-0.2,0.4-0.4,0.4h-9.6c-0.2,0-0.4-0.2-0.4-0.4V128
					C84,127.8,84.2,127.6,84.4,127.6z"/>
				<path class="st2" d="M98,127.6h9.6c0.2,0,0.4,0.2,0.4,0.4v9.6c0,0.2-0.2,0.4-0.4,0.4H98c-0.2,0-0.4-0.2-0.4-0.4V128
					C97.6,127.8,97.7,127.6,98,127.6z"/>
				<path class="st2" d="M111.5,127.6h9.6c0.2,0,0.4,0.2,0.4,0.4v9.6c0,0.2-0.2,0.4-0.4,0.4h-9.6c-0.2,0-0.4-0.2-0.4-0.4V128
					C111.1,127.8,111.2,127.6,111.5,127.6z"/>
				<path class="st2" d="M70.9,141.1h9.6c0.2,0,0.4,0.2,0.4,0.4v9.6c0,0.2-0.2,0.4-0.4,0.4h-9.6c-0.2,0-0.4-0.2-0.4-0.4v-9.6
					C70.5,141.3,70.7,141.1,70.9,141.1z"/>
				<path class="st2" d="M84.4,141.1h9.6c0.2,0,0.4,0.2,0.4,0.4v9.6c0,0.2-0.2,0.4-0.4,0.4h-9.6c-0.2,0-0.4-0.2-0.4-0.4v-9.6
					C84,141.3,84.2,141.1,84.4,141.1z"/>
				<path class="st2" d="M98,141.1h9.6c0.2,0,0.4,0.2,0.4,0.4v9.6c0,0.2-0.2,0.4-0.4,0.4H98c-0.2,0-0.4-0.2-0.4-0.4v-9.6
					C97.6,141.3,97.7,141.1,98,141.1z"/>
				<path class="st2" d="M111.5,141.1h9.6c0.2,0,0.4,0.2,0.4,0.4v9.6c0,0.2-0.2,0.4-0.4,0.4h-9.6c-0.2,0-0.4-0.2-0.4-0.4v-9.6
					C111.1,141.3,111.2,141.1,111.5,141.1z"/>
				<path class="st2" d="M70.9,154.6h9.6c0.2,0,0.4,0.2,0.4,0.4v9.6c0,0.2-0.2,0.4-0.4,0.4h-9.6c-0.2,0-0.4-0.2-0.4-0.4V155
					C70.5,154.8,70.7,154.6,70.9,154.6z"/>
				<path class="st2" d="M84.4,154.6h9.6c0.2,0,0.4,0.2,0.4,0.4v9.6c0,0.2-0.2,0.4-0.4,0.4h-9.6c-0.2,0-0.4-0.2-0.4-0.4V155
					C84,154.8,84.2,154.6,84.4,154.6z"/>
				<path class="st2" d="M98,154.6h9.6c0.2,0,0.4,0.2,0.4,0.4v9.6c0,0.2-0.2,0.4-0.4,0.4H98c-0.2,0-0.4-0.2-0.4-0.4V155
					C97.6,154.8,97.7,154.6,98,154.6z"/>
				<path class="st2" d="M111.5,154.6h9.6c0.2,0,0.4,0.2,0.4,0.4v9.6c0,0.2-0.2,0.4-0.4,0.4h-9.6c-0.2,0-0.4-0.2-0.4-0.4V155
					C111.1,154.8,111.2,154.6,111.5,154.6z"/>
				<path class="st2" d="M70.9,168.1h9.6c0.2,0,0.4,0.2,0.4,0.4v9.6c0,0.2-0.2,0.4-0.4,0.4h-9.6c-0.2,0-0.4-0.2-0.4-0.4v-9.6
					C70.5,168.3,70.7,168.1,70.9,168.1z"/>
				<path class="st2" d="M84.4,168.1h9.6c0.2,0,0.4,0.2,0.4,0.4v9.6c0,0.2-0.2,0.4-0.4,0.4h-9.6c-0.2,0-0.4-0.2-0.4-0.4v-9.6
					C84,168.3,84.2,168.1,84.4,168.1z"/>
				<path class="st2" d="M98,168.1h9.6c0.2,0,0.4,0.2,0.4,0.4v9.6c0,0.2-0.2,0.4-0.4,0.4H98c-0.2,0-0.4-0.2-0.4-0.4v-9.6
					C97.6,168.3,97.7,168.1,98,168.1z"/>
				<path class="st2" d="M111.5,168.1h9.6c0.2,0,0.4,0.2,0.4,0.4v9.6c0,0.2-0.2,0.4-0.4,0.4h-9.6c-0.2,0-0.4-0.2-0.4-0.4v-9.6
					C111.1,168.3,111.2,168.1,111.5,168.1z"/>

					<ellipse transform="matrix(0.1807 -0.9835 0.9835 0.1807 -45.8981 219.7855)" class="st4" cx="109" cy="137.4" rx="1.3" ry="3.1"/>
				<path class="st2" d="M209.9,108.4h20.9c1.7,0,3,1.3,3,3v0.6c0,1.7-1.3,3-3,3h-20.9l0,0V108.4L209.9,108.4L209.9,108.4z"/>
				<circle class="st2" cx="190.6" cy="111.7" r="30.1"/>
				<circle class="st2" cx="190.6" cy="111.7" r="26.7"/>
				<circle class="st5" cx="182.3" cy="107.7" r="2.2"/>
				<circle class="st5" cx="199.1" cy="119.1" r="1.1"/>
				<circle class="st5" cx="176.9" cy="123.1" r="1.8"/>
				<circle class="st5" cx="190.4" cy="130.3" r="0.9"/>
				<circle class="st5" cx="199.6" cy="90" r="1.2"/>
			</g>
			<circle class="st6" cx="90.4" cy="148.4" r="60.6"/>
			<circle class="st7" cx="90.4" cy="148.4" r="42.5"/>
			<g class="st8">
				<path class="st2" d="M92.5,111.2l28.1,49.2c0.8,1.4,0.3,3.2-1.1,4l-49.2,28.1c-1.4,0.8-3.2,0.3-4-1.1l-28.1-49.2
					c-0.8-1.4-0.3-3.2,1.1-4l49.2-28.1C89.9,109.3,91.7,109.8,92.5,111.2z"/>
				<path class="st2" d="M42.4,139.6l45.8-26.2c1.1-0.6,2.4-0.2,3,0.8l26.2,45.8c0.6,1.1,0.2,2.4-0.8,3l-45.8,26.2
					c-1.1,0.6-2.4,0.2-3-0.8l-26.2-45.8C41,141.6,41.3,140.2,42.4,139.6z"/>
				<path class="st2" d="M45,141.6l8.4-4.8c0.2-0.1,0.4,0,0.5,0.1l4.8,8.4c0.1,0.2,0,0.4-0.1,0.5l-8.4,4.8c-0.2,0.1-0.4,0-0.5-0.1
					l-4.8-8.4C44.8,142,44.8,141.7,45,141.6z"/>
				<path class="st2" d="M56.8,134.9l8.4-4.8c0.2-0.1,0.4,0,0.5,0.1l4.8,8.4c0.1,0.2,0,0.4-0.1,0.5L62,144c-0.2,0.1-0.4,0-0.5-0.1
					l-4.8-8.4C56.5,135.3,56.6,135,56.8,134.9z"/>
				<path class="st2" d="M68.5,128.2l8.4-4.8c0.2-0.1,0.4,0,0.5,0.1l4.8,8.4c0.1,0.2,0,0.4-0.1,0.5l-8.4,4.8c-0.2,0.1-0.4,0-0.5-0.1
					l-4.8-8.4C68.2,128.6,68.3,128.3,68.5,128.2z"/>
				<path class="st2" d="M80.2,121.5l8.4-4.8c0.2-0.1,0.4,0,0.5,0.1l4.8,8.4c0.1,0.2,0,0.4-0.1,0.5l-8.4,4.8c-0.2,0.1-0.4,0-0.5-0.1
					l-4.8-8.4C80,121.9,80,121.6,80.2,121.5z"/>
				<path class="st2" d="M51.7,153.4l8.4-4.8c0.2-0.1,0.4,0,0.5,0.1l4.8,8.4c0.1,0.2,0,0.4-0.1,0.5l-8.4,4.8c-0.2,0.1-0.4,0-0.5-0.1
					l-4.8-8.4C51.5,153.7,51.6,153.5,51.7,153.4z"/>
				<path class="st2" d="M63.5,146.6l8.4-4.8c0.2-0.1,0.4,0,0.5,0.1l4.8,8.4c0.1,0.2,0,0.4-0.1,0.5l-8.4,4.8c-0.2,0.1-0.4,0-0.5-0.1
					l-4.8-8.4C63.2,147,63.3,146.8,63.5,146.6z"/>
				<path class="st2" d="M75.2,140l8.4-4.8c0.2-0.1,0.4,0,0.5,0.1l4.8,8.4c0.1,0.2,0,0.4-0.1,0.5l-8.4,4.8c-0.2,0.1-0.4,0-0.5-0.1
					l-4.8-8.4C74.9,140.3,75,140.1,75.2,140z"/>
				<path class="st2" d="M86.9,133.2l8.4-4.8c0.2-0.1,0.4,0,0.5,0.1l4.8,8.4c0.1,0.2,0,0.4-0.1,0.5l-8.4,4.8c-0.2,0.1-0.4,0-0.5-0.1
					l-4.8-8.4C86.7,133.6,86.7,133.4,86.9,133.2z"/>
				<path class="st2" d="M58.5,165.1l8.4-4.8c0.2-0.1,0.4,0,0.5,0.1l4.8,8.4c0.1,0.2,0,0.4-0.1,0.5l-8.4,4.8c-0.2,0.1-0.4,0-0.5-0.1
					l-4.8-8.4C58.2,165.4,58.3,165.2,58.5,165.1z"/>
				<path class="st2" d="M70.2,158.4l8.4-4.8c0.2-0.1,0.4,0,0.5,0.1l4.8,8.4c0.1,0.2,0,0.4-0.1,0.5l-8.4,4.8c-0.2,0.1-0.4,0-0.5-0.1
					l-4.8-8.4C69.9,158.7,70,158.5,70.2,158.4z"/>
				<path class="st2" d="M81.9,151.7l8.4-4.8c0.2-0.1,0.4,0,0.5,0.1l4.8,8.4c0.1,0.2,0,0.4-0.1,0.5l-8.4,4.8c-0.2,0.1-0.4,0-0.5-0.1
					l-4.8-8.4C81.6,152,81.7,151.8,81.9,151.7z"/>
				<path class="st2" d="M93.6,145l8.4-4.8c0.2-0.1,0.4,0,0.5,0.1l4.8,8.4c0.1,0.2,0,0.4-0.1,0.5l-8.4,4.8c-0.2,0.1-0.4,0-0.5-0.1
					l-4.8-8.4C93.4,145.3,93.4,145.1,93.6,145z"/>
				<path class="st2" d="M65.2,176.8l8.4-4.8c0.2-0.1,0.4,0,0.5,0.1l4.8,8.4c0.1,0.2,0,0.4-0.1,0.5l-8.4,4.8c-0.2,0.1-0.4,0-0.5-0.1
					l-4.8-8.4C64.9,177.2,65,176.9,65.2,176.8z"/>
				<path class="st2" d="M76.9,170.1l8.4-4.8c0.2-0.1,0.4,0,0.5,0.1l4.8,8.4c0.1,0.2,0,0.4-0.1,0.5l-8.4,4.8c-0.2,0.1-0.4,0-0.5-0.1
					l-4.8-8.4C76.6,170.5,76.7,170.2,76.9,170.1z"/>
				<path class="st2" d="M88.6,163.4l8.4-4.8c0.2-0.1,0.4,0,0.5,0.1l4.8,8.4c0.1,0.2,0,0.4-0.1,0.5l-8.4,4.8c-0.2,0.1-0.4,0-0.5-0.1
					l-4.8-8.4C88.4,163.8,88.4,163.5,88.6,163.4z"/>
				<path class="st2" d="M100.3,156.7l8.4-4.8c0.2-0.1,0.4,0,0.5,0.1l4.8,8.4c0.1,0.2,0,0.4-0.1,0.5l-8.4,4.8
					c-0.2,0.1-0.4,0-0.5-0.1l-4.8-8.4C100.1,157,100.2,156.8,100.3,156.7z"/>
			</g>
			<path class="st9" d="M89.5,108.2l28.1,49.2c0.8,1.4,0.3,3.2-1.1,4l-49.2,28.1c-1.4,0.8-3.2,0.3-4-1.1l-28.1-49.2
				c-0.8-1.4-0.3-3.2,1.1-4l49.2-28.1C86.9,106.3,88.7,106.8,89.5,108.2z"/>
			<path class="st10" d="M39.4,136.6l45.8-26.2c1.1-0.6,2.4-0.2,3,0.8l26.2,45.8c0.6,1.1,0.2,2.4-0.8,3l-45.8,26.2
				c-1.1,0.6-2.4,0.2-3-0.8l-26.2-45.8C38,138.5,38.3,137.2,39.4,136.6z"/>
			<path class="st11" d="M42,138.6l8.4-4.8c0.2-0.1,0.4,0,0.5,0.1l4.8,8.4c0.1,0.2,0,0.4-0.1,0.5l-8.4,4.8c-0.2,0.1-0.4,0-0.5-0.1
				l-4.8-8.4C41.8,139,41.8,138.7,42,138.6z"/>
			<path class="st11" d="M53.8,131.9l8.4-4.8c0.2-0.1,0.4,0,0.5,0.1l4.8,8.4c0.1,0.2,0,0.4-0.1,0.5L59,141c-0.2,0.1-0.4,0-0.5-0.1
				l-4.8-8.4C53.5,132.3,53.6,132,53.8,131.9z"/>
			<path class="st11" d="M65.5,125.2l8.4-4.8c0.2-0.1,0.4,0,0.5,0.1l4.8,8.4c0.1,0.2,0,0.4-0.1,0.5l-8.4,4.8c-0.2,0.1-0.4,0-0.5-0.1
				l-4.8-8.4C65.2,125.6,65.3,125.3,65.5,125.2z"/>
			<path class="st11" d="M77.2,118.5l8.4-4.8c0.2-0.1,0.4,0,0.5,0.1l4.8,8.4c0.1,0.2,0,0.4-0.1,0.5l-8.4,4.8c-0.2,0.1-0.4,0-0.5-0.1
				l-4.8-8.4C77,118.9,77,118.6,77.2,118.5z"/>
			<path class="st11" d="M48.7,150.4l8.4-4.8c0.2-0.1,0.4,0,0.5,0.1l4.8,8.4c0.1,0.2,0,0.4-0.1,0.5l-8.4,4.8c-0.2,0.1-0.4,0-0.5-0.1
				l-4.8-8.4C48.5,150.7,48.6,150.5,48.7,150.4z"/>
			<path class="st11" d="M60.5,143.7l8.4-4.8c0.2-0.1,0.4,0,0.5,0.1l4.8,8.4c0.1,0.2,0,0.4-0.1,0.5l-8.4,4.8c-0.2,0.1-0.4,0-0.5-0.1
				l-4.8-8.4C60.2,144,60.3,143.8,60.5,143.7z"/>
			<path class="st11" d="M72.2,136.9l8.4-4.8c0.2-0.1,0.4,0,0.5,0.1l4.8,8.4c0.1,0.2,0,0.4-0.1,0.5l-8.4,4.8c-0.2,0.1-0.4,0-0.5-0.1
				l-4.8-8.4C71.9,137.3,72,137.1,72.2,136.9z"/>
			<path class="st11" d="M84.5,130.2l8.4-4.8c0.2-0.1,0.4,0,0.5,0.1l4.8,8.4c0.1,0.2,0,0.4-0.1,0.5l-8.4,4.8c-0.2,0.1-0.4,0-0.5-0.1
				l-4.8-8.4C84.3,130.5,84.3,130.3,84.5,130.2z"/>
			<path class="st11" d="M55.5,162.1l8.4-4.8c0.2-0.1,0.4,0,0.5,0.1l4.8,8.4c0.1,0.2,0,0.4-0.1,0.5l-8.4,4.8c-0.2,0.1-0.4,0-0.5-0.1
				l-4.8-8.4C55.2,162.4,55.3,162.2,55.5,162.1z"/>
			<path class="st11" d="M67.2,155.4l8.4-4.8c0.2-0.1,0.4,0,0.5,0.1l4.8,8.4c0.1,0.2,0,0.4-0.1,0.5l-8.4,4.8c-0.2,0.1-0.4,0-0.5-0.1
				l-4.8-8.4C66.9,155.7,67,155.5,67.2,155.4z"/>
			<path class="st11" d="M78.9,148.7l8.4-4.8c0.2-0.1,0.4,0,0.5,0.1l4.8,8.4c0.1,0.2,0,0.4-0.1,0.5l-8.4,4.8c-0.2,0.1-0.4,0-0.5-0.1
				l-4.8-8.4C78.6,149,78.7,148.8,78.9,148.7z"/>
			<path class="st11" d="M90.6,142l8.4-4.8c0.2-0.1,0.4,0,0.5,0.1l4.8,8.4c0.1,0.2,0,0.4-0.1,0.5l-8.4,4.8c-0.2,0.1-0.4,0-0.5-0.1
				l-4.8-8.4C90.4,142.3,90.5,142.1,90.6,142z"/>
			<path class="st11" d="M62.2,173.8l8.4-4.8c0.2-0.1,0.4,0,0.5,0.1l4.8,8.4c0.1,0.2,0,0.4-0.1,0.5l-8.4,4.8c-0.2,0.1-0.4,0-0.5-0.1
				l-4.8-8.4C61.9,174.2,62,173.9,62.2,173.8z"/>
			<path class="st11" d="M73.9,167.1l8.4-4.8c0.2-0.1,0.4,0,0.5,0.1l4.8,8.4c0.1,0.2,0,0.4-0.1,0.5l-8.4,4.8c-0.2,0.1-0.4,0-0.5-0.1
				l-4.8-8.4C73.6,167.5,73.7,167.2,73.9,167.1z"/>
			<path class="st11" d="M85.6,160.4l8.4-4.8c0.2-0.1,0.4,0,0.5,0.1l4.8,8.4c0.1,0.2,0,0.4-0.1,0.5l-8.4,4.8c-0.2,0.1-0.4,0-0.5-0.1
				l-4.8-8.4C85.4,160.8,85.4,160.5,85.6,160.4z"/>
			<path class="st11" d="M97.3,153.7l8.4-4.8c0.2-0.1,0.4,0,0.5,0.1l4.8,8.4c0.1,0.2,0,0.4-0.1,0.5l-8.4,4.8c-0.2,0.1-0.4,0-0.5-0.1
				l-4.8-8.4C97.1,154,97.2,153.8,97.3,153.7z"/>
			<g class="st8">
				<path class="st2" d="M122.3,118.8v56.6c0,1.6-1.3,2.9-2.9,2.9H62.7c-1.6,0-2.9-1.3-2.9-2.9v-56.6c0-1.6,1.3-2.9,2.9-2.9h56.6
					C121,115.8,122.3,117.1,122.3,118.8z"/>
				<path class="st2" d="M64.7,118.5h52.7c1.2,0,2.2,1,2.2,2.2v52.7c0,1.2-1,2.2-2.2,2.2H64.7c-1.2,0-2.2-1-2.2-2.2v-52.7
					C62.5,119.5,63.4,118.5,64.7,118.5z"/>
				<path class="st2" d="M65.9,121.6h9.6c0.2,0,0.4,0.2,0.4,0.4v9.6c0,0.2-0.2,0.4-0.4,0.4h-9.6c-0.2,0-0.4-0.2-0.4-0.4V122
					C65.5,121.8,65.7,121.6,65.9,121.6z"/>
				<path class="st2" d="M79.4,121.6h9.6c0.2,0,0.4,0.2,0.4,0.4v9.6c0,0.2-0.2,0.4-0.4,0.4h-9.6c-0.2,0-0.4-0.2-0.4-0.4V122
					C79,121.8,79.2,121.6,79.4,121.6z"/>
				<path class="st2" d="M93,121.6h9.6c0.2,0,0.4,0.2,0.4,0.4v9.6c0,0.2-0.2,0.4-0.4,0.4H93c-0.2,0-0.4-0.2-0.4-0.4V122
					C92.6,121.8,92.7,121.6,93,121.6z"/>
				<path class="st2" d="M106.5,121.6h9.6c0.2,0,0.4,0.2,0.4,0.4v9.6c0,0.2-0.2,0.4-0.4,0.4h-9.6c-0.2,0-0.4-0.2-0.4-0.4V122
					C106.1,121.8,106.2,121.6,106.5,121.6z"/>
				<path class="st2" d="M65.9,135.1h9.6c0.2,0,0.4,0.2,0.4,0.4v9.6c0,0.2-0.2,0.4-0.4,0.4h-9.6c-0.2,0-0.4-0.2-0.4-0.4v-9.6
					C65.5,135.3,65.7,135.1,65.9,135.1z"/>
				<path class="st2" d="M79.4,135.1h9.6c0.2,0,0.4,0.2,0.4,0.4v9.6c0,0.2-0.2,0.4-0.4,0.4h-9.6c-0.2,0-0.4-0.2-0.4-0.4v-9.6
					C79,135.3,79.2,135.1,79.4,135.1z"/>
				<path class="st2" d="M93,135.1h9.6c0.2,0,0.4,0.2,0.4,0.4v9.6c0,0.2-0.2,0.4-0.4,0.4H93c-0.2,0-0.4-0.2-0.4-0.4v-9.6
					C92.6,135.3,92.7,135.1,93,135.1z"/>
				<path class="st2" d="M106.5,135.1h9.6c0.2,0,0.4,0.2,0.4,0.4v9.6c0,0.2-0.2,0.4-0.4,0.4h-9.6c-0.2,0-0.4-0.2-0.4-0.4v-9.6
					C106.1,135.3,106.2,135.1,106.5,135.1z"/>
				<path class="st2" d="M65.9,148.6h9.6c0.2,0,0.4,0.2,0.4,0.4v9.6c0,0.2-0.2,0.4-0.4,0.4h-9.6c-0.2,0-0.4-0.2-0.4-0.4V149
					C65.5,148.8,65.7,148.6,65.9,148.6z"/>
				<path class="st2" d="M79.4,148.6h9.6c0.2,0,0.4,0.2,0.4,0.4v9.6c0,0.2-0.2,0.4-0.4,0.4h-9.6c-0.2,0-0.4-0.2-0.4-0.4V149
					C79,148.8,79.2,148.6,79.4,148.6z"/>
				<path class="st2" d="M93,148.6h9.6c0.2,0,0.4,0.2,0.4,0.4v9.6c0,0.2-0.2,0.4-0.4,0.4H93c-0.2,0-0.4-0.2-0.4-0.4V149
					C92.6,148.8,92.7,148.6,93,148.6z"/>
				<path class="st2" d="M106.5,148.6h9.6c0.2,0,0.4,0.2,0.4,0.4v9.6c0,0.2-0.2,0.4-0.4,0.4h-9.6c-0.2,0-0.4-0.2-0.4-0.4V149
					C106.1,148.8,106.2,148.6,106.5,148.6z"/>
				<path class="st2" d="M65.9,162.1h9.6c0.2,0,0.4,0.2,0.4,0.4v9.6c0,0.2-0.2,0.4-0.4,0.4h-9.6c-0.2,0-0.4-0.2-0.4-0.4v-9.6
					C65.5,162.3,65.7,162.1,65.9,162.1z"/>
				<path class="st2" d="M79.4,162.1h9.6c0.2,0,0.4,0.2,0.4,0.4v9.6c0,0.2-0.2,0.4-0.4,0.4h-9.6c-0.2,0-0.4-0.2-0.4-0.4v-9.6
					C79,162.3,79.2,162.1,79.4,162.1z"/>
				<path class="st2" d="M93,162.1h9.6c0.2,0,0.4,0.2,0.4,0.4v9.6c0,0.2-0.2,0.4-0.4,0.4H93c-0.2,0-0.4-0.2-0.4-0.4v-9.6
					C92.6,162.3,92.7,162.1,93,162.1z"/>
				<path class="st2" d="M106.5,162.1h9.6c0.2,0,0.4,0.2,0.4,0.4v9.6c0,0.2-0.2,0.4-0.4,0.4h-9.6c-0.2,0-0.4-0.2-0.4-0.4v-9.6
					C106.1,162.3,106.2,162.1,106.5,162.1z"/>
			</g>
			<path class="st9" d="M119.3,115.8v56.6c0,1.6-1.3,2.9-2.9,2.9H59.7c-1.6,0-2.9-1.3-2.9-2.9v-56.6c0-1.6,1.3-2.9,2.9-2.9h56.6
				C118,112.8,119.3,114.1,119.3,115.8z"/>
			<path class="st10" d="M61.7,115.5h52.7c1.2,0,2.2,1,2.2,2.2v52.7c0,1.2-1,2.2-2.2,2.2H61.7c-1.2,0-2.2-1-2.2-2.2v-52.7
				C59.5,116.5,60.4,115.5,61.7,115.5z"/>
			<path class="st11" d="M62.9,118.6h9.6c0.2,0,0.4,0.2,0.4,0.4v9.6c0,0.2-0.2,0.4-0.4,0.4h-9.6c-0.2,0-0.4-0.2-0.4-0.4V119
				C62.5,118.8,62.7,118.6,62.9,118.6z"/>
			<path class="st11" d="M76.4,118.6h9.6c0.2,0,0.4,0.2,0.4,0.4v9.6c0,0.2-0.2,0.4-0.4,0.4h-9.6c-0.2,0-0.4-0.2-0.4-0.4V119
				C76,118.8,76.2,118.6,76.4,118.6z"/>
			<path class="st11" d="M90,118.6h9.6c0.2,0,0.4,0.2,0.4,0.4v9.6c0,0.2-0.2,0.4-0.4,0.4H90c-0.2,0-0.4-0.2-0.4-0.4V119
				C89.6,118.8,89.7,118.6,90,118.6z"/>
			<path class="st11" d="M103.5,118.6h9.6c0.2,0,0.4,0.2,0.4,0.4v9.6c0,0.2-0.2,0.4-0.4,0.4h-9.6c-0.2,0-0.4-0.2-0.4-0.4V119
				C103.1,118.8,103.2,118.6,103.5,118.6z"/>
			<path class="st11" d="M62.9,132.1h9.6c0.2,0,0.4,0.2,0.4,0.4v9.6c0,0.2-0.2,0.4-0.4,0.4h-9.6c-0.2,0-0.4-0.2-0.4-0.4v-9.6
				C62.5,132.3,62.7,132.1,62.9,132.1z"/>
			<path class="st11" d="M76.4,132.1h9.6c0.2,0,0.4,0.2,0.4,0.4v9.6c0,0.2-0.2,0.4-0.4,0.4h-9.6c-0.2,0-0.4-0.2-0.4-0.4v-9.6
				C76,132.3,76.2,132.1,76.4,132.1z"/>
			<path class="st11" d="M90,132.1h9.6c0.2,0,0.4,0.2,0.4,0.4v9.6c0,0.2-0.2,0.4-0.4,0.4H90c-0.2,0-0.4-0.2-0.4-0.4v-9.6
				C89.6,132.3,89.7,132.1,90,132.1z"/>
			<path class="st11" d="M103.5,132.1h9.6c0.2,0,0.4,0.2,0.4,0.4v9.6c0,0.2-0.2,0.4-0.4,0.4h-9.6c-0.2,0-0.4-0.2-0.4-0.4v-9.6
				C103.1,132.3,103.2,132.1,103.5,132.1z"/>
			<path class="st11" d="M62.9,145.6h9.6c0.2,0,0.4,0.2,0.4,0.4v9.6c0,0.2-0.2,0.4-0.4,0.4h-9.6c-0.2,0-0.4-0.2-0.4-0.4V146
				C62.5,145.8,62.7,145.6,62.9,145.6z"/>
			<path class="st11" d="M76.4,145.6h9.6c0.2,0,0.4,0.2,0.4,0.4v9.6c0,0.2-0.2,0.4-0.4,0.4h-9.6c-0.2,0-0.4-0.2-0.4-0.4V146
				C76,145.8,76.2,145.6,76.4,145.6z"/>
			<path class="st11" d="M90,145.6h9.6c0.2,0,0.4,0.2,0.4,0.4v9.6c0,0.2-0.2,0.4-0.4,0.4H90c-0.2,0-0.4-0.2-0.4-0.4V146
				C89.6,145.8,89.7,145.6,90,145.6z"/>
			<path class="st11" d="M103.5,145.6h9.6c0.2,0,0.4,0.2,0.4,0.4v9.6c0,0.2-0.2,0.4-0.4,0.4h-9.6c-0.2,0-0.4-0.2-0.4-0.4V146
				C103.1,145.8,103.2,145.6,103.5,145.6z"/>
			<path class="st11" d="M62.9,159.1h9.6c0.2,0,0.4,0.2,0.4,0.4v9.6c0,0.2-0.2,0.4-0.4,0.4h-9.6c-0.2,0-0.4-0.2-0.4-0.4v-9.6
				C62.5,159.3,62.7,159.1,62.9,159.1z"/>
			<path class="st11" d="M76.4,159.1h9.6c0.2,0,0.4,0.2,0.4,0.4v9.6c0,0.2-0.2,0.4-0.4,0.4h-9.6c-0.2,0-0.4-0.2-0.4-0.4v-9.6
				C76,159.3,76.2,159.1,76.4,159.1z"/>
			<path class="st11" d="M90,159.1h9.6c0.2,0,0.4,0.2,0.4,0.4v9.6c0,0.2-0.2,0.4-0.4,0.4H90c-0.2,0-0.4-0.2-0.4-0.4v-9.6
				C89.6,159.3,89.7,159.1,90,159.1z"/>
			<path class="st11" d="M103.5,159.1h9.6c0.2,0,0.4,0.2,0.4,0.4v9.6c0,0.2-0.2,0.4-0.4,0.4h-9.6c-0.2,0-0.4-0.2-0.4-0.4v-9.6
				C103.1,159.3,103.2,159.1,103.5,159.1z"/>
			<path class="st7" d="M204.9,104.4h20.9c1.7,0,3,1.3,3,3v0.6c0,1.7-1.3,3-3,3h-20.9l0,0V104.4L204.9,104.4z"/>
			<circle class="st6" cx="185.6" cy="107.7" r="30.1"/>
			<circle class="st12" cx="185.6" cy="107.7" r="26.7"/>
			<circle class="st13" cx="177.3" cy="103.7" r="2.2"/>
			<circle class="st13" cx="194.1" cy="115.1" r="1.1"/>
			<circle class="st13" cx="171.9" cy="119.1" r="1.8"/>
			<circle class="st13" cx="185.4" cy="126.3" r="0.9"/>
			<circle class="st13" cx="194.6" cy="86" r="1.2"/>
			<g class="st8">
				<path class="st2" d="M114.5,200.9l-46.6-32.2c-1.3-0.9-1.7-2.7-0.7-4.1L99.4,118c0.9-1.3,2.7-1.7,4.1-0.7l46.6,32.2
					c1.3,0.9,1.7,2.7,0.7,4.1l-32.2,46.6C117.7,201.5,115.9,201.8,114.5,200.9z"/>
				<path class="st2" d="M147.5,153.6l-30,43.4c-0.7,1-2.1,1.2-3.1,0.6l-43.4-30c-1-0.7-1.2-2.1-0.6-3.1l30-43.4
					c0.7-1,2.1-1.2,3.1-0.6l43.4,30C148,151.3,148.2,152.6,147.5,153.6z"/>
				<path class="st2" d="M144.3,153l-5.5,7.9c-0.1,0.2-0.4,0.2-0.6,0.1l-7.9-5.5c-0.2-0.1-0.2-0.4-0.1-0.6l5.5-7.9
					c0.1-0.2,0.4-0.2,0.6-0.1l7.9,5.5C144.3,152.5,144.4,152.8,144.3,153z"/>
				<path class="st2" d="M136.6,164.1l-5.5,7.9c-0.1,0.2-0.4,0.2-0.6,0.1l-7.9-5.5c-0.2-0.1-0.2-0.4-0.1-0.6l5.5-7.9
					c0.1-0.2,0.4-0.2,0.6-0.1l7.9,5.5C136.7,163.6,136.7,163.9,136.6,164.1z"/>
				<path class="st2" d="M128.9,175.2l-5.5,7.9c-0.1,0.2-0.4,0.2-0.6,0.1l-7.9-5.5c-0.2-0.1-0.2-0.4-0.1-0.6l5.5-7.9
					c0.1-0.2,0.4-0.2,0.6-0.1l7.9,5.5C129,174.7,129,175,128.9,175.2z"/>
				<path class="st2" d="M121.2,186.3l-5.5,7.9c-0.1,0.2-0.4,0.2-0.6,0.1l-7.9-5.5c-0.2-0.1-0.2-0.4-0.1-0.6l5.5-7.9
					c0.1-0.2,0.4-0.2,0.6-0.1l7.9,5.5C121.3,185.8,121.3,186.1,121.2,186.3z"/>
				<path class="st2" d="M133.1,145.3l-5.5,7.9c-0.1,0.2-0.4,0.2-0.6,0.1l-7.9-5.5c-0.2-0.1-0.2-0.4-0.1-0.6l5.5-7.9
					c0.1-0.2,0.4-0.2,0.6-0.1l7.9,5.5C133.2,144.8,133.3,145.1,133.1,145.3z"/>
				<path class="st2" d="M125.5,156.4l-5.5,7.9c-0.1,0.2-0.4,0.2-0.6,0.1l-7.9-5.5c-0.2-0.1-0.2-0.4-0.1-0.6l5.5-7.9
					c0.1-0.2,0.4-0.2,0.6-0.1l7.9,5.5C125.5,155.9,125.6,156.2,125.5,156.4z"/>
				<path class="st2" d="M117.8,167.5l-5.5,7.9c-0.1,0.2-0.4,0.2-0.6,0.1l-7.9-5.5c-0.2-0.1-0.2-0.4-0.1-0.6l5.5-7.9
					c0.1-0.2,0.4-0.2,0.6-0.1l7.9,5.5C117.9,167.1,117.9,167.3,117.8,167.5z"/>
				<path class="st2" d="M110.1,178.6l-5.5,7.9c-0.1,0.2-0.4,0.2-0.6,0.1l-7.9-5.5c-0.2-0.1-0.2-0.4-0.1-0.6l5.5-7.9
					c0.1-0.2,0.4-0.2,0.6-0.1l7.9,5.5C110.2,178.2,110.2,178.4,110.1,178.6z"/>
				<path class="st2" d="M122,137.6l-5.5,7.9c-0.1,0.2-0.4,0.2-0.6,0.1l-7.9-5.5c-0.2-0.1-0.2-0.4-0.1-0.6l5.5-7.9
					c0.1-0.2,0.4-0.2,0.6-0.1l7.9,5.5C122.1,137.1,122.2,137.4,122,137.6z"/>
				<path class="st2" d="M114.3,148.7l-5.5,7.9c-0.1,0.2-0.4,0.2-0.6,0.1l-7.9-5.5c-0.2-0.1-0.2-0.4-0.1-0.6l5.5-7.9
					c0.1-0.2,0.4-0.2,0.6-0.1l7.9,5.5C114.4,148.3,114.5,148.5,114.3,148.7z"/>
				<path class="st2" d="M106.7,159.8l-5.5,7.9c-0.1,0.2-0.4,0.2-0.6,0.1l-7.9-5.5c-0.2-0.1-0.2-0.4-0.1-0.6l5.5-7.9
					c0.1-0.2,0.4-0.2,0.6-0.1l7.9,5.5C106.7,159.4,106.8,159.6,106.7,159.8z"/>
				<path class="st2" d="M99,170.9l-5.5,7.9c-0.1,0.2-0.4,0.2-0.6,0.1l-7.9-5.5c-0.2-0.1-0.2-0.4-0.1-0.6l5.5-7.9
					c0.1-0.2,0.4-0.2,0.6-0.1l7.9,5.5C99.1,170.5,99.1,170.7,99,170.9z"/>
				<path class="st2" d="M110.9,129.9l-5.5,7.9c-0.1,0.2-0.4,0.2-0.6,0.1l-7.9-5.5c-0.2-0.1-0.2-0.4-0.1-0.6l5.5-7.9
					c0.1-0.2,0.4-0.2,0.6-0.1l7.9,5.5C111,129.5,111.1,129.7,110.9,129.9z"/>
				<path class="st2" d="M103.2,141l-5.5,7.9c-0.1,0.2-0.4,0.2-0.6,0.1l-7.9-5.5c-0.2-0.1-0.2-0.4-0.1-0.6l5.5-7.9
					c0.1-0.2,0.4-0.2,0.6-0.1l7.9,5.5C103.3,140.6,103.4,140.8,103.2,141z"/>
				<path class="st2" d="M95.5,152.1l-5.5,7.9c-0.1,0.2-0.4,0.2-0.6,0.1l-7.9-5.5c-0.2-0.1-0.2-0.4-0.1-0.6l5.5-7.9
					c0.1-0.2,0.4-0.2,0.6-0.1l7.9,5.5C95.6,151.7,95.7,151.9,95.5,152.1z"/>
				<path class="st2" d="M87.9,163.2l-5.5,7.9c-0.1,0.2-0.4,0.2-0.6,0.1l-7.9-5.5c-0.2-0.1-0.2-0.4-0.1-0.6l5.5-7.9
					c0.1-0.2,0.4-0.2,0.6-0.1l7.9,5.5C87.9,162.8,88,163,87.9,163.2z"/>
			</g>
			<path class="st9" d="M111.5,197.9l-46.6-32.2c-1.3-0.9-1.7-2.7-0.7-4.1L96.4,115c0.9-1.3,2.7-1.7,4.1-0.7l46.6,32.2
				c1.3,0.9,1.7,2.7,0.7,4.1l-32.2,46.6C114.7,198.5,112.9,198.8,111.5,197.9z"/>
			<path class="st10" d="M144.5,150.6l-30,43.4c-0.7,1-2.1,1.2-3.1,0.6l-43.4-30c-1-0.7-1.2-2.1-0.6-3.1l30-43.4
				c0.7-1,2.1-1.2,3.1-0.6l43.4,30C145,148.3,145.2,149.6,144.5,150.6z"/>
			<path class="st11" d="M141.3,149.9l-5.5,7.9c-0.1,0.2-0.4,0.2-0.6,0.1l-7.9-5.5c-0.2-0.1-0.2-0.4-0.1-0.6l5.5-7.9
				c0.1-0.2,0.4-0.2,0.6-0.1l7.9,5.5C141.3,149.5,141.4,149.8,141.3,149.9z"/>
			<path class="st11" d="M133.6,161.1l-5.5,7.9c-0.1,0.2-0.4,0.2-0.6,0.1l-7.9-5.5c-0.2-0.1-0.2-0.4-0.1-0.6l5.5-7.9
				c0.1-0.2,0.4-0.2,0.6-0.1l7.9,5.5C133.7,160.6,133.7,160.9,133.6,161.1z"/>
			<path class="st11" d="M125.9,172.2l-5.5,7.9c-0.1,0.2-0.4,0.2-0.6,0.1l-7.9-5.5c-0.2-0.1-0.2-0.4-0.1-0.6l5.5-7.9
				c0.1-0.2,0.4-0.2,0.6-0.1l7.9,5.5C126,171.7,126,172,125.9,172.2z"/>
			<path class="st11" d="M118.2,183.3l-5.5,7.9c-0.1,0.2-0.4,0.2-0.6,0.1l-7.9-5.5c-0.2-0.1-0.2-0.4-0.1-0.6l5.5-7.9
				c0.1-0.2,0.4-0.2,0.6-0.1l7.9,5.5C118.3,182.8,118.3,183.1,118.2,183.3z"/>
			<path class="st11" d="M130.1,142.3l-5.5,7.9c-0.1,0.2-0.4,0.2-0.6,0.1l-7.9-5.5c-0.2-0.1-0.2-0.4-0.1-0.6l5.5-7.9
				c0.1-0.2,0.4-0.2,0.6-0.1l7.9,5.5C130.2,141.8,130.3,142.1,130.1,142.3z"/>
			<path class="st11" d="M122.5,153.4l-5.5,7.9c-0.1,0.2-0.4,0.2-0.6,0.1l-7.9-5.5c-0.2-0.1-0.2-0.4-0.1-0.6l5.5-7.9
				c0.1-0.2,0.4-0.2,0.6-0.1l7.9,5.5C122.5,152.9,122.6,153.2,122.5,153.4z"/>
			<path class="st11" d="M114.8,164.5l-5.5,7.9c-0.1,0.2-0.4,0.2-0.6,0.1l-7.9-5.5c-0.2-0.1-0.2-0.4-0.1-0.6l5.5-7.9
				c0.1-0.2,0.4-0.2,0.6-0.1l7.9,5.5C114.9,164.1,114.9,164.3,114.8,164.5z"/>
			<path class="st11" d="M107.1,175.6l-5.5,7.9c-0.1,0.2-0.4,0.2-0.6,0.1l-7.9-5.5c-0.2-0.1-0.2-0.4-0.1-0.6l5.5-7.9
				c0.1-0.2,0.4-0.2,0.6-0.1l7.9,5.5C107.2,175.2,107.2,175.4,107.1,175.6z"/>
			<path class="st11" d="M119,134.6l-5.5,7.9c-0.1,0.2-0.4,0.2-0.6,0.1l-7.9-5.5c-0.2-0.1-0.2-0.4-0.1-0.6l5.5-7.9
				c0.1-0.2,0.4-0.2,0.6-0.1l7.9,5.5C119.1,134.1,119.2,134.4,119,134.6z"/>
			<path class="st11" d="M111.3,145.7l-5.5,7.9c-0.1,0.2-0.4,0.2-0.6,0.1l-7.9-5.5c-0.2-0.1-0.2-0.4-0.1-0.6l5.5-7.9
				c0.1-0.2,0.4-0.2,0.6-0.1l7.9,5.5C111.4,145.3,111.5,145.5,111.3,145.7z"/>
			<path class="st11" d="M103.7,156.8l-5.5,7.9c-0.1,0.2-0.4,0.2-0.6,0.1l-7.9-5.5c-0.2-0.1-0.2-0.4-0.1-0.6l5.5-7.9
				c0.1-0.2,0.4-0.2,0.6-0.1l7.9,5.5C103.7,156.4,103.8,156.6,103.7,156.8z"/>
			<path class="st11" d="M96,167.9l-5.5,7.9c-0.1,0.2-0.4,0.2-0.6,0.1l-7.9-5.5c-0.2-0.1-0.2-0.4-0.1-0.6l5.5-7.9
				c0.1-0.2,0.4-0.2,0.6-0.1l7.9,5.5C96,167.5,96.1,167.7,96,167.9z"/>
			<path class="st11" d="M107.9,126.9l-5.5,7.9c-0.1,0.2-0.4,0.2-0.6,0.1l-7.9-5.5c-0.2-0.1-0.2-0.4-0.1-0.6l5.5-7.9
				c0.1-0.2,0.4-0.2,0.6-0.1l7.9,5.5C108,126.5,108,126.7,107.9,126.9z"/>
			<path class="st11" d="M100.2,138l-5.5,7.9c-0.1,0.2-0.4,0.2-0.6,0.1l-7.9-5.5c-0.2-0.1-0.2-0.4-0.1-0.6l5.5-7.9
				c0.1-0.2,0.4-0.2,0.6-0.1l7.9,5.5C100.3,137.6,100.4,137.8,100.2,138z"/>
			<path class="st11" d="M92.6,149.1l-5.5,7.9c-0.1,0.2-0.4,0.2-0.6,0.1l-7.9-5.5c-0.2-0.1-0.2-0.4-0.1-0.6l5.5-7.9
				c0.1-0.2,0.4-0.2,0.6-0.1l7.9,5.5C92.6,148.7,92.7,148.9,92.6,149.1z"/>
			<path class="st11" d="M84.9,160.2l-5.5,7.9c-0.1,0.2-0.4,0.2-0.6,0.1l-7.9-5.5c-0.2-0.1-0.2-0.4-0.1-0.6l5.5-7.9
				c0.1-0.2,0.4-0.2,0.6-0.1l7.9,5.5C84.9,159.8,85,160,84.9,160.2z"/>
		</g>
	</g>
</g>
</svg>
