<svg xmlns="http://www.w3.org/2000/svg" viewBox="0 0 257 257"><defs><style>.cls-1{isolation:isolate;}.cls-2{fill:#333333;}.cls-11,.cls-15,.cls-17,.cls-3,.cls-6{opacity:0.2;}.cls-10,.cls-11,.cls-4,.cls-6,.cls-7,.cls-8,.cls-9{fill:#534741;}.cls-10,.cls-22,.cls-5{opacity:0.1;}.cls-10,.cls-15,.cls-18,.cls-20,.cls-22,.cls-6,.cls-7,.cls-9{mix-blend-mode:multiply;}.cls-18,.cls-7{opacity:0.28;}.cls-19,.cls-8{opacity:0.4;}.cls-11,.cls-17,.cls-19,.cls-8{mix-blend-mode:screen;}.cls-20,.cls-9{opacity:0.3;}.cls-12{fill:#f2f4ef;}.cls-13{fill:#e6eae1;}.cls-14,.cls-15{fill:#f4ae69;}.cls-16,.cls-17,.cls-19{fill:#3f2a08;}.cls-18,.cls-20,.cls-22{fill:#ef6060;}.cls-21{fill:#f7d166;}.cls-23{fill:#dd3c3c;}.cls-24{fill:#8e5442;}.cls-25{fill:#3963e5;}.cls-26{fill:#fff;}.cls-27{fill:#69c5ed;}.cls-28{fill:#f95b30;}.cls-29{fill:#804de2;}.cls-30{fill:#aec95b;}.cls-31{fill:#efca30;}</style></defs><title>doughnut</title><g class="cls-1"><g id="Layer_2" data-name="Layer 2"><g id="Layer_1-2" data-name="Layer 1"><circle class="cls-2" cx="128.5" cy="128.5" r="128.5"/><g class="cls-3"><circle class="cls-4" cx="134.5" cy="133.5" r="83.09"/><circle class="cls-4" cx="134.5" cy="133.5" r="58.26"/><g class="cls-5"><path class="cls-4" d="M139,88.23a51.68,51.68,0,0,0-37.56,87.15l1.36,1.39,0,0c.46.46.93.9,1.43,1.33a51.65,51.65,0,0,0,69,.41c.5-.44,1-.89,1.46-1.35h0c.47-.46.93-.92,1.36-1.38A51.66,51.66,0,0,0,139,88.23Zm-19.22,50.68a4.22,4.22,0,0,1,0-.52,16.43,16.43,0,0,1,.46-2.93,6.88,6.88,0,0,1,.28-1,16.81,16.81,0,0,1,1.09-2.87.35.35,0,0,0,0-.08,9.49,9.49,0,0,1,.63-1.18,17.28,17.28,0,0,1,2.33-3.22,19.47,19.47,0,0,1,2.92-2.68,11.21,11.21,0,0,1,1.07-.73,16.39,16.39,0,0,1,2-1.12c.25-.13.5-.25.74-.35a18.34,18.34,0,0,1,3-1l.69-.16c.38-.08.75-.15,1.13-.2a8.83,8.83,0,0,1,1-.11,4,4,0,0,1,.69,0c.34,0,.69,0,1,0,.59,0,1.18,0,1.76.08.37,0,.75.08,1.11.13l.87.15.22,0a8.64,8.64,0,0,1,.85.19c.31.08.62.17.92.27a16.28,16.28,0,0,1,1.62.57c.66.28,1.3.59,1.91.92a18.89,18.89,0,0,1,4.36,3.28c.43.43.86.89,1.25,1.36.2.25.38.48.56.73s.37.5.54.75c.36.54.7,1.1,1,1.66.13.24.26.51.39.77s.23.47.33.7a19.19,19.19,0,0,1,1.2,3.86,5.42,5.42,0,0,1,.13.79c0,.26.08.51.12.77v0c0,.24.05.47.06.72a4,4,0,0,1,0,.49c0,.33,0,.66,0,1s0,.72,0,1.08a1.36,1.36,0,0,1,0,.29,3.6,3.6,0,0,1,0,.66,18.9,18.9,0,0,1-3.26,8.86c-.15.22-.3.43-.46.64a18.31,18.31,0,0,1-2.94,3.15c-.18.15-.36.3-.54.43a18.73,18.73,0,0,1-4.93,2.84l-.6.23-.69.23c-.23.06-.46.15-.71.2s-.75.19-1.13.27-.64.12-.95.17-.82.11-1.25.15-1.11.08-1.69.08a15.56,15.56,0,0,1-1.67-.08c-.43,0-.84-.09-1.27-.15s-.62-.1-.93-.17-.77-.16-1.15-.27c-.23,0-.48-.14-.71-.2l-.67-.23-.61-.23a19.16,19.16,0,0,1-5.28-3.1l-.64-.58a6.7,6.7,0,0,1-.67-.64,11.79,11.79,0,0,1-1.25-1.38l-.51-.62c-.38-.52-.75-1.07-1.1-1.64-.16-.26-.31-.53-.46-.8a18.83,18.83,0,0,1-1.94-5.32,14.32,14.32,0,0,1-.27-1.84,3.6,3.6,0,0,1-.05-.66,1.35,1.35,0,0,1,0-.29c0-.36,0-.72,0-1.08S119.8,139.24,119.81,138.91Z"/><path class="cls-6" d="M119.81,138.91a4.22,4.22,0,0,1,0-.52c0-.31.06-.6.1-.9a19.58,19.58,0,0,1,.36-2c.08-.34.18-.68.28-1a11.11,11.11,0,0,1,.37-1.11c.07-.22.15-.43.24-.64.15-.38.31-.76.48-1.12a.35.35,0,0,0,0-.08c.2-.4.41-.81.63-1.18a20.17,20.17,0,0,1,2.33-3.22,19.47,19.47,0,0,1,2.92-2.68,11.21,11.21,0,0,1,1.07-.73,16.39,16.39,0,0,1,2-1.12c.25-.13.5-.25.74-.35a18.34,18.34,0,0,1,3-1l.69-.16c.38-.08.75-.15,1.13-.2a8.83,8.83,0,0,1,1-.11,4,4,0,0,1,.69,0c.34,0,.69,0,1,0,.59,0,1.18,0,1.76.08.37,0,.75.08,1.11.13a6.33,6.33,0,0,1,.87.15l.22,0a8.64,8.64,0,0,1,.85.19c.31.08.62.17.92.27a16.28,16.28,0,0,1,1.62.57c.66.28,1.3.59,1.91.92a18.89,18.89,0,0,1,4.36,3.28c.43.43.86.89,1.25,1.36.2.25.38.48.56.73s.37.5.54.75c.36.54.7,1.1,1,1.66.13.24.26.51.39.77s.23.47.33.7a19.19,19.19,0,0,1,1.2,3.86,5.42,5.42,0,0,1,.13.79c0,.26.08.51.12.77v0q0,.35.06.72a4,4,0,0,1,0,.49c0,.33,0,.66,0,1s0,.72,0,1.08a1.36,1.36,0,0,1,0,.29,3.74,3.74,0,0,1,0,.66,18.9,18.9,0,0,1-3.26,8.86c-.15.22-.3.43-.46.64a18.31,18.31,0,0,1-2.94,3.15c-.18.15-.36.3-.54.43a18.73,18.73,0,0,1-4.93,2.84c-.19.08-.39.16-.6.23l-.69.23c-.23.06-.46.15-.71.2s-.75.19-1.13.27-.64.12-.95.17-.82.11-1.25.15-1.11.08-1.69.08a15.56,15.56,0,0,1-1.67-.08c-.43,0-.84-.09-1.27-.15s-.62-.1-.93-.17-.77-.16-1.15-.27c-.23,0-.48-.14-.71-.2l-.67-.23-.61-.23a19.16,19.16,0,0,1-5.28-3.1l-.64-.58a6.7,6.7,0,0,1-.67-.64,11.79,11.79,0,0,1-1.25-1.38l-.51-.62c-.38-.52-.75-1.07-1.1-1.64-.16-.26-.31-.53-.46-.8a18.83,18.83,0,0,1-1.94-5.32,16.32,16.32,0,0,1-.27-1.84,3.74,3.74,0,0,1-.05-.66,1.35,1.35,0,0,1,0-.29c0-.36,0-.72,0-1.08S119.8,139.24,119.81,138.91Z"/><path class="cls-7" d="M158.2,136.7c0,.33,0,.65,0,1a19.25,19.25,0,0,0-38.23-.08,8.72,8.72,0,0,1,0-.89,19.15,19.15,0,1,1,38.3,0Z"/><ellipse class="cls-8" cx="153.19" cy="97.02" rx="4.91" ry="17.41" transform="translate(12.33 211.21) rotate(-71.38)"/><path class="cls-9" d="M140.13,177.86a.82.82,0,0,1-.47-.15.8.8,0,0,1-.18-1.12l1.22-1.68a.81.81,0,0,1,1.12-.17.8.8,0,0,1,.18,1.12l-1.22,1.67A.79.79,0,0,1,140.13,177.86Z"/><path class="cls-4" d="M141.2,175.4,140,177.06a.81.81,0,0,1-.64.34.86.86,0,0,1-.48-.16.83.83,0,0,1-.29-.43.76.76,0,0,1,.13-.69l1.21-1.67a.8.8,0,0,1,.69-.34,1,1,0,0,1,.44.16A.81.81,0,0,1,141.2,175.4Z"/><path class="cls-10" d="M140.49,174.8l-1.22,1.67a.8.8,0,0,1-.65.34h-.05a.76.76,0,0,1,.13-.69l1.21-1.67a.8.8,0,0,1,.69-.34A.77.77,0,0,1,140.49,174.8Z"/><path class="cls-9" d="M149.46,163.5a.8.8,0,0,1-1.41.24l-1.24-1.65A.81.81,0,0,1,147,161a.79.79,0,0,1,1.12.16l1.25,1.65A.81.81,0,0,1,149.46,163.5Z"/><path class="cls-4" d="M147.42,161.76l1.23,1.65a.8.8,0,0,1,.14.71,1,1,0,0,1-.29.41.86.86,0,0,1-.5.15.75.75,0,0,1-.62-.32l-1.24-1.65A.79.79,0,0,1,146,162a1,1,0,0,1,.28-.37A.8.8,0,0,1,147.42,161.76Z"/><path class="cls-10" d="M146.64,162.26l1.24,1.65a.78.78,0,0,1,.13.73v0a.75.75,0,0,1-.62-.32l-1.24-1.65a.41.41,0,1,1,.5-.45Z"/><path class="cls-9" d="M96.19,142.6a.84.84,0,0,1-.29.41.81.81,0,0,1-1.12-.16l-1.24-1.66a.8.8,0,1,1,1.28-1l1.24,1.65A.82.82,0,0,1,96.19,142.6Z"/><path class="cls-4" d="M94.14,140.86l1.24,1.65a.8.8,0,0,1,.14.71.89.89,0,0,1-.3.42.91.91,0,0,1-.49.15.8.8,0,0,1-.63-.33l-1.23-1.65a.76.76,0,0,1-.12-.76.81.81,0,0,1,.28-.36A.77.77,0,0,1,94.14,140.86Z"/><path class="cls-10" d="M93.37,141.36,94.61,143a.8.8,0,0,1,.13.73v0a.8.8,0,0,1-.63-.33l-1.23-1.65a.76.76,0,0,1-.12-.76A.83.83,0,0,1,93.37,141.36Z"/><path class="cls-9" d="M160.25,165.51a.77.77,0,0,1-.26-.42.81.81,0,0,1,.59-1l2-.48a.8.8,0,1,1,.38,1.55l-2,.49A.81.81,0,0,1,160.25,165.51Z"/><path class="cls-4" d="M162.66,164.32l-2,.48a.81.81,0,0,1-.71-.15,1,1,0,0,1-.26-.44.82.82,0,0,1,.6-1l2-.48a.78.78,0,0,1,.75.19,1,1,0,0,1,.22.41A.79.79,0,0,1,162.66,164.32Z"/><path class="cls-10" d="M162.5,163.42l-2,.48a.83.83,0,0,1-.72-.17l0,0a.79.79,0,0,1,.54-.45l2-.48a.78.78,0,0,1,.75.19A.83.83,0,0,1,162.5,163.42Z"/><path class="cls-9" d="M180.47,161.41a.81.81,0,0,1-1.22-.75l.17-2.07a.8.8,0,1,1,1.6.14l-.17,2.06A.81.81,0,0,1,180.47,161.41Z"/><path class="cls-4" d="M180.1,158.75l-.18,2.06a.79.79,0,0,1-.37.62.91.91,0,0,1-.49.11.86.86,0,0,1-.47-.22.74.74,0,0,1-.25-.65l.17-2.06a.76.76,0,0,1,.41-.65,1,1,0,0,1,.45-.09A.8.8,0,0,1,180.1,158.75Z"/><path class="cls-10" d="M179.18,158.61l-.17,2.06a.8.8,0,0,1-.38.63l0,0a.74.74,0,0,1-.25-.65l.17-2.06a.76.76,0,0,1,.41-.65A.82.82,0,0,1,179.18,158.61Z"/><path class="cls-9" d="M187.28,151.94a.74.74,0,0,1-.47-.16.8.8,0,0,1-.17-1.12l1.23-1.66a.79.79,0,0,1,1.12-.17.81.81,0,0,1,.17,1.12l-1.23,1.66A.79.79,0,0,1,187.28,151.94Z"/><path class="cls-4" d="M188.36,149.48l-1.23,1.66a.76.76,0,0,1-.64.33.86.86,0,0,1-.48-.16.83.83,0,0,1-.29-.43.79.79,0,0,1,.13-.69l1.23-1.66a.79.79,0,0,1,1.12-.17A.8.8,0,0,1,188.36,149.48Z"/><path class="cls-10" d="M187.66,148.88l-1.23,1.66a.78.78,0,0,1-.66.34h-.05a.79.79,0,0,1,.13-.69l1.23-1.66a.76.76,0,0,1,.69-.33A.83.83,0,0,1,187.66,148.88Z"/><path class="cls-9" d="M93.21,161.68a.78.78,0,0,1-.47-.16.8.8,0,0,1-.16-1.12l1.22-1.66a.8.8,0,1,1,1.29.95l-1.23,1.66A.78.78,0,0,1,93.21,161.68Z"/><path class="cls-4" d="M94.29,159.22l-1.22,1.66a.79.79,0,0,1-.65.33.89.89,0,0,1-.48-.16.87.87,0,0,1-.28-.43.79.79,0,0,1,.13-.69L93,158.27a.75.75,0,0,1,.69-.33.81.81,0,0,1,.43.16A.79.79,0,0,1,94.29,159.22Z"/><path class="cls-10" d="M93.59,158.62l-1.22,1.66a.81.81,0,0,1-.66.34h0a.79.79,0,0,1,.13-.69L93,158.27a.75.75,0,0,1,.69-.33A.8.8,0,0,1,93.59,158.62Z"/><path class="cls-9" d="M127.62,161.39a.81.81,0,0,1,.77-1.21l2.06.2a.8.8,0,0,1-.15,1.59l-2.06-.19A.83.83,0,0,1,127.62,161.39Z"/><path class="cls-4" d="M130.29,161.05l-2.06-.2a.83.83,0,0,1-.62-.38.88.88,0,0,1-.1-.49.86.86,0,0,1,.22-.47.78.78,0,0,1,.66-.24l2.05.19a.76.76,0,0,1,.64.42,1,1,0,0,1,.09.45A.8.8,0,0,1,130.29,161.05Z"/><path class="cls-10" d="M130.43,160.14l-2.05-.2a.81.81,0,0,1-.63-.39l0,0a.78.78,0,0,1,.66-.24l2.05.19a.76.76,0,0,1,.64.42A.84.84,0,0,1,130.43,160.14Z"/><path class="cls-9" d="M117.9,161.84a.84.84,0,0,1-.49-.06.81.81,0,0,1-.37-1.08l.91-1.86a.8.8,0,0,1,1.44.71l-.91,1.86A.79.79,0,0,1,117.9,161.84Z"/><path class="cls-4" d="M118.52,159.23l-.91,1.86a.81.81,0,0,1-.57.44.88.88,0,0,1-.5-.07.82.82,0,0,1-.36-.38.75.75,0,0,1,0-.7l.91-1.85a.79.79,0,0,1,.62-.46.89.89,0,0,1,.45.09A.78.78,0,0,1,118.52,159.23Z"/><path class="cls-10" d="M117.72,158.77l-.91,1.86a.76.76,0,0,1-.59.44h0a.75.75,0,0,1,0-.7l.91-1.85a.79.79,0,0,1,.62-.46A.82.82,0,0,1,117.72,158.77Z"/><path class="cls-9" d="M162.56,142.51a1,1,0,0,1-.5-.07.81.81,0,0,1-.36-1.08l.91-1.85a.79.79,0,0,1,1.07-.37.81.81,0,0,1,.37,1.07l-.91,1.86A.83.83,0,0,1,162.56,142.51Z"/><path class="cls-4" d="M163.18,139.89l-.91,1.86a.81.81,0,0,1-.58.44.89.89,0,0,1-.5-.07.94.94,0,0,1-.36-.38.78.78,0,0,1,0-.7l.91-1.85a.75.75,0,0,1,.62-.45.9.9,0,0,1,.45.08A.79.79,0,0,1,163.18,139.89Z"/><path class="cls-10" d="M162.38,139.43l-.91,1.86a.78.78,0,0,1-.59.44h0a.78.78,0,0,1,0-.7l.91-1.85a.75.75,0,0,1,.62-.45A.83.83,0,0,1,162.38,139.43Z"/><path class="cls-9" d="M106.13,158.28a.77.77,0,0,1-.5.07.8.8,0,0,1-.65-.92l.36-2a.8.8,0,0,1,1.58.27l-.36,2A.79.79,0,0,1,106.13,158.28Z"/><path class="cls-4" d="M106,155.6l-.36,2a.8.8,0,0,1-.43.58.93.93,0,0,1-.5.07.88.88,0,0,1-.45-.26.78.78,0,0,1-.19-.68l.36-2a.77.77,0,0,1,.47-.61.89.89,0,0,1,.46,0A.79.79,0,0,1,106,155.6Z"/><path class="cls-10" d="M105.1,155.38l-.36,2a.79.79,0,0,1-.44.6l0,0a.78.78,0,0,1-.19-.68l.36-2a.77.77,0,0,1,.47-.61A.81.81,0,0,1,105.1,155.38Z"/><path class="cls-9" d="M100.49,168.34a.84.84,0,0,1,.35-.35.79.79,0,0,1,1.08.34l1,1.85a.8.8,0,0,1-1.43.73l-.94-1.85A.77.77,0,0,1,100.49,168.34Z"/><path class="cls-4" d="M102.21,170.4l-.94-1.84a.79.79,0,0,1,0-.72.89.89,0,0,1,.36-.36.86.86,0,0,1,.52-.06.73.73,0,0,1,.55.42l.94,1.84a.76.76,0,0,1,0,.77.83.83,0,0,1-.33.31A.8.8,0,0,1,102.21,170.4Z"/><path class="cls-10" d="M103.06,170l-.94-1.84a.78.78,0,0,1,0-.74l0,0a.73.73,0,0,1,.55.42l.94,1.84a.76.76,0,0,1,0,.77A.85.85,0,0,1,103.06,170Z"/><path class="cls-9" d="M173.79,145.72a.74.74,0,0,1,.45.2.79.79,0,0,1,.07,1.13L173,148.6a.8.8,0,0,1-1.13.07.8.8,0,0,1-.08-1.13l1.37-1.55A.82.82,0,0,1,173.79,145.72Z"/><path class="cls-4" d="M172.5,148.08l1.36-1.55a.81.81,0,0,1,.67-.28.89.89,0,0,1,.47.2,1,1,0,0,1,.25.46.8.8,0,0,1-.19.67l-1.37,1.55a.75.75,0,0,1-.71.28.86.86,0,0,1-.42-.2A.79.79,0,0,1,172.5,148.08Z"/><path class="cls-10" d="M173.15,148.73l1.36-1.55a.77.77,0,0,1,.69-.27h.05a.8.8,0,0,1-.19.67l-1.37,1.55a.75.75,0,0,1-.71.28A.82.82,0,0,1,173.15,148.73Z"/><path class="cls-9" d="M170.16,167.9a.93.93,0,0,1,.35-.36.81.81,0,0,1,1.08.35l.95,1.84a.81.81,0,0,1-.35,1.08.8.8,0,0,1-1.08-.35l-.94-1.84A.77.77,0,0,1,170.16,167.9Z"/><path class="cls-4" d="M171.88,170l-.94-1.84a.79.79,0,0,1,0-.72.83.83,0,0,1,.36-.36.86.86,0,0,1,.52-.06.73.73,0,0,1,.55.42l.94,1.84a.76.76,0,0,1,0,.77.83.83,0,0,1-.33.31A.8.8,0,0,1,171.88,170Z"/><path class="cls-10" d="M172.73,169.59l-.94-1.83a.78.78,0,0,1,0-.74l0,0a.73.73,0,0,1,.55.42l.94,1.84a.76.76,0,0,1,0,.77A.84.84,0,0,1,172.73,169.59Z"/><path class="cls-9" d="M156.62,155.34A.76.76,0,0,1,157,155a.81.81,0,0,1,1.08.35l.94,1.84a.8.8,0,0,1-.35,1.08.79.79,0,0,1-1.07-.35l-.95-1.84A.79.79,0,0,1,156.62,155.34Z"/><path class="cls-4" d="M158.34,157.4l-.94-1.84a.82.82,0,0,1,0-.73.87.87,0,0,1,.36-.35.91.91,0,0,1,.51-.07.78.78,0,0,1,.56.43l.94,1.84a.76.76,0,0,1,0,.76.81.81,0,0,1-.34.32A.79.79,0,0,1,158.34,157.4Z"/><path class="cls-10" d="M159.19,157l-.94-1.83a.81.81,0,0,1,0-.74l0-.05a.78.78,0,0,1,.56.43l.94,1.84a.76.76,0,0,1,0,.76A.78.78,0,0,1,159.19,157Z"/><path class="cls-9" d="M132.53,168.09a.84.84,0,0,1,.35-.35.8.8,0,0,1,1.08.35l.95,1.84a.8.8,0,0,1-1.43.73l-.94-1.84A.82.82,0,0,1,132.53,168.09Z"/><path class="cls-4" d="M134.25,170.15l-.94-1.84a.79.79,0,0,1,0-.72,1,1,0,0,1,.36-.36.86.86,0,0,1,.52-.06.79.79,0,0,1,.56.42l.94,1.84a.78.78,0,0,1,0,.77.93.93,0,0,1-.34.31A.8.8,0,0,1,134.25,170.15Z"/><path class="cls-10" d="M135.1,169.79l-.94-1.84a.78.78,0,0,1,0-.74l0,0a.79.79,0,0,1,.56.42l.94,1.84a.78.78,0,0,1,0,.77A.85.85,0,0,1,135.1,169.79Z"/><path class="cls-9" d="M112.31,146.31a.72.72,0,0,1,.45.19.8.8,0,0,1,.09,1.13l-1.34,1.57a.8.8,0,0,1-1.13.09.81.81,0,0,1-.09-1.13l1.34-1.57A.8.8,0,0,1,112.31,146.31Z"/><path class="cls-4" d="M111.06,148.68l1.34-1.57a.81.81,0,0,1,.66-.28.87.87,0,0,1,.47.19.85.85,0,0,1,.25.45.75.75,0,0,1-.18.68l-1.34,1.57a.77.77,0,0,1-.71.29.91.91,0,0,1-.42-.2A.79.79,0,0,1,111.06,148.68Z"/><path class="cls-10" d="M111.71,149.33l1.34-1.57a.81.81,0,0,1,.69-.29h0a.75.75,0,0,1-.18.68l-1.34,1.57a.77.77,0,0,1-.71.29A.84.84,0,0,1,111.71,149.33Z"/></g><path class="cls-4" d="M134.92,82.75a51.68,51.68,0,0,0-37.57,87.14c.46.48.92,1,1.37,1.4l0,.05c.46.46.93.9,1.42,1.33a51.66,51.66,0,0,0,69,.41c.49-.45,1-.89,1.46-1.35h0c.47-.46.93-.92,1.36-1.38a51.66,51.66,0,0,0-37.14-87.59ZM115.7,133.43c0-.18,0-.36,0-.53a17.43,17.43,0,0,1,.46-2.92,9.85,9.85,0,0,1,.28-1,17.72,17.72,0,0,1,1.1-2.87s0,0,.05-.09a10.25,10.25,0,0,1,.63-1.18,17.54,17.54,0,0,1,2.33-3.21,19.47,19.47,0,0,1,2.92-2.68c.34-.26.7-.51,1.06-.74a16.45,16.45,0,0,1,2-1.11c.25-.13.49-.25.74-.35a18.34,18.34,0,0,1,3-1l.69-.16a10.68,10.68,0,0,1,1.13-.2,8.6,8.6,0,0,1,1-.11,4,4,0,0,1,.69,0c.34,0,.68,0,1,0,.59,0,1.18,0,1.76.09.37,0,.75.08,1.11.13l.87.14.21,0c.28.05.58.12.86.2s.62.16.92.26c.55.17,1.1.36,1.62.58a20.89,20.89,0,0,1,1.9.92,19.16,19.16,0,0,1,4.37,3.28c.43.43.85.88,1.25,1.36l.56.72c.19.25.37.51.54.76.36.54.7,1.1,1,1.66.13.24.26.5.39.77s.23.47.33.7a19,19,0,0,1,1.2,3.86,6.85,6.85,0,0,1,.13.79c.05.26.08.51.11.77h0c0,.25,0,.48.07.73a3.91,3.91,0,0,1,0,.49c0,.33,0,.65,0,1s0,.73,0,1.09a1.5,1.5,0,0,1,0,.29,5,5,0,0,1-.05.66,18.94,18.94,0,0,1-3.26,8.86c-.15.21-.3.43-.46.64a18.31,18.31,0,0,1-2.94,3.15c-.18.15-.36.3-.54.43a18.73,18.73,0,0,1-4.93,2.84l-.6.23-.69.23c-.23.06-.46.14-.71.19s-.75.2-1.13.28-.64.12-.95.17-.82.11-1.25.14-1.12.09-1.69.09a13.25,13.25,0,0,1-1.67-.09c-.43,0-.84-.08-1.27-.14s-.62-.1-.93-.17a11.33,11.33,0,0,1-1.15-.28c-.23-.05-.48-.13-.71-.19l-.67-.23-.61-.23a19.16,19.16,0,0,1-5.28-3.1l-.64-.58c-.23-.2-.46-.41-.68-.64a14.86,14.86,0,0,1-1.24-1.38c-.17-.19-.33-.41-.51-.62-.38-.53-.76-1.07-1.1-1.64-.17-.27-.31-.53-.46-.81a18.77,18.77,0,0,1-1.94-5.31,14.34,14.34,0,0,1-.28-1.84,5,5,0,0,1,0-.66c0-.1,0-.2,0-.29,0-.36,0-.73,0-1.09S115.69,133.76,115.7,133.43Z"/><path class="cls-6" d="M134.92,82.75a51.68,51.68,0,0,0-37.57,87.14c.46.48.92,1,1.37,1.4l0,.05c.46.46.93.9,1.42,1.33a16.37,16.37,0,0,0,8.36-5.89c1.49-1.74,2.28-2.6,3.92-2.89a9,9,0,0,1,1.49-.12c1.77,0,3,1.58,5.29,5.17.32.51.64,1,1,1.51,3.15,4.79,7.12,9.22,14.69,9.22a18.52,18.52,0,0,0,7.76-1.55,24.24,24.24,0,0,0,7.85-6.06c2.56-2.66,4-4.05,6.59-4.05a9,9,0,0,1,6.24,2,20.77,20.77,0,0,0,5.84,3c.49-.45,1-.89,1.46-1.35h0c.47-.46.93-.92,1.36-1.38a51.66,51.66,0,0,0-37.14-87.59ZM115.7,133.43c0-.18,0-.36,0-.53s.07-.6.11-.9c.09-.68.2-1.35.35-2,.09-.34.18-.69.28-1s.24-.75.37-1.11.16-.43.25-.65c.15-.37.31-.75.48-1.11,0,0,0,0,.05-.09.2-.39.41-.8.63-1.18a20.09,20.09,0,0,1,2.33-3.21,19.47,19.47,0,0,1,2.92-2.68c.34-.26.7-.51,1.06-.74a16.45,16.45,0,0,1,2-1.11c.25-.13.49-.25.74-.35a18.34,18.34,0,0,1,3-1l.69-.16a10.68,10.68,0,0,1,1.13-.2,8.6,8.6,0,0,1,1-.11,4,4,0,0,1,.69,0c.34,0,.68,0,1,0,.59,0,1.18,0,1.76.09.37,0,.75.08,1.11.13a8.3,8.3,0,0,1,.87.14l.21,0c.28.05.58.12.86.2s.62.16.92.26c.55.17,1.1.36,1.62.58a20.89,20.89,0,0,1,1.9.92,19.16,19.16,0,0,1,4.37,3.28c.43.43.85.88,1.25,1.36l.56.72c.19.25.37.51.54.76.36.54.7,1.1,1,1.66.13.24.26.5.39.77s.23.47.33.7a19,19,0,0,1,1.2,3.86,6.85,6.85,0,0,1,.13.79c.05.26.08.51.11.77h0c0,.23,0,.48.07.73a3.91,3.91,0,0,1,0,.49c0,.33,0,.65,0,1s0,.73,0,1.09a1.5,1.5,0,0,1,0,.29,5.14,5.14,0,0,1-.05.66,18.94,18.94,0,0,1-3.26,8.86c-.15.21-.3.43-.46.64a18.31,18.31,0,0,1-2.94,3.15c-.18.15-.36.3-.54.43a18.73,18.73,0,0,1-4.93,2.84c-.19.08-.39.16-.6.23l-.69.23c-.23.06-.46.14-.71.19s-.75.2-1.13.28-.64.12-.95.17-.82.11-1.25.14-1.12.09-1.69.09a13.25,13.25,0,0,1-1.67-.09c-.43,0-.84-.08-1.27-.14s-.62-.1-.93-.17a11.33,11.33,0,0,1-1.15-.28c-.23-.05-.48-.13-.71-.19l-.67-.23-.61-.23a19.16,19.16,0,0,1-5.28-3.1l-.64-.58c-.23-.2-.46-.41-.68-.64a14.86,14.86,0,0,1-1.24-1.38c-.17-.19-.33-.41-.51-.62-.38-.53-.76-1.07-1.1-1.64-.17-.27-.31-.53-.46-.81a18.77,18.77,0,0,1-1.94-5.31c-.13-.61-.21-1.22-.28-1.84a5.14,5.14,0,0,1,0-.66c0-.1,0-.2,0-.29,0-.36,0-.73,0-1.09S115.69,133.76,115.7,133.43Z"/><path class="cls-4" d="M187.88,132.33a52.55,52.55,0,0,0-12.71-32.25c-.32-.4-.67-.8-1-1.19a52.94,52.94,0,0,0-92.21,35.53c0,.3,0,.61,0,.91,0,.55,0,1.09.05,1.62a52.75,52.75,0,0,0,12.22,31.42,4.1,4.1,0,0,0,4,1.43c8-1.81,7.48-8,13.67-9.15a12.17,12.17,0,0,1,2-.16c4.28,0,6.33,4.12,9,8.16s5.72,7.74,11.95,7.74a15.41,15.41,0,0,0,6.44-1.27c6.84-3,8.62-10.4,15.77-10.4,7.34,0,7.37,3.67,13.86,5.46a4.06,4.06,0,0,0,4.2-1.31A52.7,52.7,0,0,0,187.88,132.33Zm-33.73,3.16a19.25,19.25,0,0,1-38.44,0c0-.35,0-.72,0-1.07a17.46,17.46,0,0,1,.15-2.31,19.34,19.34,0,0,1,1-4.17,16.08,16.08,0,0,1,.83-2,19.25,19.25,0,0,1,24.64-9.38,19.79,19.79,0,0,1,1.91.92,19.24,19.24,0,0,1,9.87,14.66v0a19.88,19.88,0,0,1,.13,2.21C154.18,134.77,154.17,135.14,154.15,135.49Z"/><path class="cls-11" d="M187.88,132.33a52.62,52.62,0,0,0-12.7-32.25c-.33-.41-.68-.8-1-1.2a52.84,52.84,0,0,0-76.47-2.13c-.41,1-.81,2.07-1.15,3.12a57.5,57.5,0,0,0,15.42,60.78,13.35,13.35,0,0,1,2-.16c4.29,0,6.34,4.12,9,8.16a56.92,56.92,0,0,0,18.4,6.46c6.84-3,8.61-10.39,15.75-10.39,7.36,0,7.39,3.66,13.87,5.47a4,4,0,0,0,1.07.15,4.15,4.15,0,0,0,3.13-1.46A52.74,52.74,0,0,0,187.88,132.33Zm-33.73,3.17a1.5,1.5,0,0,1,0,.29,5.14,5.14,0,0,1-.05.66,18.94,18.94,0,0,1-3.26,8.86c-.15.23-.3.44-.46.64a18.31,18.31,0,0,1-2.94,3.15c-.18.15-.36.3-.54.43a18.73,18.73,0,0,1-4.93,2.84c-.19.08-.39.16-.6.23l-.69.23a5.28,5.28,0,0,1-.71.19c-.38.12-.75.2-1.13.28s-.63.12-.95.17-.82.11-1.25.14-1.12.09-1.69.09a13.25,13.25,0,0,1-1.67-.09c-.43,0-.84-.08-1.27-.14s-.62-.1-.93-.17a11.33,11.33,0,0,1-1.15-.28,6.22,6.22,0,0,1-.71-.19l-.67-.23-.61-.23a19.16,19.16,0,0,1-5.28-3.1l-.64-.58c-.23-.2-.46-.41-.68-.64a14.86,14.86,0,0,1-1.24-1.38,7.64,7.64,0,0,1-.51-.62c-.38-.53-.76-1.07-1.1-1.64-.17-.27-.31-.53-.46-.81a18.77,18.77,0,0,1-1.94-5.31c-.13-.61-.21-1.22-.28-1.84a5.14,5.14,0,0,1,0-.66c0-.1,0-.2,0-.29,0-.36,0-.73,0-1.09s0-.65,0-1,0-.35,0-.53.07-.6.11-.9c.09-.68.2-1.35.35-2,.09-.34.18-.69.28-1s.24-.75.37-1.11.16-.43.25-.65c.15-.37.31-.75.48-1.11,0,0,0,0,.05-.09.2-.39.41-.8.63-1.18a20.09,20.09,0,0,1,2.33-3.21,19.47,19.47,0,0,1,2.92-2.68c.34-.26.7-.51,1.06-.74a16.45,16.45,0,0,1,2-1.11c.25-.13.49-.23.74-.35a18.34,18.34,0,0,1,3-1l.69-.16a10.68,10.68,0,0,1,1.13-.2,8.6,8.6,0,0,1,1-.11,4,4,0,0,1,.69,0c.34,0,.68,0,1,0,.59,0,1.18,0,1.76.09.37,0,.75.08,1.11.13a8.3,8.3,0,0,1,.87.14l.21,0c.28.05.58.12.86.2s.62.16.92.26c.55.17,1.1.36,1.62.58a20.89,20.89,0,0,1,1.9.92,19.16,19.16,0,0,1,4.37,3.28,18,18,0,0,1,1.25,1.36l.56.72c.19.25.37.51.54.76.36.54.7,1.1,1,1.66a6.18,6.18,0,0,1,.39.77c.12.23.23.47.33.7a19,19,0,0,1,1.2,3.86c.05.26.1.52.13.79s.08.51.11.77h0c0,.23,0,.48.07.73a3.91,3.91,0,0,1,0,.49c0,.33,0,.65,0,1S154.17,135.14,154.15,135.5Z"/><path class="cls-7" d="M154.09,131.21c0,.34,0,.66,0,1a19.25,19.25,0,0,0-38.23-.08,8.82,8.82,0,0,1,0-.9,19.15,19.15,0,1,1,38.3,0Z"/><ellipse class="cls-8" cx="149.08" cy="91.54" rx="4.91" ry="17.41" transform="translate(14.73 203.58) rotate(-71.38)"/><path class="cls-9" d="M136,172.38a.74.74,0,0,1-.47-.16.8.8,0,0,1-.18-1.12l1.22-1.67a.81.81,0,0,1,1.3.95l-1.22,1.67A.82.82,0,0,1,136,172.38Z"/><path class="cls-4" d="M137.08,169.91l-1.21,1.67a.81.81,0,0,1-.64.34,1,1,0,0,1-.48-.16.83.83,0,0,1-.29-.44.76.76,0,0,1,.12-.69L135.8,169a.8.8,0,0,1,.69-.34.94.94,0,0,1,.43.16A.78.78,0,0,1,137.08,169.91Z"/><path class="cls-10" d="M136.38,169.32,135.16,171a.8.8,0,0,1-.66.33h0a.76.76,0,0,1,.12-.69L135.8,169a.8.8,0,0,1,.69-.34A.81.81,0,0,1,136.38,169.32Z"/><path class="cls-9" d="M145.35,158a.84.84,0,0,1-.29.41.8.8,0,0,1-1.12-.16l-1.24-1.66a.79.79,0,0,1,.16-1.12.81.81,0,0,1,1.12.16l1.24,1.66A.8.8,0,0,1,145.35,158Z"/><path class="cls-4" d="M143.31,156.27l1.23,1.66a.8.8,0,0,1,.14.71.91.91,0,0,1-.3.41.83.83,0,0,1-.49.15.79.79,0,0,1-.63-.32L142,157.22a.74.74,0,0,1-.12-.75.78.78,0,0,1,.28-.37A.8.8,0,0,1,143.31,156.27Z"/><path class="cls-10" d="M142.53,156.78l1.24,1.65a.79.79,0,0,1,.13.72v0a.79.79,0,0,1-.63-.32L142,157.22a.74.74,0,0,1-.12-.75A.79.79,0,0,1,142.53,156.78Z"/><path class="cls-9" d="M92.08,137.12a.81.81,0,0,1-.29.4.79.79,0,0,1-1.12-.16l-1.24-1.65a.8.8,0,1,1,1.28-1L92,136.4A.81.81,0,0,1,92.08,137.12Z"/><path class="cls-4" d="M90,135.38,91.27,137a.8.8,0,0,1,.14.71.91.91,0,0,1-.3.41.84.84,0,0,1-.5.15A.77.77,0,0,1,90,138l-1.24-1.65a.79.79,0,0,1-.12-.76,1,1,0,0,1,.28-.37A.79.79,0,0,1,90,135.38Z"/><path class="cls-10" d="M89.26,135.88l1.24,1.65a.8.8,0,0,1,.13.73l0,0A.77.77,0,0,1,90,138l-1.24-1.65a.79.79,0,0,1-.12-.76A.81.81,0,0,1,89.26,135.88Z"/><path class="cls-9" d="M156.14,160a.76.76,0,0,1-.26-.43.79.79,0,0,1,.59-1l2-.49a.81.81,0,0,1,1,.6.79.79,0,0,1-.59,1l-2,.49A.8.8,0,0,1,156.14,160Z"/><path class="cls-4" d="M158.54,158.84l-2,.48a.78.78,0,0,1-.71-.16.89.89,0,0,1-.26-.43.84.84,0,0,1,.06-.52.81.81,0,0,1,.54-.44l2-.48a.75.75,0,0,1,.74.19,1,1,0,0,1,.23.4A.79.79,0,0,1,158.54,158.84Z"/><path class="cls-10" d="M158.39,157.93l-2,.48a.76.76,0,0,1-.71-.17l0,0a.81.81,0,0,1,.54-.44l2-.48a.75.75,0,0,1,.74.19A.78.78,0,0,1,158.39,157.93Z"/><path class="cls-9" d="M176.36,155.92a.82.82,0,0,1-.49.12.81.81,0,0,1-.73-.87l.17-2.06a.8.8,0,0,1,1.6.13l-.17,2.07A.78.78,0,0,1,176.36,155.92Z"/><path class="cls-4" d="M176,153.27l-.17,2a.78.78,0,0,1-.37.62.91.91,0,0,1-.49.12.89.89,0,0,1-.48-.22.81.81,0,0,1-.25-.66l.18-2.05a.76.76,0,0,1,.41-.65,1,1,0,0,1,.45-.09A.8.8,0,0,1,176,153.27Z"/><path class="cls-10" d="M175.07,153.13l-.17,2.05a.8.8,0,0,1-.38.63l-.05,0a.81.81,0,0,1-.25-.66l.18-2.05a.76.76,0,0,1,.41-.65A.8.8,0,0,1,175.07,153.13Z"/><path class="cls-9" d="M183.17,146.46a.81.81,0,0,1-.47-.16.79.79,0,0,1-.17-1.12l1.23-1.67a.8.8,0,1,1,1.28,1l-1.22,1.66A.83.83,0,0,1,183.17,146.46Z"/><path class="cls-4" d="M184.25,144,183,145.66a.8.8,0,0,1-.64.33.86.86,0,0,1-.48-.16.82.82,0,0,1-.29-.44.77.77,0,0,1,.13-.68l1.23-1.66a.78.78,0,0,1,.69-.34.93.93,0,0,1,.43.17A.79.79,0,0,1,184.25,144Z"/><path class="cls-10" d="M183.54,143.4l-1.22,1.66a.79.79,0,0,1-.66.34h0a.77.77,0,0,1,.13-.68l1.23-1.66a.78.78,0,0,1,.69-.34A.82.82,0,0,1,183.54,143.4Z"/><path class="cls-9" d="M89.1,156.2a.83.83,0,0,1-.47-.16.81.81,0,0,1-.17-1.12l1.23-1.67a.8.8,0,1,1,1.29,1l-1.23,1.66A.82.82,0,0,1,89.1,156.2Z"/><path class="cls-4" d="M90.18,153.74,89,155.4a.82.82,0,0,1-.65.33.89.89,0,0,1-.48-.16.8.8,0,0,1-.28-.44.74.74,0,0,1,.13-.68l1.23-1.66a.78.78,0,0,1,.69-.34.93.93,0,0,1,.43.17A.78.78,0,0,1,90.18,153.74Z"/><path class="cls-10" d="M89.48,153.14l-1.23,1.66a.78.78,0,0,1-.66.34h0a.74.74,0,0,1,.13-.68l1.23-1.66a.78.78,0,0,1,.69-.34A.82.82,0,0,1,89.48,153.14Z"/><path class="cls-9" d="M123.51,155.91a.89.89,0,0,1-.11-.49.81.81,0,0,1,.88-.72l2.06.19a.8.8,0,0,1-.15,1.6l-2.06-.2A.79.79,0,0,1,123.51,155.91Z"/><path class="cls-4" d="M126.17,155.56l-2-.19a.81.81,0,0,1-.62-.38,1,1,0,0,1-.11-.49.91.91,0,0,1,.23-.47.78.78,0,0,1,.66-.25l2,.2a.74.74,0,0,1,.64.42,1,1,0,0,1,.09.45A.79.79,0,0,1,126.17,155.56Z"/><path class="cls-10" d="M126.32,154.65l-2-.19a.78.78,0,0,1-.63-.39l0,0a.78.78,0,0,1,.66-.25l2,.2a.74.74,0,0,1,.64.42A.8.8,0,0,1,126.32,154.65Z"/><path class="cls-9" d="M113.79,156.36a.76.76,0,0,1-.49-.07.79.79,0,0,1-.37-1.07l.91-1.86a.8.8,0,0,1,1.07-.37.81.81,0,0,1,.37,1.08l-.91,1.85A.8.8,0,0,1,113.79,156.36Z"/><path class="cls-4" d="M114.41,153.75l-.91,1.85a.83.83,0,0,1-.57.45.92.92,0,0,1-.51-.08.78.78,0,0,1-.35-.37.75.75,0,0,1,0-.7L113,153a.76.76,0,0,1,.62-.45.9.9,0,0,1,.45.08A.81.81,0,0,1,114.41,153.75Z"/><path class="cls-10" d="M113.61,153.29l-.91,1.85a.79.79,0,0,1-.59.45h0a.75.75,0,0,1,0-.7L113,153a.76.76,0,0,1,.62-.45A.85.85,0,0,1,113.61,153.29Z"/><path class="cls-9" d="M158.44,137A.77.77,0,0,1,158,137a.81.81,0,0,1-.37-1.07l.91-1.86a.81.81,0,0,1,1.08-.36.8.8,0,0,1,.36,1.07l-.91,1.86A.76.76,0,0,1,158.44,137Z"/><path class="cls-4" d="M159.06,134.41l-.9,1.86a.81.81,0,0,1-.58.44,1,1,0,0,1-.5-.07.94.94,0,0,1-.36-.38.78.78,0,0,1,0-.7l.91-1.85a.76.76,0,0,1,.62-.46.81.81,0,0,1,.45.09A.78.78,0,0,1,159.06,134.41Z"/><path class="cls-10" d="M158.27,134l-.91,1.86a.8.8,0,0,1-.59.44h-.05a.78.78,0,0,1,0-.7l.91-1.85a.76.76,0,0,1,.62-.46A.85.85,0,0,1,158.27,134Z"/><path class="cls-9" d="M102,152.8a.8.8,0,0,1-.49.07.81.81,0,0,1-.65-.93l.36-2a.8.8,0,0,1,1.58.28l-.36,2A.8.8,0,0,1,102,152.8Z"/><path class="cls-4" d="M101.89,150.12l-.36,2a.82.82,0,0,1-.43.59.93.93,0,0,1-.5.07.83.83,0,0,1-.45-.27.76.76,0,0,1-.19-.67l.36-2a.77.77,0,0,1,.47-.61.88.88,0,0,1,.46,0A.8.8,0,0,1,101.89,150.12Z"/><path class="cls-10" d="M101,149.9l-.36,2a.77.77,0,0,1-.44.59l0,0a.76.76,0,0,1-.19-.67l.36-2a.77.77,0,0,1,.47-.61A.83.83,0,0,1,101,149.9Z"/><path class="cls-9" d="M96.38,162.85a.84.84,0,0,1,.35-.35.81.81,0,0,1,1.08.35l.94,1.84a.8.8,0,1,1-1.42.73l-1-1.84A.82.82,0,0,1,96.38,162.85Z"/><path class="cls-4" d="M98.1,164.92l-.94-1.84a.82.82,0,0,1,0-.73.87.87,0,0,1,.36-.35.85.85,0,0,1,.52-.07.79.79,0,0,1,.55.43l.94,1.84a.76.76,0,0,1,0,.76.81.81,0,0,1-.34.32A.8.8,0,0,1,98.1,164.92Z"/><path class="cls-10" d="M99,164.55,98,162.72a.81.81,0,0,1,0-.74l0,0a.79.79,0,0,1,.55.43l.94,1.84a.76.76,0,0,1,0,.76A.78.78,0,0,1,99,164.55Z"/><path class="cls-9" d="M169.67,140.24a.79.79,0,0,1,.46.19.8.8,0,0,1,.07,1.13l-1.36,1.56a.8.8,0,0,1-1.13.07.8.8,0,0,1-.08-1.13l1.37-1.55A.8.8,0,0,1,169.67,140.24Z"/><path class="cls-4" d="M168.39,142.59l1.36-1.55a.82.82,0,0,1,.67-.27.89.89,0,0,1,.47.2.82.82,0,0,1,.24.46.74.74,0,0,1-.19.67l-1.36,1.55a.75.75,0,0,1-.72.27.86.86,0,0,1-.41-.19A.8.8,0,0,1,168.39,142.59Z"/><path class="cls-10" d="M169,143.25l1.36-1.55a.81.81,0,0,1,.69-.28h0a.74.74,0,0,1-.19.67l-1.36,1.55a.75.75,0,0,1-.72.27A.79.79,0,0,1,169,143.25Z"/><path class="cls-9" d="M166.05,162.41a.84.84,0,0,1,.35-.35.81.81,0,0,1,1.08.35l.94,1.84A.8.8,0,1,1,167,165l-.95-1.84A.82.82,0,0,1,166.05,162.41Z"/><path class="cls-4" d="M167.77,164.47l-.94-1.83a.82.82,0,0,1,0-.73.87.87,0,0,1,.36-.35.85.85,0,0,1,.52-.07.79.79,0,0,1,.55.43l.94,1.84a.74.74,0,0,1,0,.76.92.92,0,0,1-.33.32A.8.8,0,0,1,167.77,164.47Z"/><path class="cls-10" d="M168.62,164.11l-.94-1.84a.79.79,0,0,1,0-.73l0,0a.79.79,0,0,1,.55.43l.94,1.84a.74.74,0,0,1,0,.76A.8.8,0,0,1,168.62,164.11Z"/><path class="cls-9" d="M152.51,149.85a.79.79,0,0,1,.35-.35.8.8,0,0,1,1.08.35l.94,1.84a.8.8,0,0,1-1.43.73l-.94-1.84A.82.82,0,0,1,152.51,149.85Z"/><path class="cls-4" d="M154.23,151.91l-.94-1.83a.82.82,0,0,1,0-.73,1,1,0,0,1,.36-.36.9.9,0,0,1,.51-.06.78.78,0,0,1,.56.43l.94,1.83a.78.78,0,0,1,0,.77,1,1,0,0,1-.34.32A.8.8,0,0,1,154.23,151.91Z"/><path class="cls-10" d="M155.08,151.55l-.94-1.84a.79.79,0,0,1,0-.73l0,0a.78.78,0,0,1,.56.43l.94,1.83a.78.78,0,0,1,0,.77A.8.8,0,0,1,155.08,151.55Z"/><path class="cls-9" d="M128.42,162.61a.84.84,0,0,1,.35-.35.79.79,0,0,1,1.08.34l1,1.85a.8.8,0,0,1-1.43.73l-.94-1.85A.77.77,0,0,1,128.42,162.61Z"/><path class="cls-4" d="M130.14,164.67l-.94-1.84a.79.79,0,0,1,0-.72.89.89,0,0,1,.36-.36.85.85,0,0,1,.52-.06.73.73,0,0,1,.55.42l.94,1.84a.76.76,0,0,1,0,.77.9.9,0,0,1-.33.31A.8.8,0,0,1,130.14,164.67Z"/><path class="cls-10" d="M131,164.31l-.94-1.84a.81.81,0,0,1,0-.74l0,0a.73.73,0,0,1,.55.42l.94,1.84a.76.76,0,0,1,0,.77A.83.83,0,0,1,131,164.31Z"/><path class="cls-9" d="M108.19,140.82a.86.86,0,0,1,.46.19.8.8,0,0,1,.09,1.13l-1.34,1.58a.81.81,0,0,1-1.13.09.8.8,0,0,1-.09-1.13l1.34-1.58A.85.85,0,0,1,108.19,140.82Z"/><path class="cls-4" d="M106.94,143.2l1.34-1.57a.8.8,0,0,1,.67-.29.89.89,0,0,1,.47.2.85.85,0,0,1,.25.45.76.76,0,0,1-.18.68l-1.34,1.57a.75.75,0,0,1-.71.28.8.8,0,0,1-.5-1.32Z"/><path class="cls-10" d="M107.6,143.84l1.34-1.57a.8.8,0,0,1,.68-.28h0a.76.76,0,0,1-.18.68l-1.34,1.57a.75.75,0,0,1-.71.28A.81.81,0,0,1,107.6,143.84Z"/></g><circle class="cls-12" cx="128.5" cy="128.5" r="83.09"/><circle class="cls-13" cx="128.5" cy="128.5" r="58.26"/><g class="cls-5"><path class="cls-4" d="M133,83.23a51.68,51.68,0,0,0-37.56,87.15l1.36,1.39,0,0c.46.46.93.9,1.43,1.33a51.65,51.65,0,0,0,69,.41c.5-.44,1-.89,1.46-1.35h0c.47-.46.93-.92,1.36-1.38A51.66,51.66,0,0,0,133,83.23Zm-19.22,50.68a4.22,4.22,0,0,1,0-.52,16.43,16.43,0,0,1,.46-2.93,6.88,6.88,0,0,1,.28-1,16.81,16.81,0,0,1,1.09-2.87.35.35,0,0,0,0-.08,9.49,9.49,0,0,1,.63-1.18,17.28,17.28,0,0,1,2.33-3.22,19.47,19.47,0,0,1,2.92-2.68,11.21,11.21,0,0,1,1.07-.73,16.39,16.39,0,0,1,2-1.12c.25-.13.5-.25.74-.35a18.34,18.34,0,0,1,3-1l.69-.16c.38-.08.75-.15,1.13-.2a8.83,8.83,0,0,1,1-.11,4,4,0,0,1,.69,0c.34,0,.69,0,1,0,.59,0,1.18,0,1.76.08.37,0,.75.08,1.11.13l.87.15.22,0a8.64,8.64,0,0,1,.85.19c.31.08.62.17.92.27a16.28,16.28,0,0,1,1.62.57c.66.28,1.3.59,1.91.92a18.89,18.89,0,0,1,4.36,3.28c.43.43.86.89,1.25,1.36.2.25.38.48.56.73s.37.5.54.75c.36.54.7,1.1,1,1.66.13.24.26.51.39.77s.23.47.33.7a19.19,19.19,0,0,1,1.2,3.86,5.42,5.42,0,0,1,.13.79c0,.26.08.51.12.77v0c0,.24.05.47.06.72a4,4,0,0,1,0,.49c0,.33,0,.66,0,1s0,.72,0,1.08a1.36,1.36,0,0,1,0,.29,3.6,3.6,0,0,1,0,.66,18.9,18.9,0,0,1-3.26,8.86c-.15.22-.3.43-.46.64a18.31,18.31,0,0,1-2.94,3.15c-.18.15-.36.3-.54.43a18.73,18.73,0,0,1-4.93,2.84l-.6.23-.69.23c-.23.06-.46.15-.71.2s-.75.19-1.13.27-.64.12-.95.17-.82.11-1.25.15-1.11.08-1.69.08a15.56,15.56,0,0,1-1.67-.08c-.43,0-.84-.09-1.27-.15s-.62-.1-.93-.17-.77-.16-1.15-.27c-.23,0-.48-.14-.71-.2l-.67-.23-.61-.23a19.16,19.16,0,0,1-5.28-3.1l-.64-.58a6.7,6.7,0,0,1-.67-.64,11.79,11.79,0,0,1-1.25-1.38l-.51-.62c-.38-.52-.75-1.07-1.1-1.64-.16-.26-.31-.53-.46-.8a18.83,18.83,0,0,1-1.94-5.32,14.32,14.32,0,0,1-.27-1.84,3.6,3.6,0,0,1-.05-.66,1.35,1.35,0,0,1,0-.29c0-.36,0-.72,0-1.08S113.8,134.24,113.81,133.91Z"/><path class="cls-6" d="M113.81,133.91a4.22,4.22,0,0,1,0-.52c0-.31.06-.6.1-.9a19.58,19.58,0,0,1,.36-2c.08-.34.18-.68.28-1a11.11,11.11,0,0,1,.37-1.11c.07-.22.15-.43.24-.64.15-.38.31-.76.48-1.12a.35.35,0,0,0,0-.08c.2-.4.41-.81.63-1.18a20.17,20.17,0,0,1,2.33-3.22,19.47,19.47,0,0,1,2.92-2.68,11.21,11.21,0,0,1,1.07-.73,16.39,16.39,0,0,1,2-1.12c.25-.13.5-.25.74-.35a18.34,18.34,0,0,1,3-1l.69-.16c.38-.08.75-.15,1.13-.2a8.83,8.83,0,0,1,1-.11,4,4,0,0,1,.69,0c.34,0,.69,0,1,0,.59,0,1.18,0,1.76.08.37,0,.75.08,1.11.13a6.33,6.33,0,0,1,.87.15l.22,0a8.64,8.64,0,0,1,.85.19c.31.08.62.17.92.27a16.28,16.28,0,0,1,1.62.57c.66.28,1.3.59,1.91.92a18.89,18.89,0,0,1,4.36,3.28c.43.43.86.89,1.25,1.36.2.25.38.48.56.73s.37.5.54.75c.36.54.7,1.1,1,1.66.13.24.26.51.39.77s.23.47.33.7a19.19,19.19,0,0,1,1.2,3.86,5.42,5.42,0,0,1,.13.79c0,.26.08.51.12.77v0q0,.35.06.72a4,4,0,0,1,0,.49c0,.33,0,.66,0,1s0,.72,0,1.08a1.36,1.36,0,0,1,0,.29,3.74,3.74,0,0,1,0,.66,18.9,18.9,0,0,1-3.26,8.86c-.15.22-.3.43-.46.64a18.31,18.31,0,0,1-2.94,3.15c-.18.15-.36.3-.54.43a18.73,18.73,0,0,1-4.93,2.84c-.19.08-.39.16-.6.23l-.69.23c-.23.06-.46.15-.71.2s-.75.19-1.13.27-.64.12-.95.17-.82.11-1.25.15-1.11.08-1.69.08a15.56,15.56,0,0,1-1.67-.08c-.43,0-.84-.09-1.27-.15s-.62-.1-.93-.17-.77-.16-1.15-.27c-.23,0-.48-.14-.71-.2l-.67-.23-.61-.23a19.16,19.16,0,0,1-5.28-3.1l-.64-.58a6.7,6.7,0,0,1-.67-.64,11.79,11.79,0,0,1-1.25-1.38l-.51-.62c-.38-.52-.75-1.07-1.1-1.64-.16-.26-.31-.53-.46-.8a18.83,18.83,0,0,1-1.94-5.32,16.32,16.32,0,0,1-.27-1.84,3.74,3.74,0,0,1-.05-.66,1.35,1.35,0,0,1,0-.29c0-.36,0-.72,0-1.08S113.8,134.24,113.81,133.91Z"/><path class="cls-7" d="M152.2,131.7c0,.33,0,.65,0,1a19.25,19.25,0,0,0-38.23-.08,8.72,8.72,0,0,1,0-.89,19.15,19.15,0,1,1,38.3,0Z"/><ellipse class="cls-8" cx="147.19" cy="92.02" rx="4.91" ry="17.41" transform="translate(12.98 202.12) rotate(-71.38)"/><path class="cls-9" d="M134.13,172.86a.82.82,0,0,1-.47-.15.8.8,0,0,1-.18-1.12l1.22-1.68a.81.81,0,0,1,1.12-.17.8.8,0,0,1,.18,1.12l-1.22,1.67A.79.79,0,0,1,134.13,172.86Z"/><path class="cls-4" d="M135.2,170.4,134,172.06a.81.81,0,0,1-.64.34.86.86,0,0,1-.48-.16.83.83,0,0,1-.29-.43.76.76,0,0,1,.13-.69l1.21-1.67a.8.8,0,0,1,.69-.34,1,1,0,0,1,.44.16A.81.81,0,0,1,135.2,170.4Z"/><path class="cls-10" d="M134.49,169.8l-1.22,1.67a.8.8,0,0,1-.65.34h-.05a.76.76,0,0,1,.13-.69l1.21-1.67a.8.8,0,0,1,.69-.34A.77.77,0,0,1,134.49,169.8Z"/><path class="cls-9" d="M143.46,158.5a.8.8,0,0,1-1.41.24l-1.24-1.65A.81.81,0,0,1,141,156a.79.79,0,0,1,1.12.16l1.25,1.65A.81.81,0,0,1,143.46,158.5Z"/><path class="cls-4" d="M141.42,156.76l1.23,1.65a.8.8,0,0,1,.14.71,1,1,0,0,1-.29.41.86.86,0,0,1-.5.15.75.75,0,0,1-.62-.32l-1.24-1.65A.79.79,0,0,1,140,157a1,1,0,0,1,.28-.37A.8.8,0,0,1,141.42,156.76Z"/><path class="cls-10" d="M140.64,157.26l1.24,1.65a.78.78,0,0,1,.13.73v0a.75.75,0,0,1-.62-.32l-1.24-1.65a.41.41,0,1,1,.5-.45Z"/><path class="cls-9" d="M90.19,137.6a.84.84,0,0,1-.29.41.81.81,0,0,1-1.12-.16l-1.24-1.66a.8.8,0,1,1,1.28-1l1.24,1.65A.82.82,0,0,1,90.19,137.6Z"/><path class="cls-4" d="M88.14,135.86l1.24,1.65a.8.8,0,0,1,.14.71.89.89,0,0,1-.3.42.91.91,0,0,1-.49.15.8.8,0,0,1-.63-.33l-1.23-1.65a.76.76,0,0,1-.12-.76.81.81,0,0,1,.28-.36A.77.77,0,0,1,88.14,135.86Z"/><path class="cls-10" d="M87.37,136.36,88.61,138a.8.8,0,0,1,.13.73v0a.8.8,0,0,1-.63-.33l-1.23-1.65a.76.76,0,0,1-.12-.76A.83.83,0,0,1,87.37,136.36Z"/><path class="cls-9" d="M154.25,160.51a.77.77,0,0,1-.26-.42.81.81,0,0,1,.59-1l2-.48a.8.8,0,1,1,.38,1.55l-2,.49A.81.81,0,0,1,154.25,160.51Z"/><path class="cls-4" d="M156.66,159.32l-2,.48a.81.81,0,0,1-.71-.15,1,1,0,0,1-.26-.44.82.82,0,0,1,.6-1l2-.48a.78.78,0,0,1,.75.19,1,1,0,0,1,.22.41A.79.79,0,0,1,156.66,159.32Z"/><path class="cls-10" d="M156.5,158.42l-2,.48a.83.83,0,0,1-.72-.17l0,0a.79.79,0,0,1,.54-.45l2-.48a.78.78,0,0,1,.75.19A.83.83,0,0,1,156.5,158.42Z"/><path class="cls-9" d="M174.47,156.41a.81.81,0,0,1-1.22-.75l.17-2.07a.8.8,0,1,1,1.6.14l-.17,2.06A.81.81,0,0,1,174.47,156.41Z"/><path class="cls-4" d="M174.1,153.75l-.18,2.06a.79.79,0,0,1-.37.62.91.91,0,0,1-.49.11.86.86,0,0,1-.47-.22.74.74,0,0,1-.25-.65l.17-2.06a.76.76,0,0,1,.41-.65,1,1,0,0,1,.45-.09A.8.8,0,0,1,174.1,153.75Z"/><path class="cls-10" d="M173.18,153.61l-.17,2.06a.8.8,0,0,1-.38.63l0,0a.74.74,0,0,1-.25-.65l.17-2.06a.76.76,0,0,1,.41-.65A.82.82,0,0,1,173.18,153.61Z"/><path class="cls-9" d="M181.28,146.94a.74.74,0,0,1-.47-.16.8.8,0,0,1-.17-1.12l1.23-1.66a.79.79,0,0,1,1.12-.17.81.81,0,0,1,.17,1.12l-1.23,1.66A.79.79,0,0,1,181.28,146.94Z"/><path class="cls-4" d="M182.36,144.48l-1.23,1.66a.76.76,0,0,1-.64.33.86.86,0,0,1-.48-.16.83.83,0,0,1-.29-.43.79.79,0,0,1,.13-.69l1.23-1.66a.79.79,0,0,1,1.12-.17A.8.8,0,0,1,182.36,144.48Z"/><path class="cls-10" d="M181.66,143.88l-1.23,1.66a.78.78,0,0,1-.66.34h-.05a.79.79,0,0,1,.13-.69l1.23-1.66a.76.76,0,0,1,.69-.33A.83.83,0,0,1,181.66,143.88Z"/><path class="cls-9" d="M87.21,156.68a.78.78,0,0,1-.47-.16.8.8,0,0,1-.16-1.12l1.22-1.66a.8.8,0,1,1,1.29.95l-1.23,1.66A.78.78,0,0,1,87.21,156.68Z"/><path class="cls-4" d="M88.29,154.22l-1.22,1.66a.79.79,0,0,1-.65.33.89.89,0,0,1-.48-.16.87.87,0,0,1-.28-.43.79.79,0,0,1,.13-.69L87,153.27a.75.75,0,0,1,.69-.33.81.81,0,0,1,.43.16A.79.79,0,0,1,88.29,154.22Z"/><path class="cls-10" d="M87.59,153.62l-1.22,1.66a.81.81,0,0,1-.66.34h0a.79.79,0,0,1,.13-.69L87,153.27a.75.75,0,0,1,.69-.33A.8.8,0,0,1,87.59,153.62Z"/><path class="cls-9" d="M121.62,156.39a.81.81,0,0,1,.77-1.21l2.06.2a.8.8,0,0,1-.15,1.59l-2.06-.19A.83.83,0,0,1,121.62,156.39Z"/><path class="cls-4" d="M124.29,156.05l-2.06-.2a.83.83,0,0,1-.62-.38.88.88,0,0,1-.1-.49.86.86,0,0,1,.22-.47.78.78,0,0,1,.66-.24l2,.19a.76.76,0,0,1,.64.42,1,1,0,0,1,.09.45A.8.8,0,0,1,124.29,156.05Z"/><path class="cls-10" d="M124.43,155.14l-2.05-.2a.81.81,0,0,1-.63-.39l0,0a.78.78,0,0,1,.66-.24l2,.19a.76.76,0,0,1,.64.42A.84.84,0,0,1,124.43,155.14Z"/><path class="cls-9" d="M111.9,156.84a.84.84,0,0,1-.49-.06.81.81,0,0,1-.37-1.08l.91-1.86a.8.8,0,0,1,1.44.71l-.91,1.86A.79.79,0,0,1,111.9,156.84Z"/><path class="cls-4" d="M112.52,154.23l-.91,1.86a.81.81,0,0,1-.57.44.88.88,0,0,1-.5-.07.82.82,0,0,1-.36-.38.75.75,0,0,1,0-.7l.91-1.85a.79.79,0,0,1,.62-.46.89.89,0,0,1,.45.09A.78.78,0,0,1,112.52,154.23Z"/><path class="cls-10" d="M111.72,153.77l-.91,1.86a.76.76,0,0,1-.59.44h0a.75.75,0,0,1,0-.7l.91-1.85a.79.79,0,0,1,.62-.46A.82.82,0,0,1,111.72,153.77Z"/><path class="cls-9" d="M156.56,137.51a1,1,0,0,1-.5-.07.81.81,0,0,1-.36-1.08l.91-1.85a.79.79,0,0,1,1.07-.37.81.81,0,0,1,.37,1.07l-.91,1.86A.83.83,0,0,1,156.56,137.51Z"/><path class="cls-4" d="M157.18,134.89l-.91,1.86a.81.81,0,0,1-.58.44.89.89,0,0,1-.5-.07.94.94,0,0,1-.36-.38.78.78,0,0,1,0-.7l.91-1.85a.75.75,0,0,1,.62-.45.9.9,0,0,1,.45.08A.79.79,0,0,1,157.18,134.89Z"/><path class="cls-10" d="M156.38,134.43l-.91,1.86a.78.78,0,0,1-.59.44h0a.78.78,0,0,1,0-.7l.91-1.85a.75.75,0,0,1,.62-.45A.83.83,0,0,1,156.38,134.43Z"/><path class="cls-9" d="M100.13,153.28a.77.77,0,0,1-.5.07.8.8,0,0,1-.65-.92l.36-2a.8.8,0,0,1,1.58.27l-.36,2A.79.79,0,0,1,100.13,153.28Z"/><path class="cls-4" d="M100,150.6l-.36,2a.8.8,0,0,1-.43.58.93.93,0,0,1-.5.07.88.88,0,0,1-.45-.26.78.78,0,0,1-.19-.68l.36-2a.77.77,0,0,1,.47-.61.89.89,0,0,1,.46,0A.79.79,0,0,1,100,150.6Z"/><path class="cls-10" d="M99.1,150.38l-.36,2a.79.79,0,0,1-.44.6l0,0a.78.78,0,0,1-.19-.68l.36-2a.77.77,0,0,1,.47-.61A.81.81,0,0,1,99.1,150.38Z"/><path class="cls-9" d="M94.49,163.34a.84.84,0,0,1,.35-.35.79.79,0,0,1,1.08.34l1,1.85a.8.8,0,0,1-1.43.73l-.94-1.85A.77.77,0,0,1,94.49,163.34Z"/><path class="cls-4" d="M96.21,165.4l-.94-1.84a.79.79,0,0,1,0-.72.89.89,0,0,1,.36-.36.86.86,0,0,1,.52-.06.73.73,0,0,1,.55.42l.94,1.84a.76.76,0,0,1,0,.77.83.83,0,0,1-.33.31A.8.8,0,0,1,96.21,165.4Z"/><path class="cls-10" d="M97.06,165l-.94-1.84a.78.78,0,0,1,0-.74l0,0a.73.73,0,0,1,.55.42l.94,1.84a.76.76,0,0,1,0,.77A.85.85,0,0,1,97.06,165Z"/><path class="cls-9" d="M167.79,140.72a.74.74,0,0,1,.45.2.79.79,0,0,1,.07,1.13L167,143.6a.8.8,0,0,1-1.13.07.8.8,0,0,1-.08-1.13l1.37-1.55A.82.82,0,0,1,167.79,140.72Z"/><path class="cls-4" d="M166.5,143.08l1.36-1.55a.81.81,0,0,1,.67-.28.89.89,0,0,1,.47.2,1,1,0,0,1,.25.46.8.8,0,0,1-.19.67l-1.37,1.55a.75.75,0,0,1-.71.28.86.86,0,0,1-.42-.2A.79.79,0,0,1,166.5,143.08Z"/><path class="cls-10" d="M167.15,143.73l1.36-1.55a.77.77,0,0,1,.69-.27h.05a.8.8,0,0,1-.19.67l-1.37,1.55a.75.75,0,0,1-.71.28A.82.82,0,0,1,167.15,143.73Z"/><path class="cls-9" d="M164.16,162.9a.93.93,0,0,1,.35-.36.81.81,0,0,1,1.08.35l.95,1.84a.81.81,0,0,1-.35,1.08.8.8,0,0,1-1.08-.35l-.94-1.84A.77.77,0,0,1,164.16,162.9Z"/><path class="cls-4" d="M165.88,165l-.94-1.84a.79.79,0,0,1,0-.72.83.83,0,0,1,.36-.36.86.86,0,0,1,.52-.06.73.73,0,0,1,.55.42l.94,1.84a.76.76,0,0,1,0,.77.83.83,0,0,1-.33.31A.8.8,0,0,1,165.88,165Z"/><path class="cls-10" d="M166.73,164.59l-.94-1.83a.78.78,0,0,1,0-.74l0,0a.73.73,0,0,1,.55.42l.94,1.84a.76.76,0,0,1,0,.77A.84.84,0,0,1,166.73,164.59Z"/><path class="cls-9" d="M150.62,150.34A.76.76,0,0,1,151,150a.81.81,0,0,1,1.08.35l.94,1.84a.8.8,0,0,1-.35,1.08.79.79,0,0,1-1.07-.35l-.95-1.84A.79.79,0,0,1,150.62,150.34Z"/><path class="cls-4" d="M152.34,152.4l-.94-1.84a.82.82,0,0,1,0-.73.87.87,0,0,1,.36-.35.91.91,0,0,1,.51-.07.78.78,0,0,1,.56.43l.94,1.84a.76.76,0,0,1,0,.76.81.81,0,0,1-.34.32A.79.79,0,0,1,152.34,152.4Z"/><path class="cls-10" d="M153.19,152l-.94-1.83a.81.81,0,0,1,0-.74l0-.05a.78.78,0,0,1,.56.43l.94,1.84a.76.76,0,0,1,0,.76A.78.78,0,0,1,153.19,152Z"/><path class="cls-9" d="M126.53,163.09a.84.84,0,0,1,.35-.35.8.8,0,0,1,1.08.35l1,1.84a.8.8,0,1,1-1.43.73l-.94-1.84A.82.82,0,0,1,126.53,163.09Z"/><path class="cls-4" d="M128.25,165.15l-.94-1.84a.79.79,0,0,1,0-.72,1,1,0,0,1,.36-.36.86.86,0,0,1,.52-.06.79.79,0,0,1,.56.42l.94,1.84a.78.78,0,0,1,0,.77.93.93,0,0,1-.34.31A.8.8,0,0,1,128.25,165.15Z"/><path class="cls-10" d="M129.1,164.79l-.94-1.84a.78.78,0,0,1,0-.74l0,0a.79.79,0,0,1,.56.42l.94,1.84a.78.78,0,0,1,0,.77A.85.85,0,0,1,129.1,164.79Z"/><path class="cls-9" d="M106.31,141.31a.72.72,0,0,1,.45.19.8.8,0,0,1,.09,1.13l-1.34,1.57a.8.8,0,0,1-1.13.09.81.81,0,0,1-.09-1.13l1.34-1.57A.8.8,0,0,1,106.31,141.31Z"/><path class="cls-4" d="M105.06,143.68l1.34-1.57a.81.81,0,0,1,.66-.28.87.87,0,0,1,.47.19.85.85,0,0,1,.25.45.75.75,0,0,1-.18.68l-1.34,1.57a.77.77,0,0,1-.71.29.91.91,0,0,1-.42-.2A.79.79,0,0,1,105.06,143.68Z"/><path class="cls-10" d="M105.71,144.33l1.34-1.57a.81.81,0,0,1,.69-.29h0a.75.75,0,0,1-.18.68l-1.34,1.57a.77.77,0,0,1-.71.29A.84.84,0,0,1,105.71,144.33Z"/></g><path class="cls-14" d="M128.92,77.75a51.68,51.68,0,0,0-37.57,87.14c.46.48.92,1,1.37,1.4l0,.05c.46.46.93.9,1.42,1.33a51.66,51.66,0,0,0,69,.41c.49-.45,1-.89,1.46-1.35h0c.47-.46.93-.92,1.36-1.38a51.66,51.66,0,0,0-37.14-87.59ZM109.7,128.43c0-.18,0-.36,0-.53a17.43,17.43,0,0,1,.46-2.92,9.85,9.85,0,0,1,.28-1,17.72,17.72,0,0,1,1.1-2.87s0,0,.05-.09a10.25,10.25,0,0,1,.63-1.18,17.54,17.54,0,0,1,2.33-3.21,19.47,19.47,0,0,1,2.92-2.68c.34-.26.7-.51,1.06-.74a16.45,16.45,0,0,1,2-1.11c.25-.13.49-.25.74-.35a18.34,18.34,0,0,1,3-1l.69-.16a10.68,10.68,0,0,1,1.13-.2,8.6,8.6,0,0,1,1-.11,4,4,0,0,1,.69,0c.34,0,.68,0,1,0,.59,0,1.18,0,1.76.09.37,0,.75.08,1.11.13l.87.14.21,0c.28.05.58.12.86.2s.62.16.92.26c.55.17,1.1.36,1.62.58a20.89,20.89,0,0,1,1.9.92,19.16,19.16,0,0,1,4.37,3.28c.43.43.85.88,1.25,1.36l.56.72c.19.25.37.51.54.76.36.54.7,1.1,1,1.66.13.24.26.5.39.77s.23.47.33.7a19,19,0,0,1,1.2,3.86,6.85,6.85,0,0,1,.13.79c.05.26.08.51.11.77h0c0,.25,0,.48.07.73a3.91,3.91,0,0,1,0,.49c0,.33,0,.65,0,1s0,.73,0,1.09a1.5,1.5,0,0,1,0,.29,5,5,0,0,1-.05.66,18.94,18.94,0,0,1-3.26,8.86c-.15.21-.3.43-.46.64a18.31,18.31,0,0,1-2.94,3.15c-.18.15-.36.3-.54.43a18.73,18.73,0,0,1-4.93,2.84l-.6.23-.69.23c-.23.06-.46.14-.71.19s-.75.2-1.13.28-.64.12-.95.17-.82.11-1.25.14-1.12.09-1.69.09a13.25,13.25,0,0,1-1.67-.09c-.43,0-.84-.08-1.27-.14s-.62-.1-.93-.17a11.33,11.33,0,0,1-1.15-.28c-.23-.05-.48-.13-.71-.19l-.67-.23-.61-.23a19.16,19.16,0,0,1-5.28-3.1l-.64-.58c-.23-.2-.46-.41-.68-.64a14.86,14.86,0,0,1-1.24-1.38c-.17-.19-.33-.41-.51-.62-.38-.53-.76-1.07-1.1-1.64-.17-.27-.31-.53-.46-.81a18.77,18.77,0,0,1-1.94-5.31,14.34,14.34,0,0,1-.28-1.84,5,5,0,0,1,0-.66c0-.1,0-.2,0-.29,0-.36,0-.73,0-1.09S109.69,128.76,109.7,128.43Z"/><path class="cls-15" d="M128.92,77.75a51.68,51.68,0,0,0-37.57,87.14c.46.48.92,1,1.37,1.4l0,.05c.46.46.93.9,1.42,1.33a16.37,16.37,0,0,0,8.36-5.89c1.49-1.74,2.28-2.6,3.92-2.89a9,9,0,0,1,1.49-.12c1.77,0,3,1.58,5.29,5.17.32.51.64,1,1,1.51,3.15,4.79,7.12,9.22,14.69,9.22a18.52,18.52,0,0,0,7.76-1.55,24.24,24.24,0,0,0,7.85-6.06c2.56-2.66,4-4.05,6.59-4.05a9,9,0,0,1,6.24,2,20.77,20.77,0,0,0,5.84,3c.49-.45,1-.89,1.46-1.35h0c.47-.46.93-.92,1.36-1.38a51.66,51.66,0,0,0-37.14-87.59ZM109.7,128.43c0-.18,0-.36,0-.53s.07-.6.11-.9c.09-.68.2-1.35.35-2,.09-.34.18-.69.28-1s.24-.75.37-1.11.16-.43.25-.65c.15-.37.31-.75.48-1.11,0,0,0,0,.05-.09.2-.39.41-.8.63-1.18a20.09,20.09,0,0,1,2.33-3.21,19.47,19.47,0,0,1,2.92-2.68c.34-.26.7-.51,1.06-.74a16.45,16.45,0,0,1,2-1.11c.25-.13.49-.25.74-.35a18.34,18.34,0,0,1,3-1l.69-.16a10.68,10.68,0,0,1,1.13-.2,8.6,8.6,0,0,1,1-.11,4,4,0,0,1,.69,0c.34,0,.68,0,1,0,.59,0,1.18,0,1.76.09.37,0,.75.08,1.11.13a8.3,8.3,0,0,1,.87.14l.21,0c.28.05.58.12.86.2s.62.16.92.26c.55.17,1.1.36,1.62.58a20.89,20.89,0,0,1,1.9.92,19.16,19.16,0,0,1,4.37,3.28c.43.43.85.88,1.25,1.36l.56.72c.19.25.37.51.54.76.36.54.7,1.1,1,1.66.13.24.26.5.39.77s.23.47.33.7a19,19,0,0,1,1.2,3.86,6.85,6.85,0,0,1,.13.79c.05.26.08.51.11.77h0c0,.23,0,.48.07.73a3.91,3.91,0,0,1,0,.49c0,.33,0,.65,0,1s0,.73,0,1.09a1.5,1.5,0,0,1,0,.29,5.14,5.14,0,0,1-.05.66,18.94,18.94,0,0,1-3.26,8.86c-.15.21-.3.43-.46.64a18.31,18.31,0,0,1-2.94,3.15c-.18.15-.36.3-.54.43a18.73,18.73,0,0,1-4.93,2.84c-.19.08-.39.16-.6.23l-.69.23c-.23.06-.46.14-.71.19s-.75.2-1.13.28-.64.12-.95.17-.82.11-1.25.14-1.12.09-1.69.09a13.25,13.25,0,0,1-1.67-.09c-.43,0-.84-.08-1.27-.14s-.62-.1-.93-.17a11.33,11.33,0,0,1-1.15-.28c-.23-.05-.48-.13-.71-.19l-.67-.23-.61-.23a19.16,19.16,0,0,1-5.28-3.1l-.64-.58c-.23-.2-.46-.41-.68-.64a14.86,14.86,0,0,1-1.24-1.38c-.17-.19-.33-.41-.51-.62-.38-.53-.76-1.07-1.1-1.64-.17-.27-.31-.53-.46-.81a18.77,18.77,0,0,1-1.94-5.31c-.13-.61-.21-1.22-.28-1.84a5.14,5.14,0,0,1,0-.66c0-.1,0-.2,0-.29,0-.36,0-.73,0-1.09S109.69,128.76,109.7,128.43Z"/><path class="cls-16" d="M181.88,127.33a52.55,52.55,0,0,0-12.71-32.25c-.32-.4-.67-.8-1-1.19a52.94,52.94,0,0,0-92.21,35.53c0,.3,0,.61,0,.91,0,.55,0,1.09.05,1.62a52.75,52.75,0,0,0,12.22,31.42,4.1,4.1,0,0,0,4,1.43c8-1.81,7.48-8,13.67-9.15a12.17,12.17,0,0,1,2-.16c4.28,0,6.33,4.12,9,8.16s5.72,7.74,11.95,7.74a15.41,15.41,0,0,0,6.44-1.27c6.84-3,8.62-10.4,15.77-10.4,7.34,0,7.37,3.67,13.86,5.46a4.06,4.06,0,0,0,4.2-1.31A52.7,52.7,0,0,0,181.88,127.33Zm-33.73,3.16a19.25,19.25,0,0,1-38.44,0c0-.35,0-.72,0-1.07a17.46,17.46,0,0,1,.15-2.31,19.34,19.34,0,0,1,1-4.17,16.08,16.08,0,0,1,.83-2,19.25,19.25,0,0,1,24.64-9.38,19.79,19.79,0,0,1,1.91.92,19.24,19.24,0,0,1,9.87,14.66v0a19.88,19.88,0,0,1,.13,2.21C148.18,129.77,148.17,130.14,148.15,130.49Z"/><path class="cls-17" d="M181.88,127.33a52.62,52.62,0,0,0-12.7-32.25c-.33-.41-.68-.8-1-1.2a52.84,52.84,0,0,0-76.47-2.13c-.41,1-.81,2.07-1.15,3.12a57.5,57.5,0,0,0,15.42,60.78,13.35,13.35,0,0,1,2-.16c4.29,0,6.34,4.12,9,8.16a56.92,56.92,0,0,0,18.4,6.46c6.84-3,8.61-10.39,15.75-10.39,7.36,0,7.39,3.66,13.87,5.47a4,4,0,0,0,1.07.15,4.15,4.15,0,0,0,3.13-1.46A52.74,52.74,0,0,0,181.88,127.33Zm-33.73,3.17a1.5,1.5,0,0,1,0,.29,5.14,5.14,0,0,1-.05.66,18.94,18.94,0,0,1-3.26,8.86c-.15.23-.3.44-.46.64a18.31,18.31,0,0,1-2.94,3.15c-.18.15-.36.3-.54.43a18.73,18.73,0,0,1-4.93,2.84c-.19.08-.39.16-.6.23l-.69.23a5.28,5.28,0,0,1-.71.19c-.38.12-.75.2-1.13.28s-.63.12-.95.17-.82.11-1.25.14-1.12.09-1.69.09a13.25,13.25,0,0,1-1.67-.09c-.43,0-.84-.08-1.27-.14s-.62-.1-.93-.17a11.33,11.33,0,0,1-1.15-.28,6.22,6.22,0,0,1-.71-.19l-.67-.23-.61-.23a19.16,19.16,0,0,1-5.28-3.1l-.64-.58c-.23-.2-.46-.41-.68-.64a14.86,14.86,0,0,1-1.24-1.38,7.64,7.64,0,0,1-.51-.62c-.38-.53-.76-1.07-1.1-1.64-.17-.27-.31-.53-.46-.81a18.77,18.77,0,0,1-1.94-5.31c-.13-.61-.21-1.22-.28-1.84a5.14,5.14,0,0,1,0-.66c0-.1,0-.2,0-.29,0-.36,0-.73,0-1.09s0-.65,0-1,0-.35,0-.53.07-.6.11-.9c.09-.68.2-1.35.35-2,.09-.34.18-.69.28-1s.24-.75.37-1.11.16-.43.25-.65c.15-.37.31-.75.48-1.11,0,0,0,0,.05-.09.2-.39.41-.8.63-1.18a20.09,20.09,0,0,1,2.33-3.21,19.47,19.47,0,0,1,2.92-2.68c.34-.26.7-.51,1.06-.74a16.45,16.45,0,0,1,2-1.11c.25-.13.49-.23.74-.35a18.34,18.34,0,0,1,3-1l.69-.16a10.68,10.68,0,0,1,1.13-.2,8.6,8.6,0,0,1,1-.11,4,4,0,0,1,.69,0c.34,0,.68,0,1,0,.59,0,1.18,0,1.76.09.37,0,.75.08,1.11.13a8.3,8.3,0,0,1,.87.14l.21,0c.28.05.58.12.86.2s.62.16.92.26c.55.17,1.1.36,1.62.58a20.89,20.89,0,0,1,1.9.92,19.16,19.16,0,0,1,4.37,3.28,18,18,0,0,1,1.25,1.36l.56.72c.19.25.37.51.54.76.36.54.7,1.1,1,1.66a6.18,6.18,0,0,1,.39.77c.12.23.23.47.33.7a19,19,0,0,1,1.2,3.86c.05.26.1.52.13.79s.08.51.11.77h0c0,.23,0,.48.07.73a3.91,3.91,0,0,1,0,.49c0,.33,0,.65,0,1S148.17,130.14,148.15,130.5Z"/><path class="cls-18" d="M148.09,126.21c0,.34,0,.66,0,1a19.25,19.25,0,0,0-38.23-.08,8.82,8.82,0,0,1,0-.9,19.15,19.15,0,0,1,38.3,0Z"/><ellipse class="cls-19" cx="143.08" cy="86.54" rx="4.91" ry="17.41" transform="translate(15.38 194.49) rotate(-71.38)"/><path class="cls-20" d="M130,167.38a.74.74,0,0,1-.47-.16.8.8,0,0,1-.18-1.12l1.22-1.67a.81.81,0,0,1,1.3.95l-1.22,1.67A.82.82,0,0,1,130,167.38Z"/><path class="cls-21" d="M131.08,164.91l-1.21,1.67a.81.81,0,0,1-.64.34,1,1,0,0,1-.48-.16.83.83,0,0,1-.29-.44.76.76,0,0,1,.12-.69L129.8,164a.8.8,0,0,1,.69-.34.94.94,0,0,1,.43.16A.78.78,0,0,1,131.08,164.91Z"/><path class="cls-22" d="M130.38,164.32,129.16,166a.8.8,0,0,1-.66.33h0a.76.76,0,0,1,.12-.69L129.8,164a.8.8,0,0,1,.69-.34A.81.81,0,0,1,130.38,164.32Z"/><path class="cls-20" d="M139.35,153a.84.84,0,0,1-.29.41.8.8,0,0,1-1.12-.16l-1.24-1.66a.79.79,0,0,1,.16-1.12.81.81,0,0,1,1.12.16l1.24,1.66A.8.8,0,0,1,139.35,153Z"/><path class="cls-23" d="M137.31,151.27l1.23,1.66a.8.8,0,0,1,.14.71.91.91,0,0,1-.3.41.83.83,0,0,1-.49.15.79.79,0,0,1-.63-.32L136,152.22a.74.74,0,0,1-.12-.75.78.78,0,0,1,.28-.37A.8.8,0,0,1,137.31,151.27Z"/><path class="cls-22" d="M136.53,151.78l1.24,1.65a.79.79,0,0,1,.13.72v0a.79.79,0,0,1-.63-.32L136,152.22a.74.74,0,0,1-.12-.75A.79.79,0,0,1,136.53,151.78Z"/><path class="cls-20" d="M86.08,132.12a.81.81,0,0,1-.29.4.79.79,0,0,1-1.12-.16l-1.24-1.65a.8.8,0,1,1,1.28-1L86,131.4A.81.81,0,0,1,86.08,132.12Z"/><path class="cls-23" d="M84,130.38,85.27,132a.8.8,0,0,1,.14.71.91.91,0,0,1-.3.41.84.84,0,0,1-.5.15A.77.77,0,0,1,84,133l-1.24-1.65a.79.79,0,0,1-.12-.76,1,1,0,0,1,.28-.37A.79.79,0,0,1,84,130.38Z"/><path class="cls-22" d="M83.26,130.88l1.24,1.65a.8.8,0,0,1,.13.73l0,0A.77.77,0,0,1,84,133l-1.24-1.65a.79.79,0,0,1-.12-.76A.81.81,0,0,1,83.26,130.88Z"/><path class="cls-20" d="M150.14,155a.76.76,0,0,1-.26-.43.79.79,0,0,1,.59-1l2-.49a.81.81,0,0,1,1,.6.79.79,0,0,1-.59,1l-2,.49A.8.8,0,0,1,150.14,155Z"/><path class="cls-24" d="M152.54,153.84l-2,.48a.78.78,0,0,1-.71-.16.89.89,0,0,1-.26-.43.84.84,0,0,1,.06-.52.81.81,0,0,1,.54-.44l2-.48a.75.75,0,0,1,.74.19,1,1,0,0,1,.23.4A.79.79,0,0,1,152.54,153.84Z"/><path class="cls-22" d="M152.39,152.93l-2,.48a.76.76,0,0,1-.71-.17l0,0a.81.81,0,0,1,.54-.44l2-.48a.75.75,0,0,1,.74.19A.78.78,0,0,1,152.39,152.93Z"/><path class="cls-20" d="M170.36,150.92a.82.82,0,0,1-.49.12.81.81,0,0,1-.73-.87l.17-2.06a.8.8,0,0,1,1.6.13l-.17,2.07A.78.78,0,0,1,170.36,150.92Z"/><path class="cls-25" d="M170,148.27l-.17,2a.78.78,0,0,1-.37.62.91.91,0,0,1-.49.12.89.89,0,0,1-.48-.22.81.81,0,0,1-.25-.66l.18-2.05a.76.76,0,0,1,.41-.65,1,1,0,0,1,.45-.09A.8.8,0,0,1,170,148.27Z"/><path class="cls-22" d="M169.07,148.13l-.17,2.05a.8.8,0,0,1-.38.63l-.05,0a.81.81,0,0,1-.25-.66l.18-2.05a.76.76,0,0,1,.41-.65A.8.8,0,0,1,169.07,148.13Z"/><path class="cls-20" d="M177.17,141.46a.81.81,0,0,1-.47-.16.79.79,0,0,1-.17-1.12l1.23-1.67a.8.8,0,1,1,1.28,1l-1.22,1.66A.83.83,0,0,1,177.17,141.46Z"/><path class="cls-26" d="M178.25,139,177,140.66a.8.8,0,0,1-.64.33.86.86,0,0,1-.48-.16.82.82,0,0,1-.29-.44.77.77,0,0,1,.13-.68l1.23-1.66a.78.78,0,0,1,.69-.34.93.93,0,0,1,.43.17A.79.79,0,0,1,178.25,139Z"/><path class="cls-22" d="M177.54,138.4l-1.22,1.66a.79.79,0,0,1-.66.34h0a.77.77,0,0,1,.13-.68l1.23-1.66a.78.78,0,0,1,.69-.34A.82.82,0,0,1,177.54,138.4Z"/><path class="cls-20" d="M83.1,151.2a.83.83,0,0,1-.47-.16.81.81,0,0,1-.17-1.12l1.23-1.67a.8.8,0,1,1,1.29,1l-1.23,1.66A.82.82,0,0,1,83.1,151.2Z"/><path class="cls-27" d="M84.18,148.74,83,150.4a.82.82,0,0,1-.65.33.89.89,0,0,1-.48-.16.8.8,0,0,1-.28-.44.74.74,0,0,1,.13-.68l1.23-1.66a.78.78,0,0,1,.69-.34.93.93,0,0,1,.43.17A.78.78,0,0,1,84.18,148.74Z"/><path class="cls-22" d="M83.48,148.14l-1.23,1.66a.78.78,0,0,1-.66.34h0a.74.74,0,0,1,.13-.68l1.23-1.66a.78.78,0,0,1,.69-.34A.82.82,0,0,1,83.48,148.14Z"/><path class="cls-20" d="M117.51,150.91a.89.89,0,0,1-.11-.49.81.81,0,0,1,.88-.72l2.06.19a.8.8,0,0,1-.15,1.6l-2.06-.2A.79.79,0,0,1,117.51,150.91Z"/><path class="cls-26" d="M120.17,150.56l-2-.19a.81.81,0,0,1-.62-.38,1,1,0,0,1-.11-.49.91.91,0,0,1,.23-.47.78.78,0,0,1,.66-.25l2,.2a.74.74,0,0,1,.64.42,1,1,0,0,1,.09.45A.79.79,0,0,1,120.17,150.56Z"/><path class="cls-22" d="M120.32,149.65l-2-.19a.78.78,0,0,1-.63-.39l0,0a.78.78,0,0,1,.66-.25l2,.2a.74.74,0,0,1,.64.42A.8.8,0,0,1,120.32,149.65Z"/><path class="cls-20" d="M107.79,151.36a.76.76,0,0,1-.49-.07.79.79,0,0,1-.37-1.07l.91-1.86a.8.8,0,0,1,1.07-.37.81.81,0,0,1,.37,1.08l-.91,1.85A.8.8,0,0,1,107.79,151.36Z"/><path class="cls-28" d="M108.41,148.75l-.91,1.85a.83.83,0,0,1-.57.45.92.92,0,0,1-.51-.08.78.78,0,0,1-.35-.37.75.75,0,0,1,0-.7L107,148a.76.76,0,0,1,.62-.45.9.9,0,0,1,.45.08A.81.81,0,0,1,108.41,148.75Z"/><path class="cls-22" d="M107.61,148.29l-.91,1.85a.79.79,0,0,1-.59.45h0a.75.75,0,0,1,0-.7L107,148a.76.76,0,0,1,.62-.45A.85.85,0,0,1,107.61,148.29Z"/><path class="cls-20" d="M152.44,132A.77.77,0,0,1,152,132a.81.81,0,0,1-.37-1.07l.91-1.86a.81.81,0,0,1,1.08-.36.8.8,0,0,1,.36,1.07l-.91,1.86A.76.76,0,0,1,152.44,132Z"/><path class="cls-28" d="M153.06,129.41l-.9,1.86a.81.81,0,0,1-.58.44,1,1,0,0,1-.5-.07.94.94,0,0,1-.36-.38.78.78,0,0,1,0-.7l.91-1.85a.76.76,0,0,1,.62-.46.81.81,0,0,1,.45.09A.78.78,0,0,1,153.06,129.41Z"/><path class="cls-22" d="M152.27,129l-.91,1.86a.8.8,0,0,1-.59.44h-.05a.78.78,0,0,1,0-.7l.91-1.85a.76.76,0,0,1,.62-.46A.85.85,0,0,1,152.27,129Z"/><path class="cls-20" d="M96,147.8a.8.8,0,0,1-.49.07.81.81,0,0,1-.65-.93l.36-2a.8.8,0,0,1,1.58.28l-.36,2A.8.8,0,0,1,96,147.8Z"/><path class="cls-26" d="M95.89,145.12l-.36,2a.82.82,0,0,1-.43.59.93.93,0,0,1-.5.07.83.83,0,0,1-.45-.27.76.76,0,0,1-.19-.67l.36-2a.77.77,0,0,1,.47-.61.88.88,0,0,1,.46,0A.8.8,0,0,1,95.89,145.12Z"/><path class="cls-22" d="M95,144.9l-.36,2a.77.77,0,0,1-.44.59l0,0a.76.76,0,0,1-.19-.67l.36-2a.77.77,0,0,1,.47-.61A.83.83,0,0,1,95,144.9Z"/><path class="cls-20" d="M90.38,157.85a.84.84,0,0,1,.35-.35.81.81,0,0,1,1.08.35l.94,1.84a.8.8,0,1,1-1.42.73l-1-1.84A.82.82,0,0,1,90.38,157.85Z"/><path class="cls-29" d="M92.1,159.92l-.94-1.84a.82.82,0,0,1,0-.73.87.87,0,0,1,.36-.35.85.85,0,0,1,.52-.07.79.79,0,0,1,.55.43l.94,1.84a.76.76,0,0,1,0,.76.81.81,0,0,1-.34.32A.8.8,0,0,1,92.1,159.92Z"/><path class="cls-22" d="M93,159.55,92,157.72a.81.81,0,0,1,0-.74l0,0a.79.79,0,0,1,.55.43l.94,1.84a.76.76,0,0,1,0,.76A.78.78,0,0,1,93,159.55Z"/><path class="cls-20" d="M163.67,135.24a.79.79,0,0,1,.46.19.8.8,0,0,1,.07,1.13l-1.36,1.56a.8.8,0,0,1-1.13.07.8.8,0,0,1-.08-1.13l1.37-1.55A.8.8,0,0,1,163.67,135.24Z"/><path class="cls-29" d="M162.39,137.59l1.36-1.55a.82.82,0,0,1,.67-.27.89.89,0,0,1,.47.2.82.82,0,0,1,.24.46.74.74,0,0,1-.19.67l-1.36,1.55a.75.75,0,0,1-.72.27.86.86,0,0,1-.41-.19A.8.8,0,0,1,162.39,137.59Z"/><path class="cls-22" d="M163,138.25l1.36-1.55a.81.81,0,0,1,.69-.28h0a.74.74,0,0,1-.19.67l-1.36,1.55a.75.75,0,0,1-.72.27A.79.79,0,0,1,163,138.25Z"/><path class="cls-20" d="M160.05,157.41a.84.84,0,0,1,.35-.35.81.81,0,0,1,1.08.35l.94,1.84A.8.8,0,1,1,161,160l-.95-1.84A.82.82,0,0,1,160.05,157.41Z"/><path class="cls-26" d="M161.77,159.47l-.94-1.83a.82.82,0,0,1,0-.73.87.87,0,0,1,.36-.35.85.85,0,0,1,.52-.07.79.79,0,0,1,.55.43l.94,1.84a.74.74,0,0,1,0,.76.92.92,0,0,1-.33.32A.8.8,0,0,1,161.77,159.47Z"/><path class="cls-22" d="M162.62,159.11l-.94-1.84a.79.79,0,0,1,0-.73l0,0a.79.79,0,0,1,.55.43l.94,1.84a.74.74,0,0,1,0,.76A.8.8,0,0,1,162.62,159.11Z"/><path class="cls-20" d="M146.51,144.85a.79.79,0,0,1,.35-.35.8.8,0,0,1,1.08.35l.94,1.84a.8.8,0,0,1-1.43.73l-.94-1.84A.82.82,0,0,1,146.51,144.85Z"/><path class="cls-30" d="M148.23,146.91l-.94-1.83a.82.82,0,0,1,0-.73,1,1,0,0,1,.36-.36.9.9,0,0,1,.51-.06.78.78,0,0,1,.56.43l.94,1.83a.78.78,0,0,1,0,.77,1,1,0,0,1-.34.32A.8.8,0,0,1,148.23,146.91Z"/><path class="cls-22" d="M149.08,146.55l-.94-1.84a.79.79,0,0,1,0-.73l0,0a.78.78,0,0,1,.56.43l.94,1.83a.78.78,0,0,1,0,.77A.8.8,0,0,1,149.08,146.55Z"/><path class="cls-20" d="M122.42,157.61a.84.84,0,0,1,.35-.35.79.79,0,0,1,1.08.34l1,1.85a.8.8,0,0,1-1.43.73l-.94-1.85A.77.77,0,0,1,122.42,157.61Z"/><path class="cls-31" d="M124.14,159.67l-.94-1.84a.79.79,0,0,1,0-.72.89.89,0,0,1,.36-.36.85.85,0,0,1,.52-.06.73.73,0,0,1,.55.42l.94,1.84a.76.76,0,0,1,0,.77.9.9,0,0,1-.33.31A.8.8,0,0,1,124.14,159.67Z"/><path class="cls-22" d="M125,159.31l-.94-1.84a.81.81,0,0,1,0-.74l0,0a.73.73,0,0,1,.55.42l.94,1.84a.76.76,0,0,1,0,.77A.83.83,0,0,1,125,159.31Z"/><path class="cls-20" d="M102.19,135.82a.86.86,0,0,1,.46.19.8.8,0,0,1,.09,1.13l-1.34,1.58a.81.81,0,0,1-1.13.09.8.8,0,0,1-.09-1.13l1.34-1.58A.85.85,0,0,1,102.19,135.82Z"/><path class="cls-31" d="M100.94,138.2l1.34-1.57a.8.8,0,0,1,.67-.29.89.89,0,0,1,.47.2.85.85,0,0,1,.25.45.76.76,0,0,1-.18.68l-1.34,1.57a.75.75,0,0,1-.71.28.8.8,0,0,1-.5-1.32Z"/><path class="cls-22" d="M101.6,138.84l1.34-1.57a.8.8,0,0,1,.68-.28h0a.76.76,0,0,1-.18.68l-1.34,1.57a.75.75,0,0,1-.71.28A.81.81,0,0,1,101.6,138.84Z"/></g></g></g></svg>
