<svg xmlns="http://www.w3.org/2000/svg" viewBox="0 0 244.29 237.64" width="263px" height="255.83px"><defs><style>.cls-1{opacity:0.1;}.cls-2{fill:#534741;}.cls-3{fill:#44bd32;}</style></defs><title>green-peppers</title><g id="Layer_2" data-name="Layer 2"><g id="Toppings"><g id="Green_peppers" data-name="Green peppers"><g id="Green_peppers-2" data-name="Green peppers" class="cls-1"><path class="cls-2" d="M41.87,212.63c-7.47-3.18-14.23,2.51-12.35,10.41-3.18,7.47,2.51,14.22,10.41,12.35,7.47,3.18,14.22-2.52,12.35-10.41C55.46,217.51,49.76,210.75,41.87,212.63Zm7.37,12.09c1.38,5.79-3.58,10-9.05,7.63-5.79,1.38-10-3.58-7.64-9-1.37-5.79,3.58-10,9.06-7.64C47.4,214.29,51.58,219.24,49.24,224.72Z"/><path class="cls-2" d="M129.16,76.15c-5.44-6-14-3.7-15.59,4.26-6,5.43-3.69,14,4.26,15.58,5.43,6,14,3.7,15.58-4.26C139.44,86.3,137.11,77.77,129.16,76.15Zm1.6,14.07c-1.18,5.84-7.44,7.54-11.42,3.12-5.83-1.18-7.54-7.44-3.12-11.42,1.19-5.83,7.44-7.54,11.43-3.12C133.48,80,135.18,86.24,130.76,90.22Z"/><path class="cls-2" d="M79.82,152c-6.57-4.76-14.43-.7-14.35,7.42-4.76,6.57-.7,14.42,7.42,14.34,6.57,4.76,14.42.71,14.35-7.41C92,159.75,87.94,151.9,79.82,152Zm4.51,13.43c.06,6-5.7,8.92-10.52,5.43-6,.06-8.93-5.7-5.44-10.52-.05-5.95,5.7-8.93,10.53-5.44C84.85,154.83,87.82,160.58,84.33,165.41Z"/><path class="cls-2" d="M25.83,140.06c.51-8.1-7.12-12.56-13.94-8.16-8.1-.51-12.56,7.12-8.16,13.94-.51,8.1,7.12,12.56,13.94,8.16C25.77,154.51,30.23,146.88,25.83,140.06Zm-8.93,11c-5,3.23-10.6,0-10.22-6-3.23-5,0-10.6,6-10.22,5-3.23,10.59,0,10.22,6C26.11,145.83,22.84,151.42,16.9,151.05Z"/><path class="cls-2" d="M216.3,185.89c.48-8.1-7.16-12.54-14-8.12-8.1-.48-12.54,7.16-8.12,14-.48,8.1,7.16,12.55,14,8.12C216.28,200.33,220.73,192.69,216.3,185.89Zm-8.9,11c-5,3.24-10.59,0-10.24-6-3.24-5,0-10.59,6-10.23,5-3.25,10.59,0,10.24,5.95C216.6,191.66,213.34,197.26,207.4,196.91Z"/><path class="cls-2" d="M142.68,141.92c-.36-8.1-8.42-11.73-14.73-6.62-8.11.36-11.73,8.42-6.63,14.73.37,8.1,8.43,11.73,14.73,6.62C144.16,156.29,147.79,148.23,142.68,141.92ZM135,153.81c-4.62,3.74-10.53,1.08-10.8-4.86-3.74-4.63-1.09-10.54,4.86-10.8,4.63-3.75,10.54-1.09,10.8,4.85C143.58,147.63,140.92,153.54,135,153.81Z"/><path class="cls-2" d="M147.28,12.61c.24-8.11-7.54-12.32-14.2-7.69-8.11-.24-12.32,7.54-7.69,14.2-.24,8.11,7.53,12.32,14.2,7.69C147.7,27.05,151.91,19.28,147.28,12.61Zm-8.56,11.28c-4.89,3.4-10.59.31-10.41-5.64C124.91,13.36,128,7.67,134,7.84c4.89-3.4,10.58-.31,10.41,5.64C147.76,18.37,144.67,24.07,138.72,23.89Z"/><path class="cls-2" d="M233.26,111.6c-7.35-3.44-14.3,2-12.69,10-3.43,7.35,2,14.29,10,12.69,7.35,3.43,14.3-2,12.69-10C246.68,116.93,241.22,110,233.26,111.6Zm7,12.33c1.18,5.83-3.91,9.84-9.3,7.32-5.84,1.18-9.84-3.91-7.33-9.3-1.18-5.84,3.92-9.85,9.31-7.33C238.73,113.44,242.74,118.53,240.22,123.93Z"/><path class="cls-2" d="M165.13,214.77c-5-6.42-13.64-4.75-15.86,3.06-6.42,5-4.75,13.64,3.06,15.86,5,6.42,13.64,4.75,15.86-3.06C174.61,225.67,172.94,217,165.13,214.77Zm.54,14.15c-1.63,5.73-8,7-11.63,2.24-5.73-1.62-6.95-8-2.24-11.63,1.62-5.72,8-6.95,11.63-2.24C169.15,218.92,170.38,225.28,165.67,228.92Z"/><path class="cls-2" d="M17.23,65.22C9.82,61.9,3,67.48,4.69,75.41,1.38,82.81,7,89.67,14.88,87.94c7.41,3.32,14.26-2.26,12.53-10.19C30.73,70.35,25.15,63.49,17.23,65.22Zm7.15,12.22c1.27,5.82-3.76,9.9-9.19,7.47-5.81,1.27-9.9-3.76-7.47-9.19-1.27-5.81,3.76-9.9,9.19-7.47C22.73,67,26.81,72,24.38,77.44Z"/></g><g id="Green_peppers-3" data-name="Green peppers"><path class="cls-3" d="M39.87,209.63c-7.47-3.18-14.23,2.51-12.35,10.41-3.18,7.47,2.51,14.22,10.41,12.35,7.47,3.18,14.22-2.52,12.35-10.41C53.46,214.51,47.76,207.75,39.87,209.63Zm7.37,12.09c1.38,5.79-3.58,10-9.05,7.63-5.79,1.38-10-3.58-7.64-9-1.37-5.79,3.58-10,9.06-7.64C45.4,211.29,49.58,216.24,47.24,221.72Z"/><path class="cls-3" d="M127.16,73.15c-5.44-6-14-3.7-15.59,4.26-6,5.43-3.69,14,4.26,15.58,5.43,6,14,3.7,15.58-4.26C137.44,83.3,135.11,74.77,127.16,73.15Zm1.6,14.07c-1.18,5.84-7.44,7.54-11.42,3.12-5.83-1.18-7.54-7.44-3.12-11.42,1.19-5.83,7.44-7.54,11.43-3.12C131.48,77,133.18,83.24,128.76,87.22Z"/><path class="cls-3" d="M77.82,149c-6.57-4.76-14.43-.7-14.35,7.42-4.76,6.57-.7,14.42,7.42,14.34,6.57,4.76,14.42.71,14.35-7.41C90,156.75,85.94,148.9,77.82,149Zm4.51,13.43c.06,6-5.7,8.92-10.52,5.43-6,.06-8.93-5.7-5.44-10.52-.05-5.95,5.7-8.93,10.53-5.44C82.85,151.83,85.82,157.58,82.33,162.41Z"/><path class="cls-3" d="M23.83,137.06c.51-8.1-7.12-12.56-13.94-8.16-8.1-.51-12.56,7.12-8.16,13.94-.51,8.1,7.12,12.56,13.94,8.16C23.77,151.51,28.23,143.88,23.83,137.06Zm-8.93,11c-5,3.23-10.6,0-10.22-6-3.23-5,0-10.6,6-10.22,5-3.23,10.59,0,10.22,6C24.11,142.83,20.84,148.42,14.9,148.05Z"/><path class="cls-3" d="M214.3,182.89c.48-8.1-7.16-12.54-14-8.12-8.1-.48-12.54,7.16-8.12,14-.48,8.1,7.16,12.55,14,8.12C214.28,197.33,218.73,189.69,214.3,182.89Zm-8.9,11c-5,3.24-10.59,0-10.24-6-3.24-5,0-10.59,6-10.23,5-3.25,10.59,0,10.24,5.95C214.6,188.66,211.34,194.26,205.4,193.91Z"/><path class="cls-3" d="M140.68,138.92c-.36-8.1-8.42-11.73-14.73-6.62-8.11.36-11.73,8.42-6.63,14.73.37,8.1,8.43,11.73,14.73,6.62C142.16,153.29,145.79,145.23,140.68,138.92ZM133,150.81c-4.62,3.74-10.53,1.08-10.8-4.86-3.74-4.63-1.09-10.54,4.86-10.8,4.63-3.75,10.54-1.09,10.8,4.85C141.58,144.63,138.92,150.54,133,150.81Z"/><path class="cls-3" d="M145.28,9.61c.24-8.11-7.54-12.32-14.2-7.69-8.11-.24-12.32,7.54-7.69,14.2-.24,8.11,7.53,12.32,14.2,7.69C145.7,24.05,149.91,16.28,145.28,9.61Zm-8.56,11.28c-4.89,3.4-10.59.31-10.41-5.64C122.91,10.36,126,4.67,132,4.84c4.89-3.4,10.58-.31,10.41,5.64C145.76,15.37,142.67,21.07,136.72,20.89Z"/><path class="cls-3" d="M231.26,108.6c-7.35-3.44-14.3,2-12.69,10-3.43,7.35,2,14.29,10,12.69,7.35,3.43,14.3-2,12.69-10C244.68,113.93,239.22,107,231.26,108.6Zm7,12.33c1.18,5.83-3.91,9.84-9.3,7.32-5.84,1.18-9.84-3.91-7.33-9.3-1.18-5.84,3.92-9.85,9.31-7.33C236.73,110.44,240.74,115.53,238.22,120.93Z"/><path class="cls-3" d="M163.13,211.77c-5-6.42-13.64-4.75-15.86,3.06-6.42,5-4.75,13.64,3.06,15.86,5,6.42,13.64,4.75,15.86-3.06C172.61,222.67,170.94,214,163.13,211.77Zm.54,14.15c-1.63,5.73-8,7-11.63,2.24-5.73-1.62-6.95-8-2.24-11.63,1.62-5.72,8-6.95,11.63-2.24C167.15,215.92,168.38,222.28,163.67,225.92Z"/><path class="cls-3" d="M15.23,62.22C7.82,58.9,1,64.48,2.69,72.41-.62,79.81,5,86.67,12.88,84.94c7.41,3.32,14.26-2.26,12.53-10.19C28.73,67.35,23.15,60.49,15.23,62.22Zm7.15,12.22c1.27,5.82-3.76,9.9-9.19,7.47-5.81,1.27-9.9-3.76-7.47-9.19-1.27-5.81,3.76-9.9,9.19-7.47C20.73,64,24.81,69,22.38,74.44Z"/></g></g></g></g></svg>
