<svg xmlns="http://www.w3.org/2000/svg" viewBox="0 0 269.54 255.09" width="263px" height="255.83px"><defs><style>.cls-1{opacity:0.1;}.cls-2{fill:#534741;}.cls-3{fill:#e84118;}</style></defs><title>red-peppers</title><g id="Layer_2" data-name="Layer 2"><g id="Toppings"><g id="Red_peppers" data-name="Red peppers"><g id="Red_peppers-2" data-name="Red peppers" class="cls-1"><path class="cls-2" d="M67.75,6.75C62.61.47,54,2.38,52,10.24,45.7,15.38,47.61,24,55.47,26c5.14,6.29,13.77,4.37,15.77-3.49C77.52,17.38,75.61,8.75,67.75,6.75Zm.92,14.13c-1.47,5.77-7.79,7.17-11.56,2.56-5.77-1.46-7.17-7.79-2.56-11.56C56,6.11,62.34,4.71,66.11,9.32,71.88,10.79,73.28,17.12,68.67,20.88Z"/><path class="cls-2" d="M205.46,36.12c-5.49-6-14-3.58-15.54,4.38-6,5.49-3.59,14,4.38,15.55,5.48,6,14,3.58,15.54-4.39C215.82,46.18,213.43,37.67,205.46,36.12Zm1.73,14.06c-1.14,5.84-7.38,7.6-11.4,3.21C190,52.25,188.19,46,192.57,42c1.14-5.84,7.38-7.6,11.4-3.21C209.81,39.92,211.57,46.15,207.19,50.18Z"/><path class="cls-2" d="M160.76,177c-1.7-7.93-10.25-10.17-15.63-4.09-7.93,1.7-10.17,10.25-4.09,15.62,1.7,7.94,10.25,10.18,15.62,4.09C164.6,190.91,166.84,182.36,160.76,177Zm-5.63,13c-3.94,4.46-10.21,2.82-11.46-3-4.46-3.94-2.82-10.21,3-11.46,3.94-4.46,10.21-2.82,11.46,3C162.59,182.47,161,188.74,155.13,190Z"/><path class="cls-2" d="M122.6,87.44c-5.25-6.2-13.84-4.13-15.7,3.77-6.19,5.24-4.13,13.84,3.77,15.7,5.25,6.19,13.84,4.13,15.7-3.77C132.56,97.89,130.5,89.3,122.6,87.44Zm1.18,14.11c-1.37,5.79-7.67,7.31-11.52,2.76-5.79-1.36-7.31-7.66-2.77-11.51C110.86,87,117.16,85.49,121,90,126.8,91.4,128.32,97.7,123.78,101.55Z"/><path class="cls-2" d="M67.62,168.45c-.65-8.09-8.84-11.42-15-6.08-8.09.65-11.42,8.84-6.08,15,.65,8.09,8.84,11.42,15,6.08C69.63,182.75,73,174.57,67.62,168.45Zm-7.27,12.16c-4.48,3.91-10.48,1.47-11-4.47-3.91-4.48-1.47-10.49,4.47-11,4.48-3.91,10.48-1.47,11,4.46C68.73,174.12,66.29,180.12,60.35,180.61Z"/><path class="cls-2" d="M228.77,116.57c-5.89-5.58-14.21-2.59-15.2,5.46-5.58,5.89-2.59,14.21,5.46,15.2,5.89,5.58,14.21,2.6,15.2-5.46C239.81,125.88,236.82,117.56,228.77,116.57Zm2.7,13.9c-.72,5.91-6.82,8.1-11.14,4-5.91-.73-8.1-6.83-4-11.15.73-5.91,6.83-8.1,11.15-4C233.38,120.05,235.57,126.15,231.47,130.47Z"/><path class="cls-2" d="M128,34.39c3.26-7.43-2.37-14.25-10.28-12.45-7.44-3.26-14.25,2.37-12.46,10.28-3.25,7.44,2.37,14.25,10.29,12.46C123,47.93,129.81,42.31,128,34.39Zm-12.16,7.26C110,43,105.92,38,108.3,32.51,107,26.71,112,22.58,117.44,25c5.8-1.32,9.93,3.68,7.54,9.13C126.3,39.91,121.3,44,115.85,41.65Z"/><path class="cls-2" d="M266.93,46.34c-.69-8.09-8.89-11.39-15-6-8.08.69-11.38,8.89-6,15,.68,8.08,8.88,11.38,15,6C269,60.63,272.28,52.44,266.93,46.34Zm-7.22,12.18c-4.48,3.93-10.49,1.51-11-4.42-3.93-4.47-1.51-10.48,4.42-11,4.47-3.93,10.48-1.51,11,4.42C268.05,52,265.64,58,259.71,58.52Z"/><path class="cls-2" d="M145.27,231.26c-7-4.17-14.43.55-13.66,8.63-4.17,7,.55,14.43,8.63,13.65,7,4.18,14.43-.54,13.65-8.62C158.07,238,153.35,230.49,145.27,231.26Zm5.65,13c.57,5.92-4.91,9.38-10,6.32-5.93.57-9.39-4.91-6.32-10-.57-5.92,4.9-9.39,10-6.32C150.52,233.67,154,239.15,150.92,244.25Z"/><path class="cls-2" d="M27.66,96.39c-.58-8.09-8.73-11.5-14.9-6.23-8.1.58-11.51,8.73-6.23,14.9.58,8.09,8.73,11.5,14.9,6.23C29.52,110.71,32.93,102.56,27.66,96.39Zm-7.39,12.08c-4.52,3.87-10.5,1.37-10.92-4.57C5.48,99.38,8,93.4,13.92,93c4.52-3.87,10.5-1.37,10.92,4.57C28.71,102.07,26.21,108.05,20.27,108.47Z"/></g><g id="Red_peppers-3" data-name="Red peppers"><path class="cls-3" d="M63.75,3.75C58.61-2.53,50-.62,48,7.24,41.7,12.38,43.61,21,51.47,23c5.14,6.29,13.77,4.37,15.77-3.49C73.52,14.38,71.61,5.75,63.75,3.75Zm.92,14.13c-1.47,5.77-7.79,7.17-11.56,2.56C47.34,19,45.94,12.65,50.55,8.88,52,3.11,58.34,1.71,62.11,6.32,67.88,7.79,69.28,14.12,64.67,17.88Z"/><path class="cls-3" d="M201.46,33.12c-5.49-6-14-3.58-15.54,4.38-6,5.49-3.59,14,4.38,15.55,5.48,6,14,3.58,15.54-4.39C211.82,43.18,209.43,34.67,201.46,33.12Zm1.73,14.06c-1.14,5.84-7.38,7.6-11.4,3.21C186,49.25,184.19,43,188.57,39c1.14-5.84,7.38-7.6,11.4-3.21C205.81,36.92,207.57,43.15,203.19,47.18Z"/><path class="cls-3" d="M156.76,174c-1.7-7.93-10.25-10.17-15.63-4.09-7.93,1.7-10.17,10.25-4.09,15.62,1.7,7.94,10.25,10.18,15.62,4.09C160.6,187.91,162.84,179.36,156.76,174Zm-5.63,13c-3.94,4.46-10.21,2.82-11.46-3-4.46-3.94-2.82-10.21,3-11.46,3.94-4.46,10.21-2.82,11.46,3C158.59,179.47,157,185.74,151.13,187Z"/><path class="cls-3" d="M118.6,84.44c-5.25-6.2-13.84-4.13-15.7,3.77-6.19,5.24-4.13,13.84,3.77,15.7,5.25,6.19,13.84,4.13,15.7-3.77C128.56,94.89,126.5,86.3,118.6,84.44Zm1.18,14.11c-1.37,5.79-7.67,7.31-11.52,2.76-5.79-1.36-7.31-7.66-2.77-11.51C106.86,84,113.16,82.49,117,87,122.8,88.4,124.32,94.7,119.78,98.55Z"/><path class="cls-3" d="M63.62,165.45c-.65-8.09-8.84-11.42-15-6.08-8.09.65-11.42,8.84-6.08,15,.65,8.09,8.84,11.42,15,6.08C65.63,179.75,69,171.57,63.62,165.45Zm-7.27,12.16c-4.48,3.91-10.48,1.47-11-4.47-3.91-4.48-1.47-10.49,4.47-11,4.48-3.91,10.48-1.47,11,4.46C64.73,171.12,62.29,177.12,56.35,177.61Z"/><path class="cls-3" d="M224.77,113.57c-5.89-5.58-14.21-2.59-15.2,5.46-5.58,5.89-2.59,14.21,5.46,15.2,5.89,5.58,14.21,2.6,15.2-5.46C235.81,122.88,232.82,114.56,224.77,113.57Zm2.7,13.9c-.72,5.91-6.82,8.1-11.14,4-5.91-.73-8.1-6.83-4-11.15.73-5.91,6.83-8.1,11.15-4C229.38,117.05,231.57,123.15,227.47,127.47Z"/><path class="cls-3" d="M124,31.39c3.26-7.43-2.37-14.25-10.28-12.45-7.44-3.26-14.25,2.37-12.46,10.28-3.25,7.44,2.37,14.25,10.29,12.46C119,44.93,125.81,39.31,124,31.39Zm-12.16,7.26C106,40,101.92,35,104.3,29.51,103,23.71,108,19.58,113.44,22c5.8-1.32,9.93,3.68,7.54,9.13C122.3,36.91,117.3,41,111.85,38.65Z"/><path class="cls-3" d="M262.93,43.34c-.69-8.09-8.89-11.39-15-6-8.08.69-11.38,8.89-6,15,.68,8.08,8.88,11.38,15,6C265,57.63,268.28,49.44,262.93,43.34Zm-7.22,12.18c-4.48,3.93-10.49,1.51-11-4.42-3.93-4.47-1.51-10.48,4.42-11,4.47-3.93,10.48-1.51,11,4.42C264.05,49,261.64,55,255.71,55.52Z"/><path class="cls-3" d="M141.27,228.26c-7-4.17-14.43.55-13.66,8.63-4.17,7,.55,14.43,8.63,13.65,7,4.18,14.43-.54,13.65-8.62C154.07,235,149.35,227.49,141.27,228.26Zm5.65,13c.57,5.92-4.91,9.38-10,6.32-5.93.57-9.39-4.91-6.32-10-.57-5.92,4.9-9.39,10-6.32C146.52,230.67,150,236.15,146.92,241.25Z"/><path class="cls-3" d="M23.66,93.39c-.58-8.09-8.73-11.5-14.9-6.23-8.1.58-11.51,8.73-6.23,14.9.58,8.09,8.73,11.5,14.9,6.23C25.52,107.71,28.93,99.56,23.66,93.39Zm-7.39,12.08c-4.52,3.87-10.5,1.37-10.92-4.57C1.48,96.38,4,90.4,9.92,90c4.52-3.87,10.5-1.37,10.92,4.57C24.71,99.07,22.21,105.05,16.27,105.47Z"/></g></g></g></g></svg>
