<svg xmlns="http://www.w3.org/2000/svg" viewBox="0 0 212.37 192.38" width="223px" height="202px"><defs><style>.cls-1{fill:none;}.cls-2{fill:#202020;}</style></defs><title>black-pepper</title><g id="Layer_2" data-name="Layer 2"><g id="Ingredients"><g id="Black_pepper" data-name="Black pepper"><rect class="cls-1" x="4.38" y="4.91" width="203.61" height="182.56" transform="translate(-4.61 5.35) rotate(-2.83)"/><path class="cls-2" d="M109.19,79.35l-.06-.23-.14-.28-.49-.62-.17-.16a2.05,2.05,0,0,0-.94-.42h-.31l-.42.11-.28.13-.61.48-.15.15a2.06,2.06,0,0,0-.45,1v.3l.11.42.13.28.48.6.15.15.1.08v.31l.14.63.11.27.24.34.21.2a3.09,3.09,0,0,0,1.82.47l.5-.06.23-.08.32-.18.19-.16.39-.44.14-.21.13-.34.06-.25a2.58,2.58,0,0,0-.71-2A2.16,2.16,0,0,0,109.19,79.35Z"/><path class="cls-2" d="M45.42,184.25l-.58-.63-.36-.21-.56-.15H43.5a1.15,1.15,0,0,1-.37.08h-.56a3.8,3.8,0,0,0-1.94.64l-.3.37-.22.61,0,.47.25.87.27.38.51.4.45.15.42,0,.15,0c.31,0,.63,0,1,0a2.75,2.75,0,0,0,2.58-1.69l0-.42-.11-.58Z"/><path class="cls-2" d="M112.81,19.38l.08-.37v-.34a2,2,0,0,0-1.82-2l-.26,0-.36.1-.23.1,0,0-.28.11-.34.2-.2.18-.34.44-.11.2-.12.32,0,.24a2.21,2.21,0,0,0,.63,1.63,2.16,2.16,0,0,0,1.64.59,2.66,2.66,0,0,0,.51-.08l.26-.11.34-.23.2-.2.36-.54Z"/><path class="cls-2" d="M59.24,64.89a2.43,2.43,0,0,0,.57-1.83l-.08-.28-.2-.37-.18-.23-.5-.42-.25-.13-.37-.13-.28,0a2.71,2.71,0,0,0-1.12.3l-.47.13-.31.17-.56.5-.19.28-.18.45,0,.34a2.27,2.27,0,0,0,2.38,2.14A2.58,2.58,0,0,0,59.24,64.89Z"/><path class="cls-2" d="M193.47,123.67l0-.13-.14-.3-.06-.12-.11-.17-.09-.1a2.25,2.25,0,0,0-1.79-.7,2.4,2.4,0,0,0-2.16,1.62,2.35,2.35,0,0,0,.81,2.56l.11.08.29.14.31.1.14,0,.19,0h.14l.83,0,.28-.07.38-.18.23-.17.45-.5.15-.25.14-.39,0-.29,0-.83,0-.13Z"/><path class="cls-2" d="M136.1,112.89l-.15-.28-.54-.65-.21-.17a2.16,2.16,0,0,0-1.42-.37l-.19,0-.28.09-.35.21-.22.19-.37.48-.12.24-.11.36,0,.26,0,.62.07.28.18.38.17.23.49.45.25.15.4.14.28,0,.42,0,.26-.06.35-.16.22-.14.49-.48.09-.1a2.16,2.16,0,0,0,.42-1v-.32Z"/><path class="cls-2" d="M5.52,38.4l-.17-.31-.16-.19a2.36,2.36,0,0,0-1.69-.61,2.16,2.16,0,0,0-2,2v.17l0,.25.05.16.15.39.08.14.14.2.11.13a2.19,2.19,0,0,0,1.6.58,2.36,2.36,0,0,0,2-1.32l.07-.23.06-.35v-.24l-.11-.57Z"/><path class="cls-2" d="M176,179.31l-.21,0h-.31l-.21,0-.48.15-.2.09-.26.18-.16.14c-1.07,1.27-.43,3,.27,3.88l.43.27.68.14.5-.07.81-.43.34-.36.27-.61.07-.38a2.16,2.16,0,0,1,0-.26C177.6,180.54,177.09,179.61,176,179.31Z"/><path class="cls-2" d="M152.49,22.28l-.41-.61-.16-.18-.24-.18-.1.13-.1-.27a2.3,2.3,0,0,0-1.44-.45,2,2,0,0,0-1.82,1.49l0,.29,0,.4.09.28.3.57.13.17.22.23.17.13a2.55,2.55,0,0,0,1.64.58,2,2,0,0,0,1.84-1.46l0-.33-.07-.47Z"/><path class="cls-2" d="M128.44,67.09l.23.29.26.2a2.09,2.09,0,0,0,1.72.75,2.6,2.6,0,0,0,.59-.1l.17-.08.23-.13.15-.12.3-.29.11-.14.13-.21.07-.16a2,2,0,0,0-.3-1.9,2.57,2.57,0,0,0-2.12-.94,1.93,1.93,0,0,0-1.6.92l-.08.16-.07.24,0,.18,0,.5.07.36Z"/><path class="cls-2" d="M22.38,139.33l-.44,0-.18,0-.25.08-.16.08-.41.25-.15.12-.19.21-.11.16a2.16,2.16,0,0,0,.05,2.21,2.31,2.31,0,0,0,2.07,1,2.2,2.2,0,0,0,1.73-1,2,2,0,0,0,.26-1.68A2,2,0,0,0,22.38,139.33Z"/><path class="cls-2" d="M123.29,146.17l-.21-.29-.17-.17-.47-.34-.23-.11-.34-.1-.25,0-.41,0-.27.07-.36.15-.22.16-.5.5-.11.13a2.33,2.33,0,0,0-.37.83l0,.39.18.52.21.32.63.55.26.15.4.13.29,0a2.23,2.23,0,0,0,1.77-.91,2,2,0,0,0,.25-1.78Z"/><path class="cls-2" d="M55.1,135.09l-.32,0-.43.06-.29.11-.26.16h-.15l-.35.07-.69.31-.28.22-.31.39-.15.31a2.1,2.1,0,0,0,1.8,2.56l.48-.27.37.12.79-.43,0-.1.34,0a2,2,0,0,0,.84-2A1.93,1.93,0,0,0,55.1,135.09Z"/><path class="cls-2" d="M186.46,45.13l.07-.42-.07-.58-.16-.39-.54-.66-.34-.24-.55-.18-.41,0-.15,0a2.25,2.25,0,0,0-2,2.61l.09.25.18.33.17.2.46.4.23.14.36.13.27,0h.14A2.57,2.57,0,0,0,186.46,45.13Z"/><path class="cls-2" d="M89.85,43.33,90,43l.06-.27a2.32,2.32,0,0,0-.68-1.81,2.29,2.29,0,0,0-1.74-.61l-.19,0-.28.08-.37.2-.22.18-.4.49-.14.24-.12.37,0,.28,0,.62L86,43l.18.38.17.23.5.45.25.15.39.14.29,0,.62,0,.27-.06.37-.17.22-.15.45-.46Z"/><path class="cls-2" d="M19,104.56l.62,0,.27-.06.36-.17.23-.15.44-.46.16-.23.15-.36.06-.27A2.32,2.32,0,0,0,20.6,101a2.24,2.24,0,0,0-1.74-.61l-.19,0-.27.08-.37.2-.22.18-.4.48-.14.25-.12.37,0,.27,0,.63.07.28.18.38.18.23.49.45.25.15.39.14Z"/><path class="cls-2" d="M85.33,114.86l-.29,0-.41.13-.26.14-.51.43-.18.23-.2.37-.08.29a2.41,2.41,0,0,0,.59,1.91l.12.1.18.12.14.08.46.18.15,0,.23,0h.16a2,2,0,0,0,1.9-2A2.07,2.07,0,0,0,85.33,114.86Z"/><path class="cls-2" d="M62.06,95.23l-.6-.59-.28-.17-.45-.16-.31,0a2.22,2.22,0,0,0-1.73.88,2.07,2.07,0,0,0-.29,1.76l.1.22.2.3.17.18.46.35.23.11.36.12.25,0h.07a2.33,2.33,0,0,0,2.16-1.69v-.41l-.14-.54Z"/><path class="cls-2" d="M95.57,131.93a3,3,0,0,0-.5.07l-.24.1-.3.2-.19.17L94,133l-.13.24-.11.36,0,.26,0,.41.07.28.18.38.17.24.5.44.24.15.4.14.29.05.61,0,.27-.07.36-.16.23-.16.45-.46.16-.23.15-.37.06-.27a2.15,2.15,0,0,0-.63-1.62A2.18,2.18,0,0,0,95.57,131.93Z"/><path class="cls-2" d="M177.33,2.6l-.32,0-.43.14-.28.16-.09.09h-.05A2,2,0,0,0,175,4.51l0,.32.11.43.14.28.54.64.21.18a2.2,2.2,0,0,0,1.34.38l.28,0,.29-.11.38-.23.22-.21.37-.54.11-.25.09-.37V4.66A2,2,0,0,0,177.33,2.6Z"/><path class="cls-2" d="M151.05,130.36l-.21-.3-.17-.18-.48-.34-.23-.12-.35-.1-.25,0-.41,0-.26.06-.35.15-.23.15-.44.43-.11.12a2.14,2.14,0,0,0-.44.9l0,.39.17.52.21.32.61.56.26.15.41.14.3,0a2.22,2.22,0,0,0,1.77-.88,2.1,2.1,0,0,0,.28-1.77Z"/><path class="cls-2" d="M205.13,83.17l-.54.27-.51.62-.19.2a2.63,2.63,0,0,0-.34,2l.17.36.37.42,0,0,0,.06.57.52.54.19a2.4,2.4,0,0,0,1.68-.78,2.44,2.44,0,0,0,.62-1.72h0A2.29,2.29,0,0,0,205.13,83.17Z"/><path class="cls-2" d="M172.62,115.85a2,2,0,0,0,.33-1.66,2.23,2.23,0,0,0-2.12-1.9l-.21,0-.29,0-.39.11-.26.12-.15.12-.06,0a2,2,0,0,0-1.34,1.08,2,2,0,0,0-.08,1.49,2.39,2.39,0,0,0,2.57,1.73A2.52,2.52,0,0,0,172.62,115.85Z"/><path class="cls-2" d="M133.15,93.39l0-.38-.07-.54-.15-.36-.51-.64-.31-.23-.43-.17-.05-.24-.22-.44-.22-.26-.56-.43-.18-.11v0a2,2,0,0,0-1.26-.38,1.92,1.92,0,0,0-1.79,1.71v.26l.07.37.09.25.32.53.14.17.19.17a3.52,3.52,0,0,0-.31.39,2.84,2.84,0,0,0-.51,2.28l.2.36.4.41.36.2.82.19h.41l.54-.19.34-.23a4.25,4.25,0,0,1,.69-.51A4.71,4.71,0,0,0,133.15,93.39Z"/><path class="cls-2" d="M58.66,7.83l-.19-.16-.16-.1-.48-.23-.17-.06-.26,0h-.19a2,2,0,0,0-1.74,1.31A2.27,2.27,0,0,0,56.11,11l.32.18.5.14h.37l.77-.19L58.4,11l.39-.36.2-.31A2.41,2.41,0,0,0,58.79,8Z"/><path class="cls-2" d="M109.2,179l-.35-.19-.07.13,0-.17a2.49,2.49,0,0,0-1.22-.25,2.93,2.93,0,0,0-.48.07l-.23.09-.31.19-.18.16-.36.44.11,1.05.84.69.71-.07.13.16,1.05.1.84-.7.09-1.06-.38-.46Z"/><path class="cls-2" d="M104,110.84l.21-.33.11-.24a2.57,2.57,0,0,0-.34-2.44,2.41,2.41,0,0,0-2.07-.88,3.05,3.05,0,0,0-2.54,1.55,2.66,2.66,0,0,0,.13,2.68l.19.2.32.24.25.12.61.17.28,0,.4,0,.21-.06.32-.07a3.47,3.47,0,0,0,1.74-.72Z"/><path class="cls-2" d="M115.17,50.82l.42.14.3,0a2.54,2.54,0,0,0,1.12-.32,1.87,1.87,0,0,0,1.46-2,2.27,2.27,0,0,0-.73-1.56,2,2,0,0,0-1.39-.51l-.51.25-.19.2-.21,0-.35.16-.23.15-.44.43-.1.11a2.16,2.16,0,0,0-.44.93l0,.38.17.51.21.32.62.56Z"/><path class="cls-2" d="M152.13,56.47l-.26.06-.33.14-.2.14-.23.2H151l-.51.47-.18.25-.18.4-.07.3a2.49,2.49,0,0,0,1.55,2.33l.49.07.58-.13v-.06l.46,0,.66-.58.22-.33.17-.52L153.7,59h-.12l.7-.12a2.27,2.27,0,0,0-.56-1.82A1.94,1.94,0,0,0,152.13,56.47Z"/></g></g></g></svg>
