<svg xmlns="http://www.w3.org/2000/svg" viewBox="0 0 298.49 255.1" width="223px" height="190.58px"><defs><style>.cls-1{fill:#534741;opacity:0.1;}.cls-2{fill:#e8e8e8;}</style></defs><title>feta</title><g id="Layer_2" data-name="Layer 2"><g id="Ingredients"><g id="Feta"><rect class="cls-1" x="3.88" y="122.37" width="28.78" height="28.78" rx="8" ry="8" transform="translate(56.1 4.07) rotate(23.52)"/><rect class="cls-2" x="2.02" y="117.64" width="28.78" height="28.78" rx="8" ry="8" transform="translate(54.06 4.42) rotate(23.52)"/><rect class="cls-1" x="92.98" y="122.9" width="28.78" height="28.78" rx="8" ry="8" transform="matrix(0.83, -0.56, 0.56, 0.83, -58.23, 82.95)"/><rect class="cls-2" x="87.99" y="121.91" width="28.78" height="28.78" rx="8" ry="8" transform="translate(-58.53 80.01) rotate(-33.81)"/><rect class="cls-1" x="167.47" y="44.6" width="28.78" height="28.78" rx="8" ry="8" transform="translate(280.72 -104.65) rotate(103.17)"/><rect class="cls-2" x="171.79" y="41.92" width="28.78" height="28.78" rx="8" ry="8" transform="translate(283.41 -112.16) rotate(103.17)"/><rect class="cls-1" x="158.42" y="175.56" width="28.78" height="28.78" rx="8" ry="8" transform="translate(-19.38 19.64) rotate(-6.16)"/><rect class="cls-2" x="154.46" y="172.37" width="28.78" height="28.78" rx="8" ry="8" transform="translate(-19.06 19.19) rotate(-6.16)"/><rect class="cls-1" x="186.56" y="125.93" width="28.78" height="28.78" rx="8" ry="8" transform="translate(-39.16 189.51) rotate(-46.5)"/><rect class="cls-2" x="181.48" y="126.07" width="28.78" height="28.78" rx="8" ry="8" transform="translate(-40.84 185.87) rotate(-46.5)"/><rect class="cls-1" x="86.83" y="5.9" width="28.78" height="28.78" rx="8" ry="8" transform="translate(93.75 -82.68) rotate(74.51)"/><rect class="cls-2" x="89.34" y="1.47" width="28.78" height="28.78" rx="8" ry="8" transform="translate(91.32 -88.34) rotate(74.51)"/><rect class="cls-1" x="122.6" y="224.3" width="28.78" height="28.78" rx="8" ry="8" transform="translate(106.65 -34.84) rotate(23.52)"/><rect class="cls-2" x="120.73" y="219.57" width="28.78" height="28.78" rx="8" ry="8" transform="translate(104.6 -34.49) rotate(23.52)"/><rect class="cls-1" x="267.69" y="121.17" width="28.78" height="28.78" rx="8" ry="8" transform="translate(77.55 -101.32) rotate(23.52)"/><rect class="cls-2" x="265.83" y="116.44" width="28.78" height="28.78" rx="8" ry="8" transform="translate(75.5 -100.97) rotate(23.52)"/></g></g></g></svg>
