<svg xmlns="http://www.w3.org/2000/svg" viewBox="0 0 254.07 245.79" width="223px" height="215.72px"><defs><style>.cls-1{opacity:0.1;}.cls-2{fill:#534741;}.cls-3{fill:#6baf4b;}.cls-4{fill:#88c969;}</style></defs><title>herbs</title><g id="Layer_2" data-name="Layer 2"><g id="Ingredients"><g id="Herbs"><g class="cls-1"><path class="cls-2" d="M28.09,82.07c-4.75,7.58-13.15,10.86-18.76,7.35S3,76.9,7.77,69.33,26.53,62,26.53,62,32.84,74.5,28.09,82.07Z"/><rect class="cls-2" x="-1.39" y="86.18" width="23.98" height="2.4" rx="1" ry="1" transform="translate(-69.06 49.94) rotate(-57.91)"/><path class="cls-2" d="M103.17,105.69c-7.63-4.66-11-13-7.58-18.67s12.44-6.46,20.07-1.81,7.58,18.67,7.58,18.67S110.8,110.35,103.17,105.69Z"/><rect class="cls-2" x="96.44" y="76.28" width="2.4" height="23.98" rx="1" ry="1" transform="translate(-28.56 125.67) rotate(-58.62)"/><path class="cls-2" d="M143.74,6.22c7,5.52,9.4,14.23,5.31,19.43s-13.11,4.94-20.14-.59S123.6,5.63,123.6,5.63,136.71.69,143.74,6.22Z"/><rect class="cls-2" x="145.97" y="12.18" width="2.4" height="23.98" rx="1" ry="1" transform="translate(37.17 124.88) rotate(-51.81)"/><path class="cls-2" d="M212.33,105.6c-7.12,5.41-16.14,5.51-20.15.24s-1.48-13.93,5.64-19.34S218,86.26,218,86.26,219.45,100.19,212.33,105.6Z"/><rect class="cls-2" x="182.1" y="103.19" width="23.98" height="2.4" rx="1" ry="1" transform="translate(-23.61 138.65) rotate(-37.22)"/><path class="cls-2" d="M164.85,147.55c4.49,7.73,3.48,16.69-2.25,20s-14-.26-18.5-8,2.26-20,2.26-20S160.37,139.81,164.85,147.55Z"/><rect class="cls-2" x="160.19" y="153.5" width="2.4" height="23.98" rx="1" ry="1" transform="matrix(0.87, -0.5, 0.5, 0.87, -61.23, 103.23)"/><path class="cls-2" d="M155.41,225.88c-3.21,8.35-10.82,13.19-17,10.82s-8.6-11.07-5.39-19.41,17-10.82,17-10.82S158.61,217.53,155.41,225.88Z"/><rect class="cls-2" x="127.28" y="233.26" width="23.98" height="2.4" rx="1" ry="1" transform="translate(-129.52 280.46) rotate(-69)"/><path class="cls-2" d="M247.47,162.22c5.41,7.12,5.52,16.14.25,20.15s-13.94,1.48-19.34-5.64-.25-20.14-.25-20.14S242.06,155.11,247.47,162.22Z"/><rect class="cls-2" x="245.07" y="168.47" width="2.4" height="23.98" rx="1" ry="1" transform="translate(-59 185.75) rotate(-37.23)"/><path class="cls-2" d="M57.87,153.35c4.68,7.62,3.89,16.6-1.75,20.07s-14,.09-18.69-7.53,1.76-20.07,1.76-20.07S53.2,145.73,57.87,153.35Z"/><rect class="cls-2" x="53.66" y="159.38" width="2.4" height="23.98" rx="1" ry="1" transform="translate(-81.51 53.98) rotate(-31.52)"/></g><path class="cls-3" d="M24.49,78.47c-4.75,7.58-13.15,10.87-18.76,7.35S-.58,73.31,4.17,65.73s18.76-7.34,18.76-7.34S29.24,70.9,24.49,78.47Z"/><rect class="cls-4" x="-4.98" y="82.59" width="23.98" height="2.4" rx="1" ry="1" transform="translate(-67.7 45.21) rotate(-57.91)"/><path class="cls-3" d="M99.57,102.09c-7.63-4.65-11-13-7.57-18.66s12.43-6.47,20.06-1.81,7.58,18.66,7.58,18.66S107.21,106.75,99.57,102.09Z"/><rect class="cls-4" x="92.85" y="72.68" width="2.4" height="23.98" rx="1" ry="1" transform="translate(-27.21 120.88) rotate(-58.62)"/><path class="cls-3" d="M140.14,2.62c7,5.53,9.41,14.23,5.31,19.43s-13.11,4.95-20.14-.58S120,2,120,2,133.12-2.91,140.14,2.62Z"/><rect class="cls-4" x="142.37" y="8.58" width="2.4" height="23.98" rx="1" ry="1" transform="translate(38.63 120.68) rotate(-51.81)"/><path class="cls-3" d="M208.73,102c-7.12,5.41-16.14,5.52-20.15.24s-1.48-13.93,5.64-19.34,20.15-.24,20.15-.24S215.85,96.59,208.73,102Z"/><rect class="cls-4" x="178.5" y="99.59" width="23.98" height="2.4" rx="1" ry="1" transform="translate(-22.17 135.74) rotate(-37.22)"/><path class="cls-3" d="M161.26,144c4.48,7.73,3.47,16.7-2.26,20s-14-.26-18.49-8,2.25-20,2.25-20S156.77,136.21,161.26,144Z"/><rect class="cls-4" x="156.6" y="149.9" width="2.4" height="23.98" rx="1" ry="1" transform="translate(-59.91 100.95) rotate(-30.09)"/><path class="cls-3" d="M151.81,222.28c-3.2,8.35-10.81,13.19-17,10.82s-8.59-11.06-5.39-19.41,17-10.82,17-10.82S155,213.94,151.81,222.28Z"/><rect class="cls-4" x="123.68" y="229.66" width="23.98" height="2.4" rx="1" ry="1" transform="translate(-128.47 274.8) rotate(-69)"/><path class="cls-3" d="M243.87,158.63c5.41,7.12,5.52,16.14.25,20.14s-13.93,1.49-19.34-5.63-.25-20.15-.25-20.15S238.47,151.51,243.87,158.63Z"/><rect class="cls-4" x="241.47" y="164.87" width="2.4" height="23.98" rx="1" ry="1" transform="translate(-57.55 182.84) rotate(-37.23)"/><path class="cls-3" d="M54.28,149.75c4.67,7.62,3.88,16.61-1.76,20.07s-14,.09-18.69-7.53,1.76-20.07,1.76-20.07S49.6,142.13,54.28,149.75Z"/><rect class="cls-4" x="50.06" y="155.78" width="2.4" height="23.98" rx="1" ry="1" transform="translate(-80.16 51.56) rotate(-31.52)"/></g></g></g></svg>
